<svg width="60" height="60" viewBox="0 0 60 60" fill="none" xmlns="http://www.w3.org/2000/svg">
<g clip-path="url(#clip0_200_1289)">
<rect width="60" height="60" fill="white"/>
<path d="M36.4028 43.4061H20.731V45.2499H36.4028V43.4061Z" fill="#34303D"/>
<path d="M47.4648 26.8125H45.6211V4.6875C45.6211 4.19522 45.4293 3.73244 45.0809 3.38397C44.7324 3.0355 44.2696 2.84375 43.7773 2.84375H16.1211C15.6288 2.84375 15.166 3.0355 14.8176 3.38397C14.4691 3.73244 14.2773 4.19522 14.2773 4.6875V21.2812H12.4336V4.6875C12.4336 3.70294 12.8171 2.77645 13.514 2.08044C14.21 1.3835 15.1365 1 16.1211 1H43.7773C44.7619 1 45.6875 1.3835 46.3844 2.08044C47.0813 2.77645 47.4648 3.70294 47.4648 4.6875V26.8125Z" fill="#34303D"/>
<path d="M32.7153 38.7969H27.1841V40.6406H32.7153V38.7969Z" fill="#34303D"/>
<path d="M22.5747 8.375H17.0435V13.9062H22.5747V8.375Z" fill="#FF5F5C"/>
<path d="M36.4028 8.375H24.4185V10.2187H36.4028V8.375Z" fill="#34303D"/>
<path d="M36.4028 12.0625H24.4185V13.9062H36.4028V12.0625Z" fill="#34303D"/>
<path d="M22.5747 15.75H17.0435V21.2812H22.5747V15.75Z" fill="#FF5F5C"/>
<path d="M36.4028 15.75H24.4185V17.5937H36.4028V15.75Z" fill="#34303D"/>
<path d="M36.4028 19.4376H24.4185V21.2814H36.4028V19.4376Z" fill="#34303D"/>
<path d="M22.5747 23.125H17.0435V28.6562H22.5747V23.125Z" fill="#FF5F5C"/>
<path d="M36.4028 23.125H24.4185V24.9687H36.4028V23.125Z" fill="#34303D"/>
<path d="M36.4028 26.8125H24.4185V28.6562H36.4028V26.8125Z" fill="#34303D"/>
<path d="M22.5747 36.0312H17.9653L17.0435 34.1875V30.5H22.5747V36.0312Z" fill="#FF5F5C"/>
<path d="M32.7153 30.5H24.4185V32.3437H32.7153V30.5Z" fill="#34303D"/>
<path d="M32.7153 34.1874H24.4185V36.0311H32.7153V34.1874Z" fill="#34303D"/>
<path d="M53.3782 32.884C53.0178 32.5235 52.5467 32.3437 52.0747 32.3437C51.6027 32.3437 51.1316 32.5235 50.7712 32.884C50.4107 33.2444 50.231 33.7155 50.231 34.1875V33.2656C50.231 32.7936 50.0512 32.3225 49.6907 31.9621C49.3303 31.6016 48.8592 31.4219 48.3872 31.4219C47.9152 31.4219 47.4441 31.6016 47.0837 31.9621C46.7232 32.3225 46.5435 32.7936 46.5435 33.2656V32.3437C46.5435 31.8717 46.3637 31.4007 46.0032 31.0402C45.6428 30.6798 45.1717 30.5 44.6997 30.5C44.2277 30.5 43.7566 30.6798 43.3962 31.0402C43.0357 31.4007 42.856 31.8717 42.856 32.3437V25.8906C42.856 25.4186 42.6762 24.9475 42.3157 24.5871C41.9553 24.2266 41.4842 24.0469 41.0122 24.0469C40.5402 24.0469 40.0691 24.2266 39.7087 24.5871C39.3482 24.9475 39.1685 25.4186 39.1685 25.8906V36.9531C39.1685 36.4811 38.9887 36.01 38.6282 35.6496C38.2678 35.2891 37.7967 35.1094 37.3247 35.1094C36.8527 35.1094 36.3816 35.2891 36.0212 35.6496C35.6607 36.01 35.481 36.4811 35.481 36.9531V41.5828C35.481 45.25 40.0903 49.8594 40.0903 49.8594V51.7031H51.1528V49.8594L53.9185 43.4062V34.1875C53.9185 33.7155 53.7387 33.2444 53.3782 32.884Z" fill="#FFDE8A"/>
<path d="M40.0903 40.6406H38.2466V25.8906C38.2466 25.1531 38.5342 24.458 39.056 23.9353C40.1005 22.8899 41.9239 22.8899 42.9684 23.9353C43.4902 24.458 43.7778 25.1531 43.7778 25.8906V36.0312H41.9341V25.8906C41.9341 25.6445 41.8382 25.4131 41.663 25.2379C41.3155 24.8904 40.7089 24.8904 40.3614 25.2379C40.1862 25.4131 40.0903 25.6445 40.0903 25.8906V40.6406Z" fill="#34303D"/>
<path d="M47.4653 36.0312H45.6216V32.3437C45.6216 32.0976 45.5257 31.8662 45.3505 31.692C45.003 31.3426 44.3964 31.3426 44.0489 31.692C43.8737 31.8662 43.7778 32.0976 43.7778 32.3437V36.0312H41.9341V32.3437C41.9341 31.6053 42.2217 30.9111 42.7435 30.3884C43.788 29.343 45.6114 29.343 46.6559 30.3884C47.1777 30.9111 47.4653 31.6053 47.4653 32.3437V36.0312Z" fill="#34303D"/>
<path d="M51.1528 36.0312H49.3091V33.2656C49.3091 33.0195 49.2132 32.7881 49.039 32.6138C48.6896 32.2663 48.0848 32.2663 47.7354 32.6138C47.5612 32.7881 47.4653 33.0195 47.4653 33.2656V36.0312H45.6216V33.2656C45.6216 32.5272 45.9101 31.8321 46.4319 31.3103C47.4764 30.2649 49.298 30.2649 50.3425 31.3103C50.8652 31.8321 51.1528 32.5272 51.1528 33.2656V36.0312Z" fill="#34303D"/>
<path d="M52.0747 51.7031H50.231V49.6704L52.9966 43.2173V34.1875C52.9966 33.9414 52.9007 33.71 52.7265 33.5357C52.3771 33.1882 51.7723 33.1882 51.4229 33.5357C51.2487 33.71 51.1528 33.9414 51.1528 34.1875V36.0313H49.3091V34.1875C49.3091 33.4491 49.5976 32.754 50.1194 32.2322C51.1639 31.1877 52.9855 31.1877 54.03 32.2322C54.5527 32.754 54.8403 33.4491 54.8403 34.1875V43.5952L52.0747 50.0484V51.7031Z" fill="#34303D"/>
<path d="M41.0122 51.7031H39.1685V50.2309C38.135 49.1339 34.5591 45.0813 34.5591 41.5828V36.9531C34.5591 36.2147 34.8476 35.5196 35.3694 34.9978C36.4139 33.9534 38.2355 33.9534 39.28 34.9978C39.8027 35.5196 40.0903 36.2147 40.0903 36.9531H38.2466C38.2466 36.707 38.1507 36.4756 37.9765 36.3014C37.6271 35.9538 37.0223 35.9538 36.6729 36.3014C36.4987 36.4756 36.4028 36.707 36.4028 36.9531V41.5828C36.4028 44.2774 39.5344 48 40.7421 49.2076L41.0122 49.4777V51.7031Z" fill="#34303D"/>
<path d="M52.9966 60V51.7031H38.2466V60" fill="#57DCF2"/>
<path d="M53.9185 60H52.0747V52.625H39.1685V60H37.3247V52.625C37.3247 52.1327 37.5165 51.6699 37.8649 51.3215C38.2134 50.973 38.6762 50.7812 39.1685 50.7812H52.0747C52.567 50.7812 53.0298 50.973 53.3782 51.3215C53.7267 51.6699 53.9185 52.1327 53.9185 52.625V60Z" fill="#34303D"/>
<path d="M42.856 54.4686H41.0122V56.3124H42.856V54.4686Z" fill="#34303D"/>
<path d="M41.9341 19.4375H40.0903V21.2812H41.9341V19.4375Z" fill="#34303D"/>
<path d="M41.9341 15.7499H40.0903V17.5936H41.9341V15.7499Z" fill="#34303D"/>
<path d="M41.9341 12.0625H40.0903V13.9062H41.9341V12.0625Z" fill="#34303D"/>
<path d="M41.9341 8.375H40.0903V10.2187H41.9341V8.375Z" fill="#34303D"/>
<path d="M19.8086 39.7187C18.8867 36.9531 17.043 33.2656 17.043 33.2656V25.8906C17.043 25.4186 16.8632 24.9475 16.5027 24.5871C16.1423 24.2266 15.6712 24.0469 15.1992 24.0469C14.7272 24.0469 14.2561 24.2266 13.8957 24.5871C13.5352 24.9475 13.3555 25.4186 13.3555 25.8906V26.8125L9.66797 28.6562L5.98047 37.875L9.66797 48.9375V51.7031H20.7305C20.7305 51.7031 20.7305 48.0156 20.7305 46.1719C20.7305 44.3281 20.4604 41.674 19.8086 39.7187Z" fill="#FFDE8A"/>
<path d="M21.6523 51.7031H19.8086V46.1718C19.8086 44.5392 19.579 41.9469 18.9337 40.01C18.0441 37.3403 16.2363 33.7136 16.2179 33.6777L16.1211 33.4832V25.8906C16.1211 25.6445 16.0252 25.4131 15.851 25.2388C15.5025 24.8904 14.8959 24.8904 14.5474 25.2388C14.3732 25.4131 14.2773 25.6445 14.2773 25.8906L14.2718 30.6014L13.2946 39.397L11.0028 40.5429L10.1777 38.8936L11.5735 38.1958L12.4336 30.4493V25.8906C12.4336 25.1522 12.7212 24.4571 13.2439 23.9353C14.2884 22.8899 16.11 22.8899 17.1545 23.9353C17.6772 24.4571 17.9648 25.1522 17.9648 25.8906V33.0508C18.364 33.862 19.863 36.966 20.6834 39.4274C21.3988 41.5735 21.6523 44.4018 21.6523 46.1718V51.7031Z" fill="#34303D"/>
<path d="M10.5902 51.7031H8.7465V49.0868L5 37.8464L8.94286 27.9879L12.9438 25.9874L13.7679 27.6376L10.3939 29.3246L6.96175 37.9036L10.5902 48.7882V51.7031Z" fill="#34303D"/>
<path d="M22.5747 60V51.7031H7.82471V60" fill="#57DCF2"/>
<path d="M23.4966 60H21.6528V52.625H8.74658V60H6.90283V52.625C6.90283 52.1336 7.09458 51.6709 7.44213 51.3224C7.78968 50.973 8.25338 50.7812 8.74658 50.7812H21.6528C22.146 50.7812 22.6097 50.973 22.9573 51.3224C23.3048 51.6709 23.4966 52.1336 23.4966 52.625V60Z" fill="#34303D"/>
<path d="M12.4341 54.4686H10.5903V56.3124H12.4341V54.4686Z" fill="#34303D"/>
</g>
<defs>
<clipPath id="clip0_200_1289">
<rect width="60" height="60" fill="white"/>
</clipPath>
</defs>
</svg>
