<svg width="40" height="40" viewBox="0 0 40 40" fill="none" xmlns="http://www.w3.org/2000/svg">
<g clip-path="url(#clip0_208_12524)">
<path d="M22.7555 10.9471C22.7545 10.9541 22.7585 10.962 22.7655 10.964C22.7725 10.967 22.7805 10.964 22.7845 10.9571C23.2645 10.0917 24.4625 9.83904 25.3366 9.8649C26.5376 9.89972 27.7006 10.3384 28.6826 11.0078C28.6956 11.0167 28.7016 11.0138 28.7016 10.9979C28.7006 10.9829 28.6946 10.97 28.6806 10.9581C27.5246 9.95542 25.8486 9.10795 24.2865 9.13082C23.1875 9.14674 22.9235 10.0738 22.7555 10.9471Z" fill="#202127"/>
<path d="M16.6425 9.82225C16.2535 9.25329 15.7515 9.07624 15.0725 9.14885C13.8194 9.28313 12.6834 10.0073 11.8384 10.9224C11.8364 10.9254 11.8364 10.9293 11.8384 10.9323C11.8404 10.9353 11.8454 10.9353 11.8484 10.9333C13.0264 10.049 14.4925 9.61237 15.9395 10.1077C16.5045 10.3017 16.7845 10.5713 17.1325 11.0208C17.1465 11.0388 17.1525 11.0368 17.1505 11.0139C17.1115 10.614 16.8515 10.1276 16.6425 9.82225Z" fill="#202127"/>
<path d="M27.3189 12.3397C26.6449 12.0503 25.8359 12.0632 25.2339 12.481C24.5769 12.9355 24.3949 13.7681 24.4079 14.534C24.4089 14.5469 24.4149 14.5549 24.4269 14.5579C24.4459 14.5628 24.4579 14.5549 24.4609 14.535C24.6949 13.0738 25.6729 11.9478 27.3139 12.3556C27.3179 12.3566 27.3229 12.3546 27.3239 12.3497C27.3249 12.3457 27.3229 12.3407 27.3189 12.3397Z" fill="#202127"/>
<path d="M12.9501 12.3059C12.9461 12.3069 12.9441 12.3119 12.9451 12.3159C12.9461 12.3199 12.9501 12.3229 12.9541 12.3219C14.5891 12.1279 15.6091 13.1594 15.8731 14.7002C15.8761 14.721 15.9031 14.728 15.9161 14.7121C15.9411 14.6823 15.9541 14.6285 15.9551 14.551C15.9751 12.9057 14.5831 11.735 12.9501 12.3059Z" fill="#202127"/>
<path d="M25.6135 14.7687C26.1905 14.4752 26.7445 14.3966 27.3685 14.705C27.4505 14.7458 27.4785 14.7219 27.4515 14.6344C27.3115 14.1718 27.0205 13.949 26.5795 13.9669C26.1215 13.9848 25.7925 14.3718 25.5825 14.7368C25.5705 14.7567 25.5925 14.7796 25.6135 14.7687Z" fill="#F6F6F6"/>
<path d="M11.8517 15.4371C11.8467 15.464 11.8707 15.4868 11.8977 15.4799C12.3567 15.3605 13.8588 14.7249 13.9008 14.1669C13.9028 14.1331 13.8828 14.1022 13.8508 14.0903C12.8698 13.7193 12.0367 14.5061 11.8517 15.4371Z" fill="#F6F6F6"/>
<path d="M19.2676 20.4195C18.3836 20.5438 17.4116 20.7915 16.6816 21.3048C15.7296 21.9742 15.5745 22.936 15.6335 24.0262C15.6495 24.3177 15.7155 24.7165 15.9916 24.8727C16.4116 25.1114 17.0246 25.0567 17.1376 24.4778C17.2226 24.0421 17.2716 23.6811 17.5636 23.3299C17.9426 22.8754 18.6286 22.6376 19.2196 22.5561C20.5726 22.3721 23.7147 22.3482 23.6447 24.4778C23.6197 25.2238 24.9737 25.1711 25.0687 24.3018C25.1357 23.69 25.1327 22.9241 24.8717 22.381C24.2777 21.1496 22.4547 20.5518 21.2106 20.3986C20.5456 20.319 19.8976 20.325 19.2676 20.4195ZM24.4757 22.3372C24.5947 22.5471 24.5677 22.568 24.3957 22.3989C23.9967 22.008 23.4857 21.7076 22.8617 21.4957C21.1336 20.9109 19.2066 20.886 17.5136 21.5664C17.0406 21.7564 16.5496 22.0478 16.2446 22.4954C16.2326 22.5133 16.2046 22.5024 16.2066 22.4815C16.2906 21.7564 16.9226 21.3674 17.5606 21.1058C19.2416 20.4185 20.9306 20.3717 22.6277 20.9666C23.3237 21.2083 24.1007 21.6768 24.4757 22.3372Z" fill="#202127"/>
<path d="M17.5607 21.105C16.9217 21.3656 16.2906 21.7555 16.2066 22.4806C16.2046 22.5025 16.2326 22.5125 16.2446 22.4946C16.5496 22.047 17.0397 21.7555 17.5137 21.5655C19.2067 20.8852 21.1337 20.91 22.8617 21.4949C23.4858 21.7068 23.9968 22.0072 24.3958 22.3981C24.5678 22.5672 24.5948 22.5463 24.4758 22.3364C24.1008 21.6759 23.3238 21.2084 22.6277 20.9647C20.9317 20.3709 19.2427 20.4177 17.5607 21.105Z" fill="#F6F6F6"/>
<path d="M17.6233 25.4915C17.5163 25.4785 17.4123 25.4686 17.3103 25.4626C17.2963 25.4616 17.2893 25.4805 17.3023 25.4885C18.2743 26.0813 19.5473 25.8237 18.8213 24.3625C18.8083 24.3376 18.7703 24.3486 18.7733 24.3764C18.8483 25.1374 18.3753 25.585 17.6233 25.4915Z" fill="#F6F6F6"/>
<path d="M22.1039 24.46C22.0809 24.471 22.0599 24.4909 22.0439 24.5207C21.9449 24.6978 21.8559 24.8788 21.7789 25.0638C21.5799 25.5403 21.9439 25.8357 22.3879 25.8307C22.7579 25.8277 23.0939 25.7372 23.393 25.5602C23.417 25.5462 23.415 25.5373 23.387 25.5343C22.7189 25.4597 22.0559 25.3443 22.1399 24.4849C22.1419 24.466 22.1219 24.4521 22.1039 24.46Z" fill="#F6F6F6"/>
<path d="M15.0316 27.6629C14.8846 27.6002 14.6696 27.7703 14.5526 28.0419C14.4356 28.3144 14.4596 28.586 14.6076 28.6486C14.7546 28.7113 14.9696 28.5412 15.0866 28.2697C15.2036 27.9971 15.1796 27.7256 15.0316 27.6629Z" fill="#202127"/>
<path d="M26.779 28.6437C26.9281 28.572 26.9401 28.2935 26.807 28.021C26.674 27.7494 26.446 27.5873 26.297 27.6599C26.148 27.7315 26.136 28.01 26.269 28.2816C26.402 28.5531 26.63 28.7153 26.779 28.6437Z" fill="#202127"/>
<path d="M13.4817 28.9619C13.5947 29.0365 13.7987 28.9301 13.9367 28.7232C14.0747 28.5173 14.0947 28.2885 13.9817 28.2139C13.8687 28.1393 13.6647 28.2457 13.5267 28.4526C13.3877 28.6585 13.3677 28.8863 13.4817 28.9619Z" fill="#202127"/>
<path d="M27.9941 29.4254C28.1261 29.3638 28.1331 29.1002 28.0091 28.8376C27.8851 28.575 27.6771 28.4128 27.5441 28.4745C27.4121 28.5362 27.4051 28.7998 27.5291 29.0624C27.6541 29.325 27.8611 29.4871 27.9941 29.4254Z" fill="#202127"/>
<path d="M12.8886 28.7312C12.7956 28.6765 12.6216 28.7949 12.5006 28.9978C12.3796 29.2007 12.3576 29.4086 12.4506 29.4643C12.5436 29.519 12.7176 29.4007 12.8386 29.1977C12.9596 28.9948 12.9826 28.7859 12.8886 28.7312Z" fill="#202127"/>
<path d="M26.6578 29.5538C26.4977 29.6075 26.4477 29.885 26.5458 30.1755C26.6438 30.4649 26.8528 30.6569 27.0128 30.6032C27.1728 30.5495 27.2228 30.272 27.1248 29.9815C27.0268 29.6921 26.8178 29.5011 26.6578 29.5538Z" fill="#202127"/>
<path d="M13.9338 29.7427C13.7838 29.6801 13.5688 29.8502 13.4538 30.1227C13.3388 30.3952 13.3688 30.6668 13.5188 30.7295C13.6688 30.7921 13.8848 30.622 13.9988 30.3495C14.1139 30.0769 14.0839 29.8054 13.9338 29.7427Z" fill="#202127"/>
<path d="M12.7314 30.6171C12.5924 30.5565 12.3754 30.7464 12.2454 31.0399C12.1154 31.3343 12.1224 31.6218 12.2614 31.6824C12.4004 31.7431 12.6174 31.5531 12.7474 31.2597C12.8774 30.9653 12.8704 30.6778 12.7314 30.6171Z" fill="#202127"/>
<path d="M20.2357 31.4824C20.2507 31.4645 20.2787 31.4645 20.2947 31.4814C20.7657 32.0225 21.5847 32.2135 22.2717 32.1697C22.2827 32.1687 22.2907 32.1607 22.2917 32.1498C22.2927 32.1389 22.2857 32.1289 22.2747 32.1269C21.6667 32.0056 21.1687 31.8544 20.7377 31.3899C20.5447 31.182 20.4187 30.8895 20.2927 30.623C20.2827 30.6031 20.2547 30.6041 20.2457 30.6239C20.0527 31.0745 19.9117 31.4694 19.4637 31.734C19.0947 31.9519 18.6987 32.1011 18.2767 32.1816C18.2727 32.1826 18.2697 32.1846 18.2677 32.1886C18.2657 32.1946 18.2637 32.2015 18.2617 32.2075C18.2597 32.2145 18.2647 32.2204 18.2717 32.2204C18.9417 32.1956 19.7857 32.0314 20.2357 31.4824Z" fill="#F6F6F6"/>
<path d="M27.8819 30.622C27.7349 30.6866 27.7129 30.9592 27.8319 31.2317C27.9519 31.5043 28.1689 31.6724 28.316 31.6077C28.463 31.5441 28.485 31.2705 28.366 30.998C28.247 30.7264 28.0299 30.5583 27.8819 30.622Z" fill="#202127"/>
<path d="M13.6522 32.2264C13.5012 32.1667 13.2832 32.3597 13.1642 32.6571C13.0462 32.9545 13.0722 33.244 13.2232 33.3027C13.3742 33.3623 13.5922 33.1694 13.7112 32.872C13.8302 32.5745 13.8032 32.2851 13.6522 32.2264Z" fill="#202127"/>
<path d="M27.0129 32.3468C26.8419 32.4204 26.8109 32.7278 26.9439 33.0342C27.0769 33.3405 27.3229 33.5295 27.4929 33.4559C27.6639 33.3823 27.6949 33.0749 27.5619 32.7686C27.4289 32.4632 27.1829 32.2742 27.0129 32.3468Z" fill="#202127"/>
<path d="M39.184 11.0834C37.389 8.38982 34.662 6.57452 32.0359 4.74032C31.1499 4.12262 30.4389 3.65711 29.9019 3.34378C29.1239 2.8912 28.2169 2.46149 27.2938 2.65148C27.0728 2.69723 26.4748 3.01852 26.2938 2.95386C24.8128 2.4227 23.1818 2.16707 21.6068 2.05168C18.9637 1.8607 16.3997 2.1989 13.9126 3.06825C13.8836 3.0782 13.8526 3.07621 13.8246 3.06228C13.5366 2.91109 13.2156 2.75194 12.8976 2.71116C12.1786 2.61965 11.3346 2.93397 10.6626 3.27117C9.56957 3.81924 8.41755 4.48369 7.20353 5.26551C5.4815 6.37459 4.05348 7.55329 2.65646 8.92099C1.58744 9.97038 0.513426 11.0307 0.12842 12.5118C-0.140584 13.5463 0.0344184 14.4534 0.454425 15.4093C0.701429 15.9713 0.947433 16.5333 1.19144 17.0973C1.84245 18.5983 2.29345 20.156 2.54446 21.7684C2.63646 22.3602 2.71246 22.767 2.91946 23.2296C3.32147 24.1268 4.49349 25.1791 5.5215 24.4102C6.29652 23.8303 6.53252 22.8744 6.59152 21.9215C6.63452 21.2253 6.65352 20.529 6.64652 19.8307C6.64552 19.77 6.65252 19.7153 6.66752 19.6676C6.67852 19.6328 6.72952 19.6377 6.73352 19.6745C7.02653 22.5482 7.72554 25.399 9.13956 27.9354C9.32956 28.2766 9.52057 28.6168 9.71257 28.957C10.1326 29.701 10.2106 30.1914 10.0386 31.003C9.92757 31.5302 9.84957 31.9599 9.80657 32.2902C9.59457 33.9244 10.7746 35.2742 12.1146 36.0908C13.0906 36.6857 14.3096 36.1843 14.3256 36.1963C17.9497 38.7725 22.8338 38.9963 26.3298 36.3385C26.3468 36.3256 26.3458 36.3117 26.3648 36.3196C26.9418 36.5534 27.5068 36.5613 28.0609 36.3415C29.8299 35.6412 31.1899 33.8001 30.8279 31.8326C30.7609 31.4705 30.6209 30.9115 30.4959 30.4599C30.3079 29.7806 30.4849 29.2176 30.7479 28.6257C31.1179 27.7942 31.4989 26.9288 31.7899 26.0952C32.5279 23.9825 32.9099 21.8002 32.9359 19.5502C32.9359 19.5263 32.9459 19.5214 32.9659 19.5343C32.9769 19.5413 32.9839 19.5542 32.9869 19.5721C33.1839 20.8841 33.0119 22.8605 33.9359 24.0422C34.391 24.6241 35.05 24.8499 35.738 24.45C36.541 23.9825 36.882 23.139 37.116 22.2627C37.306 21.5495 37.498 20.8363 37.693 20.1241C38.094 18.657 38.819 17.0516 39.48 15.5625C40.217 13.9083 40.216 12.6322 39.184 11.0834ZM20.3777 35.8074C18.6087 35.8074 17.1757 35.132 17.1757 35.132C17.1757 35.132 18.6097 34.0597 20.3777 34.0597C22.1458 34.0597 23.5798 35.132 23.5798 35.132C23.5798 35.132 22.1458 35.8074 20.3777 35.8074ZM18.2627 32.2086C18.2647 32.2026 18.2667 32.1957 18.2687 32.1897C18.2707 32.1857 18.2737 32.1837 18.2777 32.1827C18.6997 32.1012 19.0957 31.952 19.4647 31.7351C19.9117 31.4715 20.0537 31.0756 20.2467 30.625C20.2557 30.6042 20.2837 30.6042 20.2937 30.6241C20.4197 30.8906 20.5447 31.1831 20.7387 31.391C21.1697 31.8545 21.6678 32.0067 22.2758 32.128C22.2868 32.13 22.2938 32.14 22.2928 32.1509C22.2918 32.1618 22.2838 32.1698 22.2728 32.1708C21.5858 32.2136 20.7667 32.0236 20.2957 31.4825C20.2807 31.4646 20.2527 31.4646 20.2367 31.4835C19.7867 32.0315 18.9427 32.1957 18.2737 32.2225C18.2657 32.2215 18.2607 32.2156 18.2627 32.2086ZM38.538 14.6653C37.927 16.1494 37.207 17.5976 36.73 19.1245C36.724 19.1424 36.707 19.1533 36.688 19.1503C36.67 19.1474 36.656 19.1314 36.657 19.1125C36.68 18.0472 36.688 17.0048 36.683 15.9843C36.677 14.8901 36.665 13.9332 36.497 12.9624C36.156 10.9879 34.847 9.24923 33.3809 7.92232C33.3779 7.91934 33.3739 7.91934 33.3699 7.92133C33.3669 7.92431 33.3659 7.92829 33.3679 7.93227C34.877 10.6597 35.437 13.4846 35.483 16.5841C35.516 18.7763 35.55 20.6384 35.585 22.1712C35.591 22.4348 35.578 22.8844 35.271 22.958C34.895 23.0485 34.561 22.5989 34.467 22.2876C34.321 21.8081 34.311 21.2859 34.287 20.7906C34.07 16.3851 33.9329 11.6245 30.7229 8.15806C30.0169 7.39613 29.2259 6.82817 28.2979 6.3348C28.0329 6.19356 27.7789 6.09906 27.5358 6.04933C27.2148 5.98368 27.1058 6.19356 27.3228 6.43825C27.6019 6.75555 27.8819 7.07186 28.1639 7.38818C30.3859 9.88882 31.5139 13.2031 31.7269 16.5393C31.8229 18.0363 31.8359 19.393 31.7649 20.6095C31.6459 22.6606 31.0869 24.5018 30.3089 26.4563C30.2089 26.707 30.0719 26.9049 29.8959 27.0531C29.8819 27.0651 29.8649 27.072 29.8459 27.075C29.4349 27.1307 29.2009 26.3051 29.1399 25.961C29.0369 25.3711 28.9359 24.7793 28.8389 24.1874C28.6059 22.764 28.1489 21.4222 27.4678 20.1629C27.1198 19.5204 26.6238 18.7744 26.1948 18.086C26.1808 18.0632 26.2028 18.0343 26.2288 18.0423C27.6079 18.461 28.6099 17.4096 29.3249 16.4199C29.3279 16.415 29.3279 16.407 29.3229 16.403C29.3179 16.398 29.3109 16.399 29.3059 16.403C28.3939 17.2336 27.5709 17.9239 26.2448 17.3858C25.9838 17.2803 25.2008 17.0148 25.1508 16.7044C25.0878 16.3185 25.5808 16.3881 25.7708 16.5821C26.3878 17.2147 27.4298 17.2286 28.1379 16.7949C28.6679 16.4707 29.0409 15.7147 29.6779 15.6252C30.1009 15.5655 30.3109 15.7555 30.6069 15.9713C30.6199 15.9813 30.6379 15.9793 30.6499 15.9683C30.6619 15.9574 30.6629 15.9385 30.6529 15.9256C30.6109 15.8699 30.5679 15.8171 30.5219 15.7674C29.8499 15.0453 29.1829 14.3182 28.5209 13.5871C27.8579 12.854 26.8428 12.5496 25.9308 12.9505C24.7948 13.4488 24.4668 14.8652 24.4418 15.9823C24.4408 16.0121 24.4028 16.024 24.3838 16.0002C23.3998 14.6573 22.8748 13.0897 22.7528 11.4405C22.7518 11.4346 22.7478 11.4306 22.7418 11.4306C22.7358 11.4306 22.7308 11.4356 22.7308 11.4405C22.6588 12.1308 22.7398 12.8898 22.8588 13.5711C23.1328 15.1298 23.8998 16.4915 24.9458 17.6683C25.7288 18.5496 26.1888 19.1762 26.8988 20.1172C28.2159 21.8619 28.2489 23.8691 28.2489 25.9023C28.2499 27.5326 28.7759 29.0783 29.2329 30.5743C29.4399 31.2507 29.6039 32.0743 29.4399 32.7736C29.2629 33.5256 28.6589 34.1622 27.9649 34.4795C26.9978 34.9201 26.0748 34.7918 25.1958 34.0925C24.1118 33.2301 23.2898 32.1579 22.4118 31.1025C21.9168 30.5067 21.6288 30.1844 21.3628 29.6602C21.0277 29.0007 21.2938 28.196 21.8498 27.7643C22.1188 27.5564 22.5288 27.4142 22.7548 27.2839C23.4728 26.8671 24.2158 26.0833 24.4248 25.2527C24.4338 25.2169 24.4048 25.1831 24.3678 25.1871C23.3198 25.2766 23.6358 24.3018 23.0328 23.894C21.7348 23.0157 19.8277 23.0286 18.3997 23.514C18.0907 23.6195 17.8707 23.7627 17.7387 23.9457C17.5817 24.1636 17.5297 24.5505 17.3887 24.7644C17.1147 25.1811 16.6677 25.2249 16.1877 25.1762C16.1677 25.1742 16.1517 25.1931 16.1567 25.213C16.1687 25.2597 16.1947 25.3164 16.2327 25.383C16.6077 26.0226 17.0587 26.5299 17.5827 26.9069C18.1957 27.3476 18.9797 27.8081 19.2887 28.5203C19.6867 29.4394 18.9907 30.3386 18.4057 30.9414C17.7897 31.577 17.0787 32.3677 16.2697 33.3137C14.8977 34.9181 12.7026 35.492 11.4246 33.3435C10.9676 32.5746 11.0646 31.8774 11.2606 31.013C11.3386 30.6698 11.5076 30.0153 11.7686 29.0505C12.1636 27.5903 12.1796 26.0923 12.3006 24.1496C12.4346 21.9902 13.1966 20.0883 14.5866 18.4421C15.0937 17.8413 16.1377 16.9173 16.7977 15.9753C17.6607 14.7439 18.0137 13.3652 17.8167 11.8553C17.7947 11.6852 17.7747 11.6852 17.7567 11.8563C17.6447 12.9405 17.2827 14.3172 16.5557 15.1855C16.3607 15.4173 16.0477 15.8311 15.7427 15.9823C15.7237 15.9922 15.7007 15.9803 15.6967 15.9584C15.5657 15.096 15.5347 14.3321 15.0497 13.6348C14.4116 12.7167 13.1116 12.6272 12.1886 13.1235C11.8436 13.3095 11.5576 13.5552 11.2626 13.8715C10.4726 14.718 9.56657 15.5217 8.99856 16.4697C8.99456 16.4756 8.99656 16.4846 9.00156 16.4886C9.00756 16.4935 9.01556 16.4925 9.02056 16.4876C9.26056 16.2469 9.49657 15.9753 9.83157 15.838C10.6016 15.5207 10.9486 16.029 11.4576 16.5104C12.2486 17.2575 13.3636 17.4136 14.3296 16.9014C14.5376 16.7909 14.7506 16.6149 14.9527 16.4637C14.9657 16.4537 14.9827 16.4498 14.9987 16.4528C15.0867 16.4677 15.1557 16.5124 15.2037 16.588C15.2137 16.602 15.2167 16.6199 15.2127 16.6368C15.1487 16.9431 14.7996 17.161 14.5436 17.3291C13.8826 17.7618 13.0616 17.908 12.3096 17.6693C11.7196 17.4823 11.2816 17.0317 10.8326 16.6228C10.8296 16.6199 10.8236 16.6199 10.8206 16.6228C10.8176 16.6258 10.8156 16.6308 10.8186 16.6348C11.5176 17.6543 12.6866 18.4033 13.9626 18.1626C13.9916 18.1567 14.0136 18.1885 13.9986 18.2143C13.5886 18.8868 13.0826 19.596 12.7596 20.2375C12.0106 21.7286 11.7146 23.3738 11.4336 24.9315C11.2866 25.7441 11.1166 26.5926 10.5016 27.1566C10.4096 27.2401 10.3216 27.2381 10.2366 27.1476C10.0486 26.9477 9.81157 26.517 9.65757 26.2156C8.77256 24.4819 8.19755 22.6944 7.93154 20.8542C7.80154 19.9501 7.74154 18.9236 7.75154 17.7747C7.78854 13.6835 9.53457 8.8802 12.8636 6.27811C12.9106 6.2413 12.9086 6.16869 12.8586 6.13487C12.4556 5.86332 11.0256 6.68792 10.6106 6.94653C7.82554 8.68724 6.19752 12.0125 5.72851 15.1815C5.4405 17.1202 5.4915 19.5164 5.4115 21.6729C5.3925 22.1851 5.2705 22.586 4.87749 22.8804C4.78149 22.952 4.65449 22.9729 4.49949 22.9421C4.48249 22.9391 4.46849 22.9311 4.45649 22.9192C4.32349 22.7839 4.25848 22.6288 4.26148 22.4557C4.29649 20.2793 4.24848 18.1019 4.28448 15.9256C4.31449 14.1033 4.46949 12.286 5.0715 10.5513C5.3665 9.70281 5.72051 8.87523 6.13551 8.07152C6.13851 8.06655 6.13651 8.06058 6.13251 8.0566C6.12751 8.05362 6.12151 8.05462 6.11751 8.05859C4.60149 9.61428 3.41647 11.3918 3.19547 13.599C3.17247 13.8367 3.15847 14.2147 3.15647 14.7329C3.15147 16.0877 3.14747 17.4425 3.14647 18.7962C3.14647 18.9017 3.14447 18.9633 3.14047 18.9822C3.10947 19.1454 3.07047 19.1464 3.02447 18.9872C2.73046 17.9697 2.38846 17.0118 1.97845 15.9892C1.66744 15.2144 1.17544 14.2008 1.19144 13.3125C1.21344 12.103 2.19245 10.979 2.97446 10.1454C4.04348 9.00554 4.9855 8.09938 6.18451 7.25887C7.79754 6.12691 9.48957 5.19091 11.2606 4.45087C12.1226 4.09079 12.6966 4.42103 13.4436 4.96711C13.9936 5.36797 14.4676 5.82154 14.8666 6.32784C14.9527 6.43725 14.9737 6.42631 14.9277 6.29402L14.2666 4.38024C14.2486 4.32951 14.2656 4.29669 14.3166 4.27879C18.1217 2.97972 22.3508 2.88722 26.1578 4.25989C26.1958 4.27381 26.2138 4.31758 26.1968 4.35339C25.9598 4.86068 25.7738 5.38488 25.6388 5.92698C25.6238 5.98965 25.6368 5.99661 25.6798 5.94787C26.1608 5.39781 26.7188 4.91439 27.3538 4.49662C27.9709 4.09079 28.5869 4.17733 29.2209 4.49165C31.5389 5.64051 33.7119 7.15741 35.691 8.81257C36.488 9.47801 37.193 10.229 37.806 11.0645C38.302 11.7389 38.746 12.5158 38.815 13.3503C38.851 13.7671 38.694 14.2863 38.538 14.6653ZM25.5828 14.7359C25.7928 14.3709 26.1218 13.9839 26.5798 13.966C27.0208 13.9481 27.3118 14.1709 27.4518 14.6335C27.4778 14.721 27.4498 14.7439 27.3688 14.7041C26.7448 14.3957 26.1908 14.4743 25.6138 14.7678C25.5928 14.7797 25.5708 14.7568 25.5828 14.7359ZM23.3878 25.5352C23.4158 25.5382 23.4178 25.5472 23.3938 25.5611C23.0938 25.7372 22.7588 25.8277 22.3888 25.8317C21.9438 25.8356 21.5798 25.5402 21.7798 25.0647C21.8578 24.8797 21.9458 24.6987 22.0448 24.5217C22.0618 24.4918 22.0818 24.4719 22.1048 24.461C22.1228 24.453 22.1428 24.4669 22.1408 24.4868C22.0568 25.3453 22.7198 25.4606 23.3878 25.5352ZM18.7737 24.3754C18.7707 24.3476 18.8087 24.3366 18.8217 24.3615C19.5477 25.8227 18.2747 26.0803 17.3027 25.4875C17.2897 25.4805 17.2967 25.4606 17.3107 25.4616C17.4127 25.4676 17.5177 25.4775 17.6237 25.4905C18.3757 25.585 18.8487 25.1374 18.7737 24.3754ZM13.9006 14.167C13.8576 14.725 12.3556 15.3596 11.8976 15.4799C11.8716 15.4869 11.8466 15.464 11.8516 15.4372C12.0356 14.5062 12.8696 13.7194 13.8506 14.0904C13.8836 14.1023 13.9036 14.1331 13.9006 14.167Z" fill="#eb0029"/>
</g>
<defs>
<clipPath id="clip0_208_12524">
<rect width="40" height="40" fill="white"/>
</clipPath>
</defs>
</svg>
