<svg width="60" height="60" viewBox="0 0 60 60" fill="none" xmlns="http://www.w3.org/2000/svg">
<g clip-path="url(#clip0_200_1289)">
<path d="M23.3391 31.8278C23.3391 31.8278 23.3467 26.0148 23.3352 23.5519C23.3237 21.0889 23.0809 15.6568 23.0975 15.1775C23.1128 14.6982 23.0975 14.27 23.0975 14.27L22.8892 14.2802C22.8892 14.2802 23.2522 22.7543 23.2828 23.9136C23.3033 24.6894 23.1652 31.7256 23.1652 31.7256L23.3391 31.8278Z" fill="url(#paint0_linear_200_1289)"/>
<path d="M22.8895 14.2816L22.6812 15.2082L23.402 15.129L23.0978 14.2714L22.8895 14.2816Z" fill="url(#paint1_linear_200_1289)"/>
<path d="M19.7928 12.308C21.0083 13.5337 22.955 14.3223 22.955 14.3223C23.0406 14.3095 23.1262 14.2929 23.2093 14.2776C24.1347 14.0986 24.8926 13.7574 25.4933 13.3279C27.6074 11.821 27.7761 9.23147 26.4264 8.81991C24.6587 8.28309 23.4036 9.56634 23.4036 9.56634C23.4036 9.56634 22.0577 7.86642 20.5866 8.00829C20.5342 8.0134 20.4818 8.01979 20.4281 8.03002C20.1021 8.09137 19.8299 8.22046 19.6075 8.39812C19.2279 8.7036 18.9978 9.15095 18.916 9.65453C18.7678 10.5326 19.0643 11.5743 19.7928 12.308Z" fill="url(#paint2_radial_200_1289)"/>
<path opacity="0.2" d="M19.7925 12.3068C21.0093 13.5325 22.9546 14.3224 22.9546 14.3224C23.9963 14.1588 24.8373 13.7958 25.4917 13.328C25.4917 13.328 24.9856 11.5732 23.9707 11.1603C22.1494 10.4203 21.9526 10.2631 20.5747 9.91285C19.9778 9.76075 19.3886 9.68789 18.9144 9.65466C18.7674 10.5315 19.0652 11.5757 19.7925 12.3068Z" fill="url(#paint3_linear_200_1289)"/>
<path opacity="0.5" d="M26.6789 9.26478C26.6789 9.26478 26.4016 10.7973 23.9693 10.6988C21.2583 10.5902 20.4263 8.02881 20.4263 8.02881C20.4263 8.02881 21.9971 7.89717 23.4018 9.56514C23.4018 9.56642 25.82 8.54646 26.6789 9.26478Z" fill="url(#paint4_linear_200_1289)"/>
<path d="M23.4019 9.56645C23.4019 9.56645 23.7227 10.047 23.7789 10.5902C23.7789 10.5902 24.2697 9.86937 24.0857 9.10632C24.0857 9.10632 23.8224 9.19324 23.4019 9.56645Z" fill="url(#paint5_linear_200_1289)"/>
<path opacity="0.5" d="M26.6791 9.26474C26.6791 9.26474 27.267 10.4726 26.1576 12.2019L25.4917 12.0881C25.4917 12.0881 26.2305 10.2694 25.4917 9.02061C25.493 9.01933 26.1998 9.00655 26.6791 9.26474Z" fill="url(#paint6_linear_200_1289)"/>
<path d="M26.8352 9.8656C26.8352 9.8656 26.9988 10.2311 26.7202 10.9648C26.7202 10.9648 26.1552 10.3743 26.8352 9.8656Z" fill="white"/>
<path d="M23.0735 9.43347C23.0735 9.43347 23.3752 9.6073 23.5528 10.2655C23.5528 10.2668 22.8537 10.139 23.0735 9.43347Z" fill="white"/>
<path opacity="0.5" d="M20.426 8.92608C20.426 8.92608 20.1512 9.39388 20.1678 10.1263L19.1146 10.0278C19.1146 10.0278 19.0545 9.24689 19.6271 8.51196L20.426 8.92608Z" fill="url(#paint7_linear_200_1289)"/>
<path opacity="0.5" d="M20.1721 10.378L20.2808 10.8586L19.234 10.966C19.234 10.966 19.1177 10.658 19.1177 10.2668L20.1721 10.378Z" fill="url(#paint8_linear_200_1289)"/>
<path opacity="0.2" d="M20.3382 10.0534C20.0237 10.6899 20.5964 11.614 21.6163 12.1176C22.6363 12.6212 23.7176 12.5139 24.032 11.8773C24.3464 11.2408 23.7738 10.3167 22.7539 9.81314C21.7339 9.30956 20.6526 9.41692 20.3382 10.0534Z" fill="url(#paint9_radial_200_1289)"/>
<path opacity="0.46" d="M22.9544 14.3224L24.1954 14.0054C24.1954 14.0054 21.9229 14.4604 20.5489 11.738C20.0453 11.4312 19.4791 11.6958 19.6977 12.207C19.6977 12.2083 21.1036 13.5593 22.9544 14.3224Z" fill="url(#paint10_linear_200_1289)"/>
<path opacity="0.5" d="M23.1221 13.9645C23.9669 14.059 24.4437 13.8251 25.0827 13.4404C25.0827 13.4404 24.1612 12.4844 23.4173 12.1176C22.0011 11.4184 20.2808 10.8599 20.2808 10.8599C20.2808 10.8599 20.9083 12.6531 21.7033 13.2462C22.4587 13.8098 23.1221 13.9645 23.1221 13.9645Z" fill="url(#paint11_linear_200_1289)"/>
<path d="M18.8838 10.2668C18.8838 10.2668 19.6507 10.323 20.5824 10.4164C20.5824 10.4151 19.4896 9.94983 18.8838 10.2668Z" fill="url(#paint12_linear_200_1289)"/>
<path d="M22.193 32.2165C22.193 32.2165 22.2006 27.1793 22.1891 25.2685C22.1776 23.3564 21.9348 19.1398 21.9514 18.7679C21.9667 18.3959 21.9514 18.0636 21.9514 18.0636L21.729 18.0035C21.729 18.0035 22.2901 24.6857 22.3195 25.5855C22.34 26.1875 22.423 31.9838 22.423 31.9838L22.193 32.2165Z" fill="url(#paint13_linear_200_1289)"/>
<path d="M21.6816 20.3962L21.5039 21.2948L22.2005 21.1146L22.0216 20.4563L21.6816 20.3962Z" fill="url(#paint14_linear_200_1289)"/>
<path d="M25.02 18.6297C23.8045 19.8555 21.8579 20.6441 21.8579 20.6441C21.7722 20.6313 21.6866 20.6147 21.6035 20.5993C20.6782 20.4204 19.9202 20.0791 19.3195 19.6497C17.2055 18.1428 17.0367 15.5532 18.3865 15.1417C20.1541 14.6049 21.4093 15.8881 21.4093 15.8881C21.4093 15.8881 22.7551 14.1882 24.2263 14.3301C24.2787 14.3352 24.3311 14.3416 24.3848 14.3518C24.7107 14.4131 24.9829 14.5422 25.2053 14.7199C25.5849 15.0254 25.815 15.4727 25.8968 15.9763C26.0438 16.8557 25.7473 17.8974 25.02 18.6297Z" fill="url(#paint15_radial_200_1289)"/>
<path opacity="0.2" d="M25.02 18.6297C23.8032 19.8554 21.8579 20.6453 21.8579 20.6453C20.8162 20.4817 19.9752 20.1187 19.3208 19.6509C19.3208 19.6509 19.8269 17.896 20.8418 17.4832C22.6631 16.7431 22.86 16.5859 24.2378 16.2357C24.8347 16.0836 25.4239 16.0108 25.8981 15.9775C26.0451 16.8543 25.7473 17.8973 25.02 18.6297Z" fill="url(#paint16_linear_200_1289)"/>
<path opacity="0.5" d="M18.1318 15.5866C18.1318 15.5866 18.4092 16.9606 20.8415 17.0206C23.2738 17.082 24.3845 14.3506 24.3845 14.3506C24.3845 14.3506 22.8137 14.2189 21.409 15.8869C21.4103 15.8895 18.9907 14.8682 18.1318 15.5866Z" fill="url(#paint17_linear_200_1289)"/>
<path d="M21.4105 15.8894C21.4105 15.8894 21.0897 16.37 21.0335 16.9132C21.0335 16.9132 19.8793 15.8894 20.0633 15.1263C20.0621 15.1263 21.0181 15.4126 21.4105 15.8894Z" fill="url(#paint18_linear_200_1289)"/>
<path opacity="0.5" d="M18.1322 15.5865C18.1322 15.5865 17.5443 16.7944 18.6537 18.5237L19.3196 18.4099C19.3196 18.4099 18.5809 16.5911 19.3196 15.3424C19.3196 15.3424 18.6128 15.3296 18.1322 15.5865Z" fill="url(#paint19_linear_200_1289)"/>
<path opacity="0.5" d="M19.3529 15.5864C19.3529 15.5864 19.05 16.9591 19.3529 18.1747L19.5242 18.1938C19.5242 18.1938 19.5548 16.7291 19.8437 15.9545L19.3529 15.5864Z" fill="url(#paint20_linear_200_1289)"/>
<path d="M17.9774 16.1885C17.9774 16.1885 17.8138 16.554 18.0924 17.2877C18.0924 17.2877 18.6574 16.6972 17.9774 16.1885Z" fill="white"/>
<path d="M21.7391 15.7565C21.7391 15.7565 21.4374 15.9303 21.2598 16.5885C21.2585 16.5885 21.9576 16.462 21.7391 15.7565Z" fill="white"/>
<path opacity="0.5" d="M24.3848 15.249C24.3848 15.249 24.6596 15.7168 24.6429 16.4492L25.6961 16.3508C25.6961 16.3508 25.7562 15.5698 25.1836 14.8362L24.3848 15.249Z" fill="url(#paint21_linear_200_1289)"/>
<path opacity="0.5" d="M24.6404 16.7009L24.5317 17.1815L25.5785 17.2889C25.5785 17.2889 25.6948 16.9808 25.6948 16.5897L24.6404 16.7009Z" fill="url(#paint22_linear_200_1289)"/>
<path opacity="0.2" d="M24.4739 16.375C24.7883 17.0115 24.2157 17.9356 23.1957 18.4392C22.1758 18.9428 21.0945 18.8354 20.7801 18.1989C20.4656 17.5624 21.0382 16.6383 22.0582 16.1347C23.0782 15.6324 24.1595 15.7398 24.4739 16.375Z" fill="url(#paint23_radial_200_1289)"/>
<path opacity="0.46" d="M21.8578 20.6454L20.6167 20.3284C20.6167 20.3284 22.8892 20.7834 24.2632 18.061C24.7668 17.7542 25.333 18.0188 25.1145 18.53C25.1132 18.53 23.7085 19.8823 21.8578 20.6454Z" fill="url(#paint24_linear_200_1289)"/>
<path opacity="0.5" d="M21.6906 20.2861C20.8458 20.3807 20.3691 20.1468 19.73 19.7621C19.73 19.7621 20.6515 18.806 21.3954 18.4392C22.8116 17.7401 24.532 17.1815 24.532 17.1815C24.532 17.1815 23.9044 18.9747 23.1094 19.5678C22.354 20.1315 21.6906 20.2861 21.6906 20.2861Z" fill="url(#paint25_linear_200_1289)"/>
<path d="M19.1927 42.9552L21.1278 51.7718H20.7674L18.3594 42.9629L19.1927 42.9552Z" fill="url(#paint26_linear_200_1289)"/>
<path d="M21.128 51.7718H21.4028L19.7118 42.9552H19.1929L21.128 51.7718Z" fill="url(#paint27_linear_200_1289)"/>
<path d="M3.64574 51.772C3.64574 51.772 4.68487 43.7925 4.90471 42.0773C5.12455 40.362 2.32031 31.2169 2.32031 31.2169H2.81495C2.81495 31.2169 5.93745 40.0029 6.29533 41.2657C6.65321 42.5285 3.99979 51.7732 3.99979 51.7732H3.64574V51.772Z" fill="url(#paint28_linear_200_1289)"/>
<path d="M2.34473 31.2144C2.34473 31.2144 2.39074 31.3907 2.46743 31.6988C2.51855 31.9007 2.58374 32.1589 2.65915 32.4618V32.4631L2.66043 32.4657V32.4669L2.66171 32.4733C3.05793 34.0736 3.7379 36.8957 4.15457 39.103L4.15713 39.1107C4.37441 40.2572 4.5214 41.2375 4.5214 41.7935C4.5214 43.5228 3.36213 51.7745 3.36213 51.7745L3.64587 51.772C3.64587 51.772 3.64715 51.7694 3.64715 51.7643C3.72767 51.469 6.14208 42.5054 5.79059 41.2631C5.69217 40.9154 5.38542 39.9965 4.99431 38.8461C4.69523 37.9668 4.34374 36.9519 3.99864 35.9563C3.99864 35.955 3.99736 35.955 3.99736 35.9537C3.97563 35.8911 3.9539 35.8284 3.93218 35.7658C3.78519 35.344 3.64076 34.9274 3.50144 34.526C2.86493 32.6944 2.34473 31.2144 2.34473 31.2144Z" fill="url(#paint29_linear_200_1289)"/>
<path d="M8.14086 51.772C8.14086 51.772 9.17999 43.7925 9.39983 42.0773C9.61967 40.362 6.81543 31.2169 6.81543 31.2169H7.31007C7.31007 31.2169 10.4326 40.0029 10.7904 41.2657C11.1483 42.5285 8.49491 51.7732 8.49491 51.7732H8.14086V51.772Z" fill="url(#paint30_linear_200_1289)"/>
<path d="M7.78688 51.7655C7.78688 51.7655 8.81962 43.8053 8.81962 42.0759C8.81962 39.9389 6.38477 31.4175 6.38477 31.4175L6.83851 31.2156C6.83851 31.2156 9.92649 40.0015 10.2844 41.2643C10.6422 42.5271 8.14093 51.7719 8.14093 51.7719L7.78688 51.7655Z" fill="url(#paint31_linear_200_1289)"/>
<path d="M19.5098 40.0973C18.4426 39.7471 12.3024 38.3386 5.52441 41.4215L14.5609 40.8859L19.5098 40.0973Z" fill="#FF3D54"/>
<path opacity="0.5" d="M2.66162 32.4731C3.05784 34.0734 3.73781 36.8955 4.15449 39.1029L4.15704 39.1105L4.45357 39.0172H4.45485L4.99423 38.8459L5.58473 39.1105L5.58089 39.099L5.57834 39.0926L5.10798 37.8618L5.19106 37.9704L5.19234 37.9717V37.973L5.22685 38.0177C5.8672 38.8472 6.54844 39.3508 7.24503 39.3802C7.72561 39.4007 8.17168 39.0121 8.56024 38.3398L4.02284 34.6268L3.90269 34.5284H3.38249L2.88274 33.0982L2.88146 33.0956L2.66162 32.4731Z" fill="url(#paint32_linear_200_1289)"/>
<path d="M5.52441 41.4229C5.52441 41.4229 9.30643 39.2462 13.8886 39.9939C13.8886 39.9939 14.1199 40.7518 14.1199 41.4229H5.52441Z" fill="#D70D1A"/>
<path d="M13.8901 39.9938L19.5114 40.0986C19.5114 40.0986 19.9562 40.7888 19.9562 41.4227H14.1228C14.1215 41.4227 14.0755 40.6341 13.8901 39.9938Z" fill="#FF3B48"/>
<path d="M14.1214 42.9552L14.9446 52.1041H14.6634L13.0542 42.9654L14.1214 42.9552Z" fill="url(#paint33_linear_200_1289)"/>
<path d="M14.9442 52.1041H15.3762L14.6387 42.9552H14.1211L14.9442 52.1041Z" fill="url(#paint34_linear_200_1289)"/>
<path d="M2.65897 32.4618L2.66025 32.4656V32.4669L2.66152 32.4733C2.76505 32.8031 2.87114 33.1264 2.97978 33.4434C2.97978 33.4447 2.98106 33.446 2.98106 33.4472C3.11015 33.8166 3.2418 34.1783 3.37984 34.5273C3.57667 35.0283 3.78373 35.5076 3.99718 35.9549C3.99718 35.9562 3.99846 35.9562 3.99846 35.9575C4.34995 36.6873 4.72061 37.3341 5.10788 37.8632L5.19096 37.9719L5.19224 37.9731V37.9744L5.22675 38.0191C5.8671 38.8487 6.54835 39.3522 7.24493 39.3816C7.72551 39.4021 8.17159 39.0135 8.56014 38.3412C9.84339 36.1173 10.5042 30.7849 9.70024 26.769C8.8605 22.5907 4.69504 18.461 1.94449 19.5487C0.311025 20.1955 0.956486 27.0016 2.65897 32.4618Z" fill="url(#paint35_linear_200_1289)"/>
<path d="M7.50081 39.1093C9.50877 39.03 10.9531 31.7804 9.69793 26.7663C8.55527 22.202 5.22316 18.5478 2.55696 19.6419C0.0390267 20.6747 3.4082 39.2703 7.50081 39.1093Z" fill="url(#paint36_linear_200_1289)"/>
<path opacity="0.5" d="M9.54823 26.2181L1.72984 24.1552C1.72984 24.1552 1.6506 21.5554 1.85638 20.8844L7.91732 22.6265C7.91732 22.6252 9.2223 24.853 9.54823 26.2181Z" fill="url(#paint37_linear_200_1289)"/>
<path d="M6.99177 37.4515C6.99433 37.4515 6.99688 37.4515 6.99688 37.4515C8.70448 37.3851 9.93405 31.2155 8.8668 26.9465C7.89414 23.0622 5.05794 19.9525 2.78797 20.8843C0.648362 21.7624 3.5114 37.5704 6.99177 37.4515Z" fill="url(#paint38_linear_200_1289)"/>
<path d="M6.99169 37.4516C6.88816 37.4465 5.40552 37.2829 3.73627 32.141C2.00439 26.806 2.12582 21.8647 2.78917 20.8844C0.648287 21.7625 3.51132 37.5705 6.99169 37.4516Z" fill="#940000"/>
<path opacity="0.4" d="M8.1293 35.7786C8.1293 35.7786 8.76453 25.5266 4.64253 24.8249C2.21918 24.4121 5.1998 36.9557 6.48816 37.3175C7.57714 37.6229 8.05133 36.3192 8.1293 35.7786Z" fill="url(#paint39_linear_200_1289)"/>
<path opacity="0.5" d="M9.59414 37.7059L9.13785 37.8223L8.43232 39.4723L8.30322 38.7553C8.30322 38.7553 9.01898 37.7507 9.29378 36.8419L9.59414 37.7059Z" fill="url(#paint40_linear_200_1289)"/>
<path opacity="0.5" d="M14.7056 43.7783H14.1956L13.2932 44.3228L13.0542 42.9654L14.6391 42.9552L14.7056 43.7783Z" fill="url(#paint41_linear_200_1289)"/>
<path opacity="0.5" d="M19.8433 43.639H19.3435L18.8285 44.6807L18.3594 42.9629L19.7116 42.9552L19.8433 43.639Z" fill="url(#paint42_linear_200_1289)"/>
<path opacity="0.5" d="M10.6205 43.2402H10.136L8.64062 44.5017L8.78889 42.8031L10.6844 42.8772L10.6205 43.2402Z" fill="url(#paint43_linear_200_1289)"/>
<path d="M5.52477 41.4227H14.6392L15.0814 43.0472L5.37012 42.6702L5.52477 41.4227Z" fill="url(#paint44_linear_200_1289)"/>
<path d="M14.6392 41.4227H20.5838L20.8062 43.014L15.0814 43.0472L14.6392 41.4227Z" fill="url(#paint45_linear_200_1289)"/>
<path d="M20.5835 41.4227L14.7053 41.6656L5.52441 41.4227H20.5835Z" fill="#FBEDEC"/>
<path d="M9.09165 33.0395C9.09165 33.0395 9.72944 26.2782 6.32959 22.1255C6.32959 22.1255 10.0924 25.3234 9.09165 33.0395Z" fill="#940000"/>
<path d="M35.2486 42.995C35.2486 42.995 32.6527 43.8092 32.0507 43.9152C31.4487 44.0213 30.4582 43.9152 30.4582 43.9152C30.4582 43.9152 29.7756 44.5172 29.488 44.5965C29.488 44.5965 28.1 44.9812 27.1836 44.5901L27.0187 44.2246C27.0187 44.2246 26.6033 45.0387 26.0077 45.844L24.6068 47.8557C24.6068 47.8557 23.3325 46.6249 22.8136 44.5402C22.8136 44.5402 22.4826 44.8611 21.8985 44.994C21.3143 45.1269 20.8632 45.0208 20.8632 45.0208L20.04 43.6404L21.2083 40.6406L31.4308 39.2603L35.2486 42.995Z" fill="url(#paint46_linear_200_1289)"/>
<path opacity="0.2" d="M20.8634 45.0221C20.8634 45.0221 21.9499 45.0975 22.8139 44.5415C22.8139 44.5415 23.4657 46.7361 24.6071 47.857C24.6071 47.857 24.4269 46.0881 24.9164 44.346C24.9164 44.346 25.7242 42.1808 26.7723 42.1808L27.019 44.2258L27.1838 44.5914C27.1838 44.5914 27.042 44.1261 28.4236 44.1466C29.804 44.167 30.4584 43.9165 30.4584 43.9165C30.4584 43.9165 32.0344 42.9886 32.9891 43.0372C33.9452 43.0844 33.4135 42.1821 33.4135 42.1821L29.6992 40.6598L22.5979 39.9313L20.333 41.0854L20.4059 44.2552C20.4059 44.2527 20.7574 44.9071 20.8634 45.0221Z" fill="url(#paint47_linear_200_1289)"/>
<path d="M22.8281 51.7847L26.9501 51.5802C26.9501 51.5802 27.8295 51.4664 28.0992 50.6945C28.3292 50.0349 28.3484 48.2443 28.3484 48.2443L28.1298 46.0957C28.1298 46.0957 27.9407 50.1231 27.2709 50.7341C26.5999 51.3476 22.8281 51.7847 22.8281 51.7847Z" fill="url(#paint48_linear_200_1289)"/>
<path d="M27.6274 36.5353L28.0646 48.7402H28.8596L28.4876 36.5353H27.6274Z" fill="url(#paint49_linear_200_1289)"/>
<path d="M28.4878 36.5353H28.9709L29.1345 48.7402H28.8597L28.4878 36.5353Z" fill="url(#paint50_linear_200_1289)"/>
<path d="M28.1298 46.097C28.1298 46.097 28.4519 50.7929 27.2415 51.3617C26.2944 51.8065 22.8281 51.7835 22.8281 51.7835L23.3956 51.0409C23.3956 51.0409 25.3371 51.4167 26.6434 50.5309C27.9547 49.6426 27.5176 46.4524 27.5176 46.4524L28.1298 46.097Z" fill="url(#paint51_linear_200_1289)"/>
<path d="M29.312 46.097C29.312 46.097 29.0845 46.1213 29.0819 46.1776C29.0449 46.823 29.0883 50.8389 30.2003 51.3617C31.1474 51.8065 34.6137 51.7835 34.6137 51.7835L34.2852 51.0562C34.2852 51.0562 33.9082 51.0281 33.8098 51.0409C33.3254 51.1074 32.0562 51.3745 30.9697 50.6383C29.6584 49.75 30.1057 46.4421 30.1057 46.4421L29.312 46.097Z" fill="url(#paint52_linear_200_1289)"/>
<path d="M29.0769 46.097C29.0769 46.097 28.7549 50.7929 29.9653 51.3617C30.9124 51.8065 34.3787 51.7835 34.3787 51.7835L33.8112 51.0409C33.8112 51.0409 31.7086 51.3655 30.5634 50.5309C29.284 49.5979 29.6892 46.4524 29.6892 46.4524L29.0769 46.097Z" fill="url(#paint53_linear_200_1289)"/>
<path d="M29.0771 46.097L29.6894 46.4536L30.1073 46.4421L29.3123 46.097H29.0771Z" fill="url(#paint54_linear_200_1289)"/>
<path d="M24.4614 51.7528L24.7068 50.6843C24.7068 50.6843 26.1371 50.8466 26.6777 50.3277C27.2184 49.8088 27.1251 46.2747 27.1251 46.2747L27.6644 46.2325V50.2395L27.5187 51.2876L25.0852 51.7145L24.4614 51.7528Z" fill="url(#paint55_linear_200_1289)"/>
<path d="M28.13 46.097L27.5638 46.2415C27.5638 46.2415 27.781 49.8612 27.4308 50.3865C27.2174 50.706 25.203 50.7648 25.203 50.7648L25.0854 51.717C25.0854 51.717 27.9178 51.6391 28.1696 51.3476C28.4214 51.0562 28.13 46.097 28.13 46.097Z" fill="url(#paint56_linear_200_1289)"/>
<path d="M27.125 46.2746L27.8804 46.0714L28.1296 46.097L27.5685 46.3449L27.125 46.2746Z" fill="url(#paint57_linear_200_1289)"/>
<path opacity="0.47" d="M28.1294 46.097L28.84 48.1459L29.0778 46.097C29.0778 46.097 28.9934 48.1395 29.0829 48.7402H28.2483L28.1294 46.097Z" fill="url(#paint58_linear_200_1289)"/>
<path opacity="0.5" d="M26.894 49.865L27.6047 49.4266C27.6047 49.4266 27.6366 48.2507 27.6213 47.7164L27.1241 48.0603C27.1254 48.0603 27.0807 49.3243 26.894 49.865Z" fill="url(#paint59_linear_200_1289)"/>
<path d="M27.4756 46.3232L27.7261 46.2747L27.5804 46.5584L27.4756 46.3232Z" fill="#FB8B6A"/>
<path d="M29.5435 46.3693L29.6725 46.5942L29.8668 46.4485L29.5435 46.3693Z" fill="#FB8B6A"/>
<path d="M25.0264 50.7047L25.328 50.7597L25.1772 50.9667L25.0264 50.7047Z" fill="#CA7245"/>
<path d="M33.5249 51.0806L33.9441 51.1803L33.9914 51.0308L33.8342 51.0359L33.5249 51.0806Z" fill="#A95C45"/>
<path opacity="0.5" d="M28.7813 33.579L28.256 34.112L27.1057 33.8448L26.9702 30.0884H28.7353L28.7813 33.579Z" fill="url(#paint60_linear_200_1289)"/>
<path d="M16.4346 30.2877L16.7746 31.8943H40.0073L40.4444 30.2877H16.4346Z" fill="url(#paint61_linear_200_1289)"/>
<path d="M40.446 29.3546L40.1571 39.93L40.1098 41.6682C40.1098 41.6682 40.1047 41.6797 40.0945 41.7002C40.0894 41.7091 40.0843 41.7194 40.0766 41.7321C40.0025 41.8766 39.8951 42.0108 39.7699 42.1335C39.7584 42.145 39.7481 42.1565 39.7353 42.168C39.2599 42.6179 38.5825 42.9067 38.5825 42.9067V47.5477C38.5825 47.5477 38.5786 47.5464 38.571 47.5451C37.8769 47.416 37.243 47.1336 36.7164 46.8255C35.915 46.3577 35.3564 45.826 35.2005 45.6726C35.1852 45.6573 35.1711 45.6432 35.1571 45.6279C35.1571 45.6279 35.1571 45.6266 35.1558 45.6254C34.9295 45.2509 34.7966 44.5824 34.7263 44.1184C34.7263 44.1159 34.725 44.112 34.7238 44.1095C34.688 43.8641 34.6688 43.6762 34.6637 43.6225C34.6637 43.6174 34.6624 43.6123 34.6624 43.6072V44.3485C34.5026 44.3485 34.3199 44.3242 34.132 44.2846C34.1269 44.2846 34.1218 44.2833 34.1166 44.282C33.4635 44.1465 32.7478 43.8462 32.6915 43.8219C32.6902 43.8219 32.689 43.8219 32.689 43.8206L32.2876 42.8671C31.9617 42.8556 31.6907 42.94 31.4862 43.041C31.4428 43.0627 31.398 43.0882 31.3533 43.1151C31.1948 43.2109 31.0938 43.3068 31.0619 43.3388C31.0581 43.3426 31.0542 43.3477 31.0504 43.3503C29.9985 43.4359 29.0207 43.3196 29.0207 43.3196L28.5146 42.4696C28.2922 42.0747 27.207 41.8484 27.207 41.8484C26.3737 41.9328 25.5429 42.3802 25.4036 42.4594C25.3908 42.4658 25.3831 42.4696 25.3831 42.4696L24.4322 43.6059C23.3355 43.9612 22.2427 43.7286 22.2427 43.7286V42.8237C21.9935 42.8007 21.6625 42.8646 21.4107 42.9272C21.4081 42.9272 21.4043 42.9285 21.4004 42.9298C21.2177 42.9771 21.0783 43.0218 21.0464 43.0333C21.0413 43.0346 21.0387 43.0358 21.0387 43.0358V43.8181C20.5287 44.3025 17.9239 45.5436 17.9239 45.5436L17.7041 41.9942V41.9852L17.6606 41.2822H17.0599L16.8733 38.0856L16.3633 29.3546C23.347 29.0428 26.844 28.8651 33.2897 29.0696C33.3894 29.0722 34.5972 28.6184 34.6982 28.621C35.1877 28.6376 35.3488 29.0786 35.8575 29.099C37.0436 29.1476 39.1397 29.2843 40.446 29.3546Z" fill="url(#paint62_linear_200_1289)"/>
<path d="M40.156 39.93L40.1087 41.6683C40.1087 41.6683 40.1036 41.6798 40.0921 41.6989C40.0576 41.7667 39.9591 41.9328 39.7687 42.1322C39.7572 42.1437 39.747 42.1552 39.7342 42.1667C39.5144 42.3917 39.1782 42.6512 38.6887 42.862L38.5813 47.5477C38.5813 47.5477 38.5762 47.5464 38.5698 47.5451C38.4062 47.5196 36.6641 47.2103 35.1994 45.6714C35.1827 45.6561 35.1687 45.6407 35.1559 45.6267C35.1559 45.6267 35.1559 45.6267 35.1546 45.6241C35.1342 45.5679 34.8568 44.8329 34.7264 44.1172C34.7264 44.1133 34.7252 44.1108 34.7239 44.107C34.6932 43.9408 34.6715 43.7759 34.6638 43.62C34.6638 43.6136 34.6625 43.6085 34.6625 43.6034V44.3447C34.6625 44.3447 34.4465 44.3332 34.1321 44.2808C34.127 44.2808 34.1219 44.2795 34.1155 44.2769C33.7142 44.2105 33.1582 44.0776 32.6904 43.8168C32.6891 43.8168 32.6878 43.8168 32.6865 43.8155L32.2852 42.862C32.2852 42.862 31.9196 42.816 31.4851 43.0359C31.4416 43.0576 31.3956 43.0832 31.3522 43.11C31.2563 43.1701 31.1579 43.2442 31.062 43.335C31.0569 43.3401 31.0543 43.3426 31.0505 43.3465C29.9986 43.4321 29.0208 43.3158 29.0208 43.3158L28.5147 42.4671C28.2936 42.0722 27.2084 41.8459 27.2084 41.8459C26.3738 41.9303 25.5443 42.3776 25.405 42.4569C25.3922 42.4633 25.3845 42.4671 25.3845 42.4671L24.9001 43.0461L24.4349 43.6034C23.3395 43.9574 22.2441 43.7248 22.2441 43.7248V42.8199C21.9949 42.7969 21.6651 42.8608 21.4133 42.9247C21.4095 42.9247 21.4069 42.926 21.4018 42.9285C21.2203 42.9745 21.081 43.0218 21.0491 43.0333C21.0427 43.0346 21.0427 43.0346 21.0427 43.0346V43.8181C20.5327 44.3025 17.9278 45.5436 17.9278 45.5436L17.708 41.9942C17.708 41.9942 18.9798 42.3048 20.9315 41.5788L20.8113 40.2687C20.8113 40.2687 21.5041 40.0629 22.2326 40.0731L22.2646 40.6675C22.2646 40.6675 22.5905 40.9576 24.4617 40.6675L24.8132 40.33L25.2286 39.9287C25.2286 39.9287 26.7687 39.5696 28.801 39.9249C28.8074 39.9262 28.8163 39.9274 28.8227 39.9287L29.3634 40.6227C29.3634 40.6227 30.0497 40.9576 30.8844 40.6125C30.8844 40.6125 31.0416 39.9875 32.2852 39.9287C32.2852 39.9287 32.6789 40.9052 34.697 40.8784V42.0594C34.697 42.0594 36.0122 44.3869 38.58 44.3447V40.4796C38.5813 40.4821 39.6575 40.4745 40.156 39.93Z" fill="url(#paint63_linear_200_1289)"/>
<path opacity="0.5" d="M16.3643 29.3546L17.6616 41.2822H17.0608L16.3643 29.3546Z" fill="url(#paint64_linear_200_1289)"/>
<path opacity="0.5" d="M20.0402 29.8608L21.0397 43.0359V43.8181C20.5298 44.3025 17.9249 45.5436 17.9249 45.5436L17.6616 41.281V30.2877C17.6616 30.2877 18.0489 42.8378 18.1294 43.5587C18.2087 44.2783 18.4745 44.7831 18.4745 44.7831C18.4745 44.7831 20.6716 44.6783 20.6691 43.3491L20.0402 29.8608Z" fill="url(#paint65_linear_200_1289)"/>
<path opacity="0.5" d="M25.405 42.1807V42.4581C25.3922 42.4645 25.3846 42.4683 25.3846 42.4683L24.4336 43.6046C23.337 43.9599 22.2442 43.7273 22.2442 43.7273V42.8224C21.9949 42.7994 21.6639 42.8633 21.4121 42.9259C21.7751 42.8096 21.917 42.8671 21.9847 42.7163L22.1918 29.3546C22.1918 29.3546 22.6557 43.0307 22.8142 43.349C22.974 43.6672 24.4336 43.6046 24.4336 43.6046L24.5551 31.2936L25.405 42.1807Z" fill="url(#paint66_linear_200_1289)"/>
<path opacity="0.5" d="M34.6621 44.346C33.922 44.346 32.6874 43.8181 32.6874 43.8181L32.286 42.8646C31.5153 42.8365 31.0501 43.3491 31.0501 43.3491C29.9982 43.4347 29.0204 43.3184 29.0204 43.3184L28.2573 31.0994C28.2957 31.4432 29.5201 42.4799 29.7003 42.9247C29.8831 43.3759 31.0053 43.2481 31.0322 43.0359C31.059 42.8237 31.9588 29.8608 31.9588 29.8608C31.9588 29.8608 32.3397 42.2907 32.7602 43.5587C32.9187 44.0392 34.6621 44.346 34.6621 44.346Z" fill="url(#paint67_linear_200_1289)"/>
<path opacity="0.5" d="M36.7148 46.8269C35.7639 46.2709 35.1555 45.6292 35.1555 45.6292C34.7848 45.0157 34.6621 43.6059 34.6621 43.6059V31.0917C34.6621 31.0917 35.2104 44.0149 35.6885 45.2624C35.783 45.5078 36.4413 46.5904 36.7148 46.8269Z" fill="url(#paint68_linear_200_1289)"/>
<path opacity="0.5" d="M38.5811 42.9068L38.7881 29.269C38.7881 29.269 39.0514 40.9193 39.1319 41.4497C39.2112 41.9801 40.1084 41.667 40.1084 41.667C40.1084 41.667 39.7569 42.439 38.5811 42.9068Z" fill="url(#paint69_linear_200_1289)"/>
<path opacity="0.8" d="M33.291 29.0683H33.994L34.6982 31.8943V28.621L33.291 29.0683Z" fill="url(#paint70_linear_200_1289)"/>
<path opacity="0.2" d="M22.2436 42.8224L22.1911 29.3547C22.1911 29.3547 20.8453 29.0287 20.04 29.4901L21.0395 43.0372C21.0395 43.0359 21.6173 42.8224 22.2436 42.8224Z" fill="url(#paint71_linear_200_1289)"/>
<path opacity="0.2" d="M31.0507 43.3489L30.2275 29.5501C30.2275 29.5501 30.7567 28.6209 31.9454 29.3533L32.2866 42.8645C32.2866 42.8645 31.6616 42.8006 31.0507 43.3489Z" fill="url(#paint72_linear_200_1289)"/>
<path opacity="0.2" d="M22.2442 42.8225L22.3515 32.1615C22.3515 32.1615 21.8658 42.3457 21.4121 42.926L22.2442 42.8225Z" fill="url(#paint73_linear_200_1289)"/>
<path d="M17.7053 41.9852L17.6618 41.2822H17.0611L16.8745 38.0856C16.8745 38.0856 17.396 38.5176 17.6631 38.5163L17.7053 41.9852Z" fill="url(#paint74_linear_200_1289)"/>
<path opacity="0.5" d="M20.04 29.2103L20.1321 30.7402C20.1321 30.7402 20.1768 29.3867 20.4887 29.1732L20.04 29.2103Z" fill="url(#paint75_linear_200_1289)"/>
<path opacity="0.5" d="M21.6914 29.131C21.6914 29.131 22.1924 29.6908 22.1976 31.0903V29.0798L21.6914 29.131Z" fill="url(#paint76_linear_200_1289)"/>
<path opacity="0.5" d="M30.2275 28.9968L30.3796 32.1001C30.3796 32.1001 30.3809 29.3138 30.7567 29.0058L30.2275 28.9968Z" fill="url(#paint77_linear_200_1289)"/>
<path opacity="0.5" d="M31.9934 28.9968L31.9499 29.9554C31.9499 29.9554 31.8413 29.1898 31.624 29.0237L31.9934 28.9968Z" fill="url(#paint78_linear_200_1289)"/>
<path opacity="0.5" d="M38.7881 29.2704L38.8533 32.0631C38.8533 32.0631 39.0399 29.6538 39.7199 29.3138L38.7881 29.2704Z" fill="url(#paint79_linear_200_1289)"/>
<path opacity="0.2" d="M29.0203 43.3184L28.5142 42.4697C28.293 42.0748 27.2079 41.8485 27.2079 41.8485C26.3733 41.9329 25.5438 42.3802 25.4044 42.4595C25.3917 42.4659 25.384 42.4697 25.384 42.4697L24.8996 43.0487C24.8996 43.0487 24.8625 41.9303 24.8139 40.3314C24.6925 36.3896 24.4957 29.5209 24.5877 29.2691C24.7181 28.9163 27.7728 28.8793 27.9607 29.1732C28.0898 29.3726 28.5308 35.8068 28.8017 39.9275C28.9308 41.8831 29.0203 43.3184 29.0203 43.3184Z" fill="url(#paint80_linear_200_1289)"/>
<path opacity="0.3" d="M24.5882 29.2677L24.564 31.0903C24.564 31.0903 24.6624 29.2639 25.3206 29.0389C25.3206 29.0389 24.7621 28.9699 24.5882 29.2677Z" fill="url(#paint81_linear_200_1289)"/>
<path opacity="0.3" d="M27.1714 28.9968C27.1714 28.9968 27.9472 29.4761 28.2463 31.2897C28.2463 31.2897 28.1351 29.3623 27.9613 29.1719C27.7887 28.9814 27.1714 28.9968 27.1714 28.9968Z" fill="url(#paint82_linear_200_1289)"/>
<path d="M41.8072 42.9552L39.8721 51.7718H40.2325L42.6405 42.9629L41.8072 42.9552Z" fill="url(#paint83_linear_200_1289)"/>
<path d="M39.872 51.7718H39.5972L41.2881 42.9552H41.8071L39.872 51.7718Z" fill="url(#paint84_linear_200_1289)"/>
<path d="M57.3547 51.772C57.3547 51.772 56.3155 43.7925 56.0957 42.0773C55.8759 40.362 58.6801 31.2169 58.6801 31.2169H58.1855C58.1855 31.2169 55.063 40.0029 54.7051 41.2657C54.3472 42.5285 57.0006 51.7732 57.0006 51.7732H57.3547V51.772Z" fill="url(#paint85_linear_200_1289)"/>
<path d="M58.6564 31.2144C58.6564 31.2144 58.6104 31.3907 58.5337 31.6988C58.4826 31.9007 58.4174 32.1589 58.342 32.4618V32.4631L58.3407 32.4657V32.4669L58.3381 32.4733C57.9419 34.0736 57.2619 36.8957 56.8453 39.103L56.8427 39.1107C56.6254 40.2572 56.4784 41.2375 56.4784 41.7935C56.4784 43.5228 57.6377 51.7745 57.6377 51.7745L57.354 51.772C57.354 51.772 57.3527 51.7694 57.3527 51.7643C57.2722 51.469 54.8578 42.5054 55.2093 41.2631C55.3077 40.9154 55.6144 39.9965 56.0055 38.8461C56.3046 37.9668 56.6561 36.9519 57.0012 35.9563C57.0012 35.955 57.0025 35.955 57.0025 35.9537C57.0242 35.8911 57.0459 35.8284 57.0677 35.7658C57.2147 35.344 57.3591 34.9274 57.4984 34.526C58.1349 32.6944 58.6564 31.2144 58.6564 31.2144Z" fill="url(#paint86_linear_200_1289)"/>
<path d="M52.8591 51.772C52.8591 51.772 51.8199 43.7925 51.6001 42.0773C51.3802 40.362 54.1845 31.2169 54.1845 31.2169H53.6898C53.6898 31.2169 50.5673 40.0029 50.2095 41.2657C49.8516 42.5285 52.505 51.7732 52.505 51.7732H52.8591V51.772Z" fill="url(#paint87_linear_200_1289)"/>
<path d="M53.2132 51.7655C53.2132 51.7655 52.1805 43.8053 52.1805 42.0759C52.1805 39.9389 54.6153 31.4175 54.6153 31.4175L54.1616 31.2156C54.1616 31.2156 51.0736 40.0015 50.7157 41.2643C50.3578 42.5271 52.8591 51.7719 52.8591 51.7719L53.2132 51.7655Z" fill="url(#paint88_linear_200_1289)"/>
<path d="M41.4902 40.0973C42.5575 39.7471 48.6977 38.3386 55.4756 41.4215L46.4392 40.8859L41.4902 40.0973Z" fill="#FF3D54"/>
<path opacity="0.5" d="M58.3386 32.4733C57.9423 34.0735 57.2624 36.8956 56.8457 39.103L56.8431 39.1106L56.5466 39.0173H56.5453L56.006 38.8461L55.4155 39.1106L55.4193 39.0991L55.4218 39.0928L55.8922 37.8619L55.8091 37.9705L55.8078 37.9718V37.9731L55.7733 38.0178C55.133 38.8474 54.4517 39.3509 53.7551 39.3803C53.2746 39.4008 52.8285 39.0122 52.4399 38.3399L56.9773 34.6269L57.0975 34.5285H57.6177L58.1174 33.0983L58.1187 33.0957L58.3386 32.4733Z" fill="url(#paint89_linear_200_1289)"/>
<path d="M55.4754 41.4229C55.4754 41.4229 51.6934 39.2462 47.1112 39.9939C47.1112 39.9939 46.8799 40.7518 46.8799 41.4229H55.4754Z" fill="#D70D1A"/>
<path d="M47.1115 39.9938L41.4902 40.0986C41.4902 40.0986 41.0454 40.7888 41.0454 41.4227H46.8788C46.8801 41.4227 46.9249 40.6341 47.1115 39.9938Z" fill="#FF3B48"/>
<path d="M46.8801 42.9552L46.0557 52.1041H46.3369L47.946 42.9654L46.8801 42.9552Z" fill="url(#paint90_linear_200_1289)"/>
<path d="M46.0555 52.1041H45.6235L46.361 42.9552H46.8799L46.0555 52.1041Z" fill="url(#paint91_linear_200_1289)"/>
<path d="M58.3426 32.4617L58.3413 32.4655V32.4668L58.3387 32.4732C58.2352 32.803 58.1291 33.1263 58.0205 33.4433C58.0205 33.4446 58.0192 33.4459 58.0192 33.4472C57.8901 33.8165 57.7585 34.1783 57.6204 34.5272C57.4236 35.0282 57.2165 35.5075 57.0031 35.9549C57.0031 35.9561 57.0018 35.9561 57.0018 35.9574C56.6503 36.6872 56.2797 37.334 55.8924 37.8631L55.8093 37.9718L55.808 37.9731V37.9743L55.7735 38.0191C55.1332 38.8486 54.4519 39.3522 53.7553 39.3816C53.2748 39.402 52.8287 39.0135 52.4401 38.3412C51.1569 36.1172 50.4961 30.7848 51.3 26.7689C52.1372 22.5945 56.304 18.4635 59.0532 19.5525C60.6893 20.1954 60.0451 27.0015 58.3426 32.4617Z" fill="url(#paint92_linear_200_1289)"/>
<path d="M53.4992 39.1093C51.4913 39.03 50.047 31.7804 51.3021 26.7663C52.4448 22.202 55.7769 18.5478 58.4431 19.6419C60.961 20.6747 57.5918 39.2703 53.4992 39.1093Z" fill="url(#paint93_linear_200_1289)"/>
<path opacity="0.5" d="M51.4517 26.2181L59.27 24.1552C59.27 24.1552 59.3493 21.5554 59.1435 20.8844L53.0826 22.6265C53.0838 22.6252 51.7776 24.853 51.4517 26.2181Z" fill="url(#paint94_linear_200_1289)"/>
<path d="M54.0095 37.4515C54.0069 37.4515 54.0044 37.4515 54.0044 37.4515C52.2968 37.3851 51.0672 31.2155 52.1345 26.9465C53.1071 23.0622 55.9433 19.9525 58.2133 20.8843C60.3516 21.7624 57.4886 37.5704 54.0095 37.4515Z" fill="url(#paint95_linear_200_1289)"/>
<path d="M54.0093 37.4516C54.1128 37.4465 55.5954 37.2829 57.2647 32.1409C58.9953 26.8072 58.8739 21.866 58.2105 20.8856C60.3514 21.7624 57.4884 37.5705 54.0093 37.4516Z" fill="#940000"/>
<path opacity="0.4" d="M52.8707 35.7786C52.8707 35.7786 52.2355 25.5266 56.3575 24.8249C58.7808 24.4121 55.8002 36.9557 54.5118 37.3175C53.4229 37.6229 52.9487 36.3192 52.8707 35.7786Z" fill="url(#paint96_linear_200_1289)"/>
<path opacity="0.5" d="M51.4062 37.7059L51.8625 37.8223L52.5681 39.4723L52.6972 38.7553C52.6972 38.7553 51.9814 37.7507 51.7066 36.8419L51.4062 37.7059Z" fill="url(#paint97_linear_200_1289)"/>
<path opacity="0.5" d="M46.2949 43.7783H46.8062L47.7073 44.3228L47.9463 42.9654L46.3614 42.9552L46.2949 43.7783Z" fill="url(#paint98_linear_200_1289)"/>
<path opacity="0.5" d="M41.1577 43.639H41.6562L42.1713 44.6807L42.6404 42.9629L41.2881 42.9552L41.1577 43.639Z" fill="url(#paint99_linear_200_1289)"/>
<path opacity="0.5" d="M50.3798 43.2402H50.8655L52.3597 44.5017L52.2114 42.8031L50.3159 42.8772L50.3798 43.2402Z" fill="url(#paint100_linear_200_1289)"/>
<path d="M55.4756 41.4227H46.3612L45.9189 43.0472L55.6303 42.6702L55.4756 41.4227Z" fill="url(#paint101_linear_200_1289)"/>
<path d="M46.3614 41.4227H40.4167L40.1943 43.014L45.9191 43.0472L46.3614 41.4227Z" fill="url(#paint102_linear_200_1289)"/>
<path d="M40.4165 41.4227L46.2947 41.6656L55.4755 41.4227H40.4165Z" fill="#FBEDEC"/>
<path d="M51.9081 33.0395C51.9081 33.0395 51.2703 26.2782 54.6701 22.1255C54.6701 22.1255 50.9073 25.3234 51.9081 33.0395Z" fill="#940000"/>
<path d="M24.79 29.0646L25.0214 26.1121V24.2601L26.2471 23.713V27.757L26.3852 29.0237L24.79 29.0646Z" fill="url(#paint103_linear_200_1289)"/>
<path d="M25.0215 24.2601C25.0215 24.2601 25.4548 24.3815 26.2472 23.713C26.2472 23.713 25.2273 24.0172 25.0215 24.2601Z" fill="#FFDBD8"/>
<path d="M25.4941 24.0951C25.4941 24.0951 25.4916 23.3333 25.6347 22.9103L25.8354 22.8643C25.8354 22.8643 25.6079 23.5353 25.6347 24.0516L25.4941 24.0951Z" fill="url(#paint104_linear_200_1289)"/>
<path d="M25.0216 24.2601C25.0216 24.2601 24.9896 25.1982 24.9257 25.4244C24.8618 25.6507 25.0216 25.8181 25.0216 25.8181C25.0216 25.8181 25.0535 25.4296 25.106 25.3375C25.1584 25.2455 25.2734 25.2621 25.3948 25.2046C25.5162 25.1471 25.5661 24.632 25.6338 24.5962C25.7016 24.5617 25.7246 25.2161 25.7246 25.3426C25.7246 25.4692 25.6671 25.5574 25.6645 25.6558C25.6607 25.7542 25.7131 25.905 25.7949 25.9165C25.8754 25.928 25.8013 24.7521 25.8869 24.4633C25.9738 24.1731 26.2461 24.1565 26.2461 24.1565V25.1816C26.2461 25.1816 26.3905 24.9618 26.3841 24.8685C26.3777 24.7764 26.2345 24.1744 26.2461 23.713C26.2473 23.713 25.552 24.416 25.0216 24.2601Z" fill="url(#paint105_linear_200_1289)"/>
<path opacity="0.2" d="M25.0214 26.1121C25.0214 26.1121 24.8271 28.5495 25.0214 28.6364C25.2157 28.7233 25.9455 28.3412 26.0145 28.2018C26.0835 28.0625 26.2471 25.4053 26.2471 25.4053V27.7558L26.3852 29.0224L24.79 29.062L25.0214 26.1121Z" fill="url(#paint106_linear_200_1289)"/>
<path d="M32.258 29.0388L32.0254 24.1678V22.3145L30.8009 21.7675V25.8115L30.6616 28.9979L32.258 29.0388Z" fill="url(#paint107_linear_200_1289)"/>
<path d="M32.0255 22.3145C32.0255 22.3145 31.5923 22.4359 30.7998 21.7675C30.8011 21.7675 31.821 22.0717 32.0255 22.3145Z" fill="#FFDBD8"/>
<path d="M31.5537 22.1497C31.5537 22.1497 31.5562 21.3879 31.4131 20.9648L31.2124 20.9188C31.2124 20.9188 31.4399 21.5898 31.4131 22.1062L31.5537 22.1497Z" fill="url(#paint108_linear_200_1289)"/>
<path d="M32.0253 22.3145C32.0253 22.3145 32.0573 23.2527 32.1212 23.4789C32.1851 23.7051 32.0253 23.8726 32.0253 23.8726C32.0253 23.8726 31.9933 23.484 31.9409 23.392C31.8885 23.2999 31.7735 23.3166 31.6521 23.259C31.5307 23.2015 31.4808 22.6864 31.4131 22.6507C31.3453 22.6161 31.3223 23.2705 31.3223 23.3971C31.3223 23.5249 31.3798 23.6118 31.3824 23.7102C31.385 23.8086 31.3338 23.9595 31.252 23.971C31.1715 23.9825 31.2456 22.8066 31.16 22.5177C31.0731 22.2289 30.8008 22.211 30.8008 22.211V23.236C30.8008 23.236 30.6564 23.0162 30.6628 22.9229C30.6692 22.8296 30.8123 22.2289 30.8008 21.7675C30.8008 21.7675 31.4962 22.4717 32.0253 22.3145Z" fill="url(#paint109_linear_200_1289)"/>
<path opacity="0.2" d="M32.0254 24.1679C32.0254 24.1679 32.2197 28.525 32.0254 28.612C31.8311 28.6989 31.1013 28.3167 31.0323 28.1774C30.9633 28.0381 30.7997 23.4611 30.7997 23.4611V25.8116L30.6616 28.998L32.2567 29.0376L32.0254 24.1679Z" fill="url(#paint110_linear_200_1289)"/>
<path d="M28.4162 23.502C28.4162 23.502 28.1145 22.8425 27.2773 22.0449C27.2773 22.0449 28.8456 22.1868 28.8635 23.3704L28.4162 23.502Z" fill="url(#paint111_linear_200_1289)"/>
<path d="M28.8598 18.6016C28.8598 18.6016 28.2016 26.6155 28.2105 28.4036H28.3805C28.3805 28.4036 28.6502 21.8583 28.9493 19.8094L28.8598 18.6016Z" fill="url(#paint112_linear_200_1289)"/>
<path d="M28.1436 18.0634C28.1436 18.0634 27.254 17.8027 27.4074 16.4696C27.4074 16.4696 28.5744 16.7482 28.5923 17.9331L28.1436 18.0634Z" fill="url(#paint113_linear_200_1289)"/>
<path d="M29.6548 19.0564C29.6548 19.0564 29.9156 19.7875 29.8069 20.0074C29.6983 20.2272 28.3038 19.9077 28.107 19.4297C27.9102 18.9529 28.3026 18.7484 28.3026 18.7484L28.3588 18.7574L29.6548 19.0564Z" fill="url(#paint114_linear_200_1289)"/>
<path d="M29.9701 19.1358C29.9701 19.1358 31.1856 19.0936 31.0603 18.3919C30.9351 17.6902 30.126 17.9343 30.126 17.9343C30.126 17.9343 29.7285 17.0959 28.7533 17.2991C27.7781 17.5023 27.7921 18.7575 28.4836 19.0438C28.4836 19.0438 29.0511 19.7876 30.1797 19.6649C31.3083 19.5422 29.9701 19.1358 29.9701 19.1358Z" fill="url(#paint115_linear_200_1289)"/>
<path d="M29.8054 19.0105C29.8054 19.0105 29.252 19.2444 28.5848 18.9338C27.9176 18.6232 28.4263 17.749 28.8814 17.5866C29.3377 17.423 30.0394 17.6863 30.2439 18.2359C30.4484 18.7868 29.932 18.9721 29.8054 19.0105Z" fill="url(#paint116_linear_200_1289)"/>
<path d="M30.0944 18.0954C30.1468 18.2781 29.5064 18.8239 29.1255 18.8865C28.7446 18.9491 28.3203 18.6654 28.388 18.1887C28.4558 17.7119 28.7753 17.57 29.2763 17.5432C29.7774 17.5176 30.0394 17.9062 30.0944 18.0954Z" fill="url(#paint117_linear_200_1289)"/>
<path d="M30.0468 18.2461C30.0468 18.2461 29.8333 17.8448 29.5879 17.7464C29.3412 17.648 28.8491 17.7298 28.6843 17.9241C28.5207 18.1171 28.5743 18.6373 28.5743 18.6373C28.5743 18.6373 29.3578 18.8967 30.0468 18.2461Z" fill="url(#paint118_linear_200_1289)"/>
<path d="M29.7068 17.818C29.7068 17.818 29.8283 18.0723 29.4691 18.3024C29.1917 18.4813 28.5782 18.2168 28.5782 18.2168C28.5782 18.2168 28.4849 18.6462 28.5463 18.7012C28.5463 18.7012 28.8032 18.9006 29.2838 18.7561C29.7643 18.6117 30.0455 18.2462 30.0455 18.2462C30.0455 18.2462 29.827 17.8896 29.7068 17.818Z" fill="url(#paint119_linear_200_1289)"/>
<path d="M29.082 17.9484L29.4756 18.2641C29.4756 18.2641 29.39 18.4136 28.9836 18.3254L28.9312 18.1797C28.9312 18.1797 28.9925 18.0391 29.082 17.9484Z" fill="url(#paint120_linear_200_1289)"/>
<path d="M28.6831 18.1286C28.6831 18.1286 28.9745 17.5931 29.6123 17.8039C29.6123 17.8039 29.6136 18.0621 29.4653 18.1669C29.4653 18.1669 29.5382 18.0046 29.4193 17.8806C29.3017 17.7554 28.802 17.9624 28.6831 18.1286Z" fill="url(#paint121_linear_200_1289)"/>
<path d="M29.0821 17.9484C29.0821 17.9484 28.8942 18.2679 29.1818 18.2858C29.1818 18.2858 28.6884 18.2896 29.0821 17.9484Z" fill="url(#paint122_linear_200_1289)"/>
<path d="M29.3155 28.6924L28.4412 23.2782L27.112 19.5333L26.1291 18.1682L25.9565 18.0673C25.9565 18.0673 26.6084 18.9262 26.9944 19.6496C27.3804 20.373 28.5064 24.2675 28.5064 24.2675L28.8234 28.6912H29.3155V28.6924Z" fill="url(#paint123_linear_200_1289)"/>
<path d="M25.9622 18.4661C25.9622 18.4661 25.6337 18.6348 25.5967 18.8828C25.5596 19.1307 26.0606 19.3493 26.3789 19.1985C26.6971 19.0477 26.4926 18.7115 26.4926 18.7115C26.4926 18.7115 26.8761 18.6732 26.9272 18.3651C26.9783 18.0571 26.5361 17.8117 26.3227 17.8743C26.1092 17.937 25.9622 18.4661 25.9622 18.4661Z" fill="url(#paint124_radial_200_1289)"/>
<path d="M26.1972 18.686C26.1972 18.686 25.4827 18.6796 25.4239 18.3677C25.3651 18.0546 26.0604 17.8232 26.3288 17.9804C26.5985 18.1376 26.3225 18.4712 26.3225 18.4712C26.3225 18.4712 26.6752 18.2348 26.9475 18.4175C27.2197 18.6003 27.0523 18.6527 26.7954 18.6757C26.5397 18.6975 26.1972 18.686 26.1972 18.686Z" fill="url(#paint125_radial_200_1289)"/>
<path d="M26.1318 18.6373C26.1318 18.6373 25.8033 18.4597 25.8008 18.2871C25.7982 18.1146 26.1983 17.9305 26.3939 18.0302C26.5894 18.1299 26.2942 18.5044 26.2942 18.5044L26.1318 18.6373Z" fill="url(#paint126_linear_200_1289)"/>
<path d="M26.0668 18.5773C26.0668 18.5773 25.9134 18.8074 25.9645 18.8406C26.0157 18.8739 26.3633 18.7422 26.4464 18.5697C26.5295 18.3971 26.4643 18.3831 26.4643 18.3831L26.3237 18.47C26.3237 18.47 26.2419 18.5876 26.0668 18.5773Z" fill="url(#paint127_linear_200_1289)"/>
<path d="M27.2781 20.2414C27.2781 20.2414 26.6838 20.483 26.6851 20.7156C26.6876 20.9469 27.0557 21.2128 27.3241 21.0287C27.5925 20.8447 27.4801 20.428 27.4801 20.428C27.4801 20.428 28.1971 20.2746 28.1997 19.9845C28.2009 19.6943 27.6347 19.472 27.4494 19.5614C27.2628 19.6496 27.2781 20.2414 27.2781 20.2414Z" fill="url(#paint128_radial_200_1289)"/>
<path d="M27.4829 20.4575C27.4829 20.4575 26.8285 20.5572 26.7288 20.2798C26.6291 20.0025 27.2311 19.6881 27.4995 19.7929C27.7692 19.8977 27.566 20.2428 27.566 20.2428C27.566 20.2428 28.1271 20.0268 28.4044 20.1533C28.6805 20.2798 28.3341 20.5546 28.1028 20.6134C27.8715 20.6709 27.4829 20.4575 27.4829 20.4575Z" fill="url(#paint129_radial_200_1289)"/>
<path d="M27.4167 20.4217C27.4167 20.4217 27.0908 20.3079 27.0627 20.1507C27.0346 19.9935 27.3733 19.766 27.5675 19.8286C27.7618 19.8913 27.5471 20.2773 27.5471 20.2773L27.4167 20.4217Z" fill="url(#paint130_linear_200_1289)"/>
<path d="M27.3477 20.377C27.3477 20.377 27.2416 20.6109 27.2927 20.6326C27.3439 20.6556 27.6429 20.4843 27.6941 20.3143C27.7452 20.1443 27.6826 20.1405 27.6826 20.1405L27.5663 20.2415C27.5675 20.2415 27.51 20.3616 27.3477 20.377Z" fill="url(#paint131_linear_200_1289)"/>
<path d="M30.2655 28.5174L30.2629 28.5186L29.482 28.9864L27.3743 28.989L26.7493 28.4036L26.748 28.4023C26.748 28.4023 27.5443 27.9716 27.8089 27.4859C27.8421 27.4258 27.8741 27.3415 27.9035 27.2392C27.9035 27.2379 27.9048 27.2367 27.906 27.2341C28.1591 26.3765 28.3176 24.2471 28.1949 23.9902C28.0032 23.5863 27.3207 23.447 27.1494 23.4176C27.1238 23.415 27.1098 23.4125 27.1098 23.4125L27.0816 23.277H30.107V23.4725C30.107 23.4725 29.1241 23.7026 28.8608 24.0643C28.7241 24.2535 28.8071 25.4358 28.9452 26.3854C29.0142 26.8609 29.096 27.2801 29.1701 27.4846C29.3925 28.1007 30.2655 28.5174 30.2655 28.5174Z" fill="url(#paint132_linear_200_1289)"/>
<path opacity="0.2" d="M28.9437 26.3867C28.8287 26.0634 28.7022 25.7847 28.591 25.7298C28.2996 25.5841 28.1066 26.8264 27.9046 27.2341C28.1577 26.3765 28.3162 24.2471 28.1935 23.9902C28.0017 23.5863 27.3192 23.447 27.1479 23.4176C27.4049 23.4534 28.8773 23.6413 30.1056 23.4726C30.1056 23.4726 29.1227 23.7026 28.8594 24.0643C28.7226 24.2548 28.807 25.4371 28.9437 26.3867Z" fill="url(#paint133_linear_200_1289)"/>
<path opacity="0.2" d="M26.7471 28.4037C26.7471 28.4037 27.3312 28.7705 28.5058 28.7437C29.6804 28.7168 30.2645 28.5174 30.2645 28.5174L29.481 28.9852L27.3734 28.9891L26.7471 28.4037Z" fill="url(#paint134_linear_200_1289)"/>
<path opacity="0.5" d="M27.1479 28.4816C27.1479 28.4816 27.7691 27.9678 27.9021 27.6943C28.035 27.4195 28.1947 26.3369 28.1947 26.3369C28.1947 26.3369 28.2765 25.8371 28.4338 25.7834C28.4338 25.7834 28.4529 27.4374 28.4338 27.863C28.4146 28.2873 28.2114 28.7423 28.2114 28.7423C28.2114 28.7423 27.3384 28.6861 27.1479 28.4816Z" fill="url(#paint135_linear_200_1289)"/>
<path d="M28.7392 24.095C28.7392 24.095 28.7009 25.8626 28.7392 26.4813C28.7776 27.1012 29.1763 27.8527 29.1763 27.8527C29.1763 27.8527 28.9015 27.0935 28.8402 26.3867C28.7776 25.6824 28.7392 24.095 28.7392 24.095Z" fill="url(#paint136_linear_200_1289)"/>
<path d="M16.873 28.9891C16.873 28.9891 16.974 26.7549 17.1709 25.9752L21.0935 26.3893L21.4552 28.6222C21.4552 28.621 18.2419 29.4569 16.873 28.9891Z" fill="url(#paint137_linear_200_1289)"/>
<path d="M17.1709 25.974L19.3501 25.9152L21.0922 26.3881C21.0935 26.3881 18.3455 26.5581 17.1709 25.974Z" fill="url(#paint138_linear_200_1289)"/>
<path d="M17.0125 27.0399C17.0125 27.0399 19.6467 27.6291 21.2815 27.5525L21.33 27.8541L16.9741 27.4476L17.0125 27.0399Z" fill="url(#paint139_linear_200_1289)"/>
<path d="M16.9335 27.9524L21.4044 28.3052L21.4555 28.6209H16.8926L16.9335 27.9524Z" fill="url(#paint140_linear_200_1289)"/>
<path d="M15.6631 28.5481C15.6631 28.5481 16.0798 29.2702 18.1005 29.2677C18.6821 29.2677 20.6018 29.2076 21.0402 29.1309C22.7133 28.8369 23.0392 28.2362 23.0392 28.2362L15.6631 28.5481Z" fill="url(#paint141_linear_200_1289)"/>
<path d="M17.1709 27.4655C17.1709 27.4655 17.8419 27.5562 17.9071 27.6163C17.9723 27.6776 18.0477 27.9217 18.288 27.9524C18.527 27.9831 18.5743 27.7403 18.6868 27.7083C18.7992 27.6776 18.9258 27.8374 19.0907 27.8527C19.2555 27.8693 19.5457 27.7032 19.9406 27.7224L17.1709 27.4655Z" fill="url(#paint142_linear_200_1289)"/>
<path d="M18.439 25.9739C18.439 25.9739 18.531 25.4064 19.133 25.4052C19.735 25.4039 19.9421 26.1324 19.9421 26.1324C19.9421 26.1324 18.8186 26.4596 18.439 25.9739Z" fill="url(#paint143_linear_200_1289)"/>
<path d="M18.9875 25.4191C18.9875 25.4191 18.8942 24.6305 18.2271 24.2688L18.4379 23.9915C18.4379 23.9915 18.9134 24.8977 19.132 25.4076C19.1333 25.4064 19.0489 25.4652 18.9875 25.4191Z" fill="url(#paint144_linear_200_1289)"/>
<path opacity="0.5" d="M16.1011 28.5302C16.1011 28.5302 17.0111 29.0798 18.1001 29.2689L18.4388 29.2434C18.4388 29.2434 17.746 29.0682 17.6617 28.534L16.1011 28.5302Z" fill="url(#paint145_linear_200_1289)"/>
<path opacity="0.2" d="M18.1001 29.2677C18.1001 29.2677 19.1801 28.9507 20.1617 28.8983C21.1433 28.8459 20.8187 29.1577 20.8187 29.1577L18.1001 29.2677Z" fill="url(#paint146_linear_200_1289)"/>
<path d="M35.9865 28.3564C35.9865 28.3564 35.2989 28.1237 35.2989 27.7109C35.2989 27.4987 35.5788 27.4911 35.635 27.3722C35.6734 27.2917 35.1493 26.9479 35.2989 26.65C35.4497 26.3522 36.4313 26.8571 36.5246 26.8571C36.6179 26.8571 36.6397 26.7766 36.8736 26.7446C38.2629 26.5567 38.8534 28.4254 38.8534 28.4254L35.9865 28.3564Z" fill="url(#paint147_linear_200_1289)"/>
<path d="M39.4937 27.4949C39.4937 27.4949 39.5052 26.7625 39.9001 26.604C40.295 26.4455 41.1667 27.3747 41.1667 27.3747L39.4937 27.4949Z" fill="#A4BD1D"/>
<path d="M36.5806 28.3078C36.5806 28.3078 36.7863 27.6546 37.5008 27.4898C38.214 27.3249 38.8531 28.4241 38.8531 28.4241L36.5806 28.3078Z" fill="url(#paint148_linear_200_1289)"/>
<path d="M42.2697 28.5481C42.2697 28.5481 41.853 29.2702 39.8323 29.2677C39.2507 29.2677 37.331 29.2076 36.8926 29.1309C35.2195 28.8369 34.8936 28.2362 34.8936 28.2362L42.2697 28.5481Z" fill="url(#paint149_linear_200_1289)"/>
<path opacity="0.5" d="M41.8314 28.5302C41.8314 28.5302 40.9213 29.0798 39.8324 29.2689L39.4937 29.2434C39.4937 29.2434 40.1864 29.0682 40.2708 28.534L41.8314 28.5302Z" fill="url(#paint150_linear_200_1289)"/>
<path opacity="0.2" d="M39.8321 29.2677C39.8321 29.2677 38.752 28.9507 37.7704 28.8983C36.7888 28.8459 37.1135 29.1577 37.1135 29.1577L39.8321 29.2677Z" fill="url(#paint151_linear_200_1289)"/>
<path d="M37.6597 28.3525C37.6597 28.3525 38.4483 26.9875 39.0132 26.8737C39.5615 26.7638 39.1819 27.3108 39.3455 27.3108C39.9296 27.3108 40.8537 26.1426 41.7369 26.1324C42.6201 26.1222 41.682 27.491 41.8328 27.4885C41.9836 27.4859 42.5537 27.4463 42.5716 27.7083C42.6073 28.2336 41.5401 28.488 41.5401 28.488L37.6597 28.3525Z" fill="url(#paint152_linear_200_1289)"/>
</g>
<defs>
<linearGradient id="paint0_linear_200_1289" x1="23.1158" y1="31.8284" x2="23.1158" y2="14.2711" gradientUnits="userSpaceOnUse">
<stop stop-color="#FF9836"/>
<stop offset="0.2242" stop-color="#FFC2B5"/>
<stop offset="0.5218" stop-color="#A96004"/>
<stop offset="1" stop-color="#FF904A"/>
</linearGradient>
<linearGradient id="paint1_linear_200_1289" x1="23.0273" y1="15.2612" x2="23.1785" y2="14.2837" gradientUnits="userSpaceOnUse">
<stop offset="0.00396825" stop-color="#AE0051"/>
<stop offset="1" stop-color="#E53961"/>
</linearGradient>
<radialGradient id="paint2_radial_200_1289" cx="0" cy="0" r="1" gradientUnits="userSpaceOnUse" gradientTransform="translate(24.2996 12.5116) rotate(180) scale(5.65131)">
<stop stop-color="#95004A"/>
<stop offset="0.754" stop-color="#FF2040"/>
<stop offset="0.8989" stop-color="#F73B55"/>
<stop offset="1" stop-color="#F05165"/>
</radialGradient>
<linearGradient id="paint3_linear_200_1289" x1="22.1853" y1="14.3222" x2="22.1853" y2="9.65434" gradientUnits="userSpaceOnUse">
<stop stop-color="#910054"/>
<stop offset="1" stop-color="white"/>
</linearGradient>
<linearGradient id="paint4_linear_200_1289" x1="23.5531" y1="10.7034" x2="23.5531" y2="8.02704" gradientUnits="userSpaceOnUse">
<stop stop-color="#F9CC54"/>
<stop offset="1" stop-color="#2A1400"/>
</linearGradient>
<linearGradient id="paint5_linear_200_1289" x1="24.1274" y1="9.84864" x2="23.402" y2="9.84864" gradientUnits="userSpaceOnUse">
<stop offset="0.00396825" stop-color="#C9082C"/>
<stop offset="1" stop-color="#861B4D"/>
</linearGradient>
<linearGradient id="paint6_linear_200_1289" x1="26.1638" y1="12.2011" x2="26.1638" y2="9.01987" gradientUnits="userSpaceOnUse">
<stop/>
<stop offset="1" stop-color="#F9E5E3"/>
</linearGradient>
<linearGradient id="paint7_linear_200_1289" x1="20.4266" y1="9.31956" x2="19.1144" y2="9.31956" gradientUnits="userSpaceOnUse">
<stop/>
<stop offset="1" stop-color="#FCFFB8"/>
</linearGradient>
<linearGradient id="paint8_linear_200_1289" x1="20.2801" y1="10.6158" x2="19.1167" y2="10.6158" gradientUnits="userSpaceOnUse">
<stop/>
<stop offset="1" stop-color="#FCFFB8"/>
</linearGradient>
<radialGradient id="paint9_radial_200_1289" cx="0" cy="0" r="1" gradientUnits="userSpaceOnUse" gradientTransform="translate(22.1852 10.9654) rotate(-153.711) scale(2.06008 1.28506)">
<stop stop-color="#910054"/>
<stop offset="1" stop-color="white"/>
</radialGradient>
<linearGradient id="paint10_linear_200_1289" x1="24.1951" y1="12.965" x2="19.6497" y2="12.965" gradientUnits="userSpaceOnUse">
<stop stop-color="#910054"/>
<stop offset="1" stop-color="white"/>
</linearGradient>
<linearGradient id="paint11_linear_200_1289" x1="25.0821" y1="12.4216" x2="20.2801" y2="12.4216" gradientUnits="userSpaceOnUse">
<stop stop-color="#F9CC54"/>
<stop offset="1" stop-color="#2A1400"/>
</linearGradient>
<linearGradient id="paint12_linear_200_1289" x1="20.5821" y1="10.2858" x2="18.8836" y2="10.2858" gradientUnits="userSpaceOnUse">
<stop offset="0.00396825" stop-color="#C9082C"/>
<stop offset="1" stop-color="#861B4D"/>
</linearGradient>
<linearGradient id="paint13_linear_200_1289" x1="22.0755" y1="32.2163" x2="22.0755" y2="18.0032" gradientUnits="userSpaceOnUse">
<stop stop-color="#FF9836"/>
<stop offset="0.2242" stop-color="#FFC2B5"/>
<stop offset="0.5218" stop-color="#A96004"/>
<stop offset="1" stop-color="#FF904A"/>
</linearGradient>
<linearGradient id="paint14_linear_200_1289" x1="21.8517" y1="21.2947" x2="21.8517" y2="20.3963" gradientUnits="userSpaceOnUse">
<stop stop-color="#FF9836"/>
<stop offset="1" stop-color="#FF774A"/>
</linearGradient>
<radialGradient id="paint15_radial_200_1289" cx="0" cy="0" r="1" gradientUnits="userSpaceOnUse" gradientTransform="translate(23.3132 18.513) scale(5.65132)">
<stop stop-color="#FF774A"/>
<stop offset="0.6786" stop-color="#F0914F"/>
<stop offset="1" stop-color="#FFCC45"/>
</radialGradient>
<linearGradient id="paint16_linear_200_1289" x1="22.627" y1="20.6447" x2="22.627" y2="15.9769" gradientUnits="userSpaceOnUse">
<stop stop-color="#910054"/>
<stop offset="1" stop-color="white"/>
</linearGradient>
<linearGradient id="paint17_linear_200_1289" x1="21.2587" y1="17.0227" x2="21.2587" y2="14.3498" gradientUnits="userSpaceOnUse">
<stop stop-color="#F9B827"/>
<stop offset="1" stop-color="#2A1400"/>
</linearGradient>
<linearGradient id="paint18_linear_200_1289" x1="20.0425" y1="16.0197" x2="21.4101" y2="16.0197" gradientUnits="userSpaceOnUse">
<stop stop-color="#FF843E"/>
<stop offset="1" stop-color="#BD523B"/>
</linearGradient>
<linearGradient id="paint19_linear_200_1289" x1="18.6485" y1="18.5238" x2="18.6485" y2="15.3426" gradientUnits="userSpaceOnUse">
<stop/>
<stop offset="1" stop-color="#F9E573"/>
</linearGradient>
<linearGradient id="paint20_linear_200_1289" x1="19.5313" y1="18.1949" x2="19.5313" y2="15.5869" gradientUnits="userSpaceOnUse">
<stop/>
<stop offset="1" stop-color="#F9E573"/>
</linearGradient>
<linearGradient id="paint21_linear_200_1289" x1="24.3852" y1="15.6422" x2="25.6973" y2="15.6422" gradientUnits="userSpaceOnUse">
<stop/>
<stop offset="1" stop-color="#F9E5E3"/>
</linearGradient>
<linearGradient id="paint22_linear_200_1289" x1="24.5322" y1="16.9383" x2="25.6955" y2="16.9383" gradientUnits="userSpaceOnUse">
<stop/>
<stop offset="1" stop-color="#F9E5E3"/>
</linearGradient>
<radialGradient id="paint23_radial_200_1289" cx="0" cy="0" r="1" gradientUnits="userSpaceOnUse" gradientTransform="translate(22.6266 17.2879) rotate(-26.2887) scale(2.06008 1.28506)">
<stop stop-color="#910054"/>
<stop offset="1" stop-color="white"/>
</radialGradient>
<linearGradient id="paint24_linear_200_1289" x1="20.6168" y1="19.2876" x2="25.1622" y2="19.2876" gradientUnits="userSpaceOnUse">
<stop stop-color="#910054"/>
<stop offset="1" stop-color="white"/>
</linearGradient>
<linearGradient id="paint25_linear_200_1289" x1="19.7303" y1="18.7442" x2="24.5324" y2="18.7442" gradientUnits="userSpaceOnUse">
<stop stop-color="#F9CC54"/>
<stop offset="1" stop-color="#2A1400"/>
</linearGradient>
<linearGradient id="paint26_linear_200_1289" x1="19.7435" y1="51.7712" x2="19.7435" y2="42.9547" gradientUnits="userSpaceOnUse">
<stop stop-color="#E37A74"/>
<stop offset="0.996" stop-color="#DD5663"/>
</linearGradient>
<linearGradient id="paint27_linear_200_1289" x1="20.2981" y1="51.7712" x2="20.2981" y2="42.9547" gradientUnits="userSpaceOnUse">
<stop stop-color="#FFB3A4"/>
<stop offset="1" stop-color="#FF9386"/>
</linearGradient>
<linearGradient id="paint28_linear_200_1289" x1="4.3256" y1="51.7713" x2="4.3256" y2="31.2153" gradientUnits="userSpaceOnUse">
<stop stop-color="#FFB3A4"/>
<stop offset="1" stop-color="#FF9386"/>
</linearGradient>
<linearGradient id="paint29_linear_200_1289" x1="4.08491" y1="51.7746" x2="4.08491" y2="31.215" gradientUnits="userSpaceOnUse">
<stop stop-color="#E37A74"/>
<stop offset="0.996" stop-color="#DD5663"/>
</linearGradient>
<linearGradient id="paint30_linear_200_1289" x1="8.82029" y1="51.7713" x2="8.82029" y2="31.2153" gradientUnits="userSpaceOnUse">
<stop stop-color="#FFB3A4"/>
<stop offset="1" stop-color="#FF9386"/>
</linearGradient>
<linearGradient id="paint31_linear_200_1289" x1="8.35259" y1="51.7713" x2="8.35259" y2="31.2152" gradientUnits="userSpaceOnUse">
<stop stop-color="#E37A74"/>
<stop offset="0.996" stop-color="#DD5663"/>
</linearGradient>
<linearGradient id="paint32_linear_200_1289" x1="8.55833" y1="35.9265" x2="2.66171" y2="35.9265" gradientUnits="userSpaceOnUse">
<stop stop-color="#84002A"/>
<stop offset="1" stop-color="white"/>
</linearGradient>
<linearGradient id="paint33_linear_200_1289" x1="13.9995" y1="52.1045" x2="13.9995" y2="42.9547" gradientUnits="userSpaceOnUse">
<stop stop-color="#E37A74"/>
<stop offset="0.996" stop-color="#DD5663"/>
</linearGradient>
<linearGradient id="paint34_linear_200_1289" x1="14.7482" y1="52.1045" x2="14.7482" y2="42.9547" gradientUnits="userSpaceOnUse">
<stop stop-color="#FFB3A4"/>
<stop offset="1" stop-color="#FF9386"/>
</linearGradient>
<linearGradient id="paint35_linear_200_1289" x1="9.99766" y1="29.0698" x2="1.38519" y2="29.604" gradientUnits="userSpaceOnUse">
<stop stop-color="#FFB3A4"/>
<stop offset="1" stop-color="#FF9386"/>
</linearGradient>
<linearGradient id="paint36_linear_200_1289" x1="10.0859" y1="28.9926" x2="2.06061" y2="29.4904" gradientUnits="userSpaceOnUse">
<stop stop-color="#FFB69A"/>
<stop offset="1" stop-color="#FFE1D1"/>
</linearGradient>
<linearGradient id="paint37_linear_200_1289" x1="9.54862" y1="23.551" x2="1.71492" y2="23.551" gradientUnits="userSpaceOnUse">
<stop stop-color="#F9E5E3"/>
<stop offset="1"/>
</linearGradient>
<linearGradient id="paint38_linear_200_1289" x1="5.65868" y1="37.4518" x2="5.65868" y2="20.7176" gradientUnits="userSpaceOnUse">
<stop offset="0.00396825" stop-color="#FB394B"/>
<stop offset="1" stop-color="#F31625"/>
</linearGradient>
<linearGradient id="paint39_linear_200_1289" x1="5.94313" y1="37.3628" x2="5.94313" y2="24.8145" gradientUnits="userSpaceOnUse">
<stop stop-color="#B3576B"/>
<stop offset="1" stop-color="white"/>
</linearGradient>
<linearGradient id="paint40_linear_200_1289" x1="9.59404" y1="38.1575" x2="8.30262" y2="38.1575" gradientUnits="userSpaceOnUse">
<stop stop-color="#84002A"/>
<stop offset="1" stop-color="white"/>
</linearGradient>
<linearGradient id="paint41_linear_200_1289" x1="13.8801" y1="44.3225" x2="13.8801" y2="42.9547" gradientUnits="userSpaceOnUse">
<stop stop-color="white"/>
<stop offset="1" stop-color="#84002A"/>
</linearGradient>
<linearGradient id="paint42_linear_200_1289" x1="19.101" y1="44.6807" x2="19.101" y2="42.9547" gradientUnits="userSpaceOnUse">
<stop stop-color="white"/>
<stop offset="1" stop-color="#84002A"/>
</linearGradient>
<linearGradient id="paint43_linear_200_1289" x1="9.66268" y1="44.5016" x2="9.66268" y2="42.8034" gradientUnits="userSpaceOnUse">
<stop stop-color="white"/>
<stop offset="1" stop-color="#84002A"/>
</linearGradient>
<linearGradient id="paint44_linear_200_1289" x1="15.0815" y1="42.2348" x2="5.37076" y2="42.2348" gradientUnits="userSpaceOnUse">
<stop stop-color="#FFB3A4"/>
<stop offset="1" stop-color="#FF9386"/>
</linearGradient>
<linearGradient id="paint45_linear_200_1289" x1="17.7229" y1="43.0474" x2="17.7229" y2="41.4222" gradientUnits="userSpaceOnUse">
<stop stop-color="#FFCAB6"/>
<stop offset="1" stop-color="#FFE1D1"/>
</linearGradient>
<linearGradient id="paint46_linear_200_1289" x1="27.6444" y1="47.857" x2="27.6444" y2="39.26" gradientUnits="userSpaceOnUse">
<stop stop-color="#FF9DBB"/>
<stop offset="1" stop-color="#FF936A"/>
</linearGradient>
<linearGradient id="paint47_linear_200_1289" x1="26.9469" y1="47.857" x2="26.9469" y2="39.9295" gradientUnits="userSpaceOnUse">
<stop stop-color="white"/>
<stop offset="1" stop-color="#84002A"/>
</linearGradient>
<linearGradient id="paint48_linear_200_1289" x1="25.5882" y1="51.7841" x2="25.5882" y2="46.0969" gradientUnits="userSpaceOnUse">
<stop stop-color="#631F3B"/>
<stop offset="1" stop-color="#4F1F33"/>
</linearGradient>
<linearGradient id="paint49_linear_200_1289" x1="28.2432" y1="48.7402" x2="28.2432" y2="36.535" gradientUnits="userSpaceOnUse">
<stop stop-color="#9F2F3F"/>
<stop offset="1" stop-color="#E05A2C"/>
</linearGradient>
<linearGradient id="paint50_linear_200_1289" x1="28.811" y1="48.7402" x2="28.811" y2="36.535" gradientUnits="userSpaceOnUse">
<stop stop-color="#631F3B"/>
<stop offset="1" stop-color="#C03B33"/>
</linearGradient>
<linearGradient id="paint51_linear_200_1289" x1="25.4984" y1="51.7844" x2="25.4984" y2="46.0969" gradientUnits="userSpaceOnUse">
<stop stop-color="#631F3B"/>
<stop offset="1" stop-color="#C03B33"/>
</linearGradient>
<linearGradient id="paint52_linear_200_1289" x1="29.0741" y1="48.9406" x2="34.6142" y2="48.9406" gradientUnits="userSpaceOnUse">
<stop stop-color="#631F3B"/>
<stop offset="1" stop-color="#4F1F33"/>
</linearGradient>
<linearGradient id="paint53_linear_200_1289" x1="31.709" y1="51.7844" x2="31.709" y2="46.0969" gradientUnits="userSpaceOnUse">
<stop stop-color="#631F3B"/>
<stop offset="1" stop-color="#C03B33"/>
</linearGradient>
<linearGradient id="paint54_linear_200_1289" x1="29.5924" y1="46.4535" x2="29.5924" y2="46.0969" gradientUnits="userSpaceOnUse">
<stop stop-color="#FF774A"/>
<stop offset="1" stop-color="#FF9836"/>
</linearGradient>
<linearGradient id="paint55_linear_200_1289" x1="26.0626" y1="51.7529" x2="26.0626" y2="46.2337" gradientUnits="userSpaceOnUse">
<stop stop-color="#9F2F3F"/>
<stop offset="1" stop-color="#E05A2C"/>
</linearGradient>
<linearGradient id="paint56_linear_200_1289" x1="26.6779" y1="51.7162" x2="26.6779" y2="46.0969" gradientUnits="userSpaceOnUse">
<stop stop-color="#631F3B"/>
<stop offset="1" stop-color="#C03B33"/>
</linearGradient>
<linearGradient id="paint57_linear_200_1289" x1="27.6271" y1="46.3444" x2="27.6271" y2="46.0716" gradientUnits="userSpaceOnUse">
<stop stop-color="#FF774A"/>
<stop offset="1" stop-color="#FF9836"/>
</linearGradient>
<linearGradient id="paint58_linear_200_1289" x1="28.6057" y1="48.7402" x2="28.6057" y2="46.0969" gradientUnits="userSpaceOnUse">
<stop stop-color="#A94057"/>
<stop offset="1" stop-color="#D9ACBA"/>
</linearGradient>
<linearGradient id="paint59_linear_200_1289" x1="27.2598" y1="49.8652" x2="27.2598" y2="47.7166" gradientUnits="userSpaceOnUse">
<stop stop-color="#EF7E59"/>
<stop offset="1"/>
</linearGradient>
<linearGradient id="paint60_linear_200_1289" x1="27.8763" y1="34.1113" x2="27.8763" y2="30.0889" gradientUnits="userSpaceOnUse">
<stop stop-color="#A94057"/>
<stop offset="1" stop-color="#5A1444"/>
</linearGradient>
<linearGradient id="paint61_linear_200_1289" x1="28.4397" y1="31.8943" x2="28.4397" y2="30.2878" gradientUnits="userSpaceOnUse">
<stop stop-color="#9F2F3F"/>
<stop offset="1" stop-color="#E05A2C"/>
</linearGradient>
<linearGradient id="paint62_linear_200_1289" x1="28.4047" y1="47.5484" x2="28.4047" y2="28.6212" gradientUnits="userSpaceOnUse">
<stop stop-color="#FFB69A"/>
<stop offset="1" stop-color="#FFE5FF"/>
</linearGradient>
<linearGradient id="paint63_linear_200_1289" x1="28.9309" y1="47.5484" x2="28.9309" y2="39.7687" gradientUnits="userSpaceOnUse">
<stop offset="0.00396825" stop-color="#AE0051"/>
<stop offset="1" stop-color="#E53961"/>
</linearGradient>
<linearGradient id="paint64_linear_200_1289" x1="17.0126" y1="41.2822" x2="17.0126" y2="29.354" gradientUnits="userSpaceOnUse">
<stop stop-color="#C57F8E"/>
<stop offset="1" stop-color="#D9ACBA"/>
</linearGradient>
<linearGradient id="paint65_linear_200_1289" x1="19.3508" y1="45.5443" x2="19.3508" y2="29.8607" gradientUnits="userSpaceOnUse">
<stop stop-color="#C57F8E"/>
<stop offset="1" stop-color="#D9ACBA"/>
</linearGradient>
<linearGradient id="paint66_linear_200_1289" x1="23.4084" y1="43.8019" x2="23.4084" y2="29.354" gradientUnits="userSpaceOnUse">
<stop stop-color="#C57F8E"/>
<stop offset="1" stop-color="#D9ACBA"/>
</linearGradient>
<linearGradient id="paint67_linear_200_1289" x1="31.4594" y1="44.3463" x2="31.4594" y2="29.8607" gradientUnits="userSpaceOnUse">
<stop stop-color="#C57F8E"/>
<stop offset="1" stop-color="#D9ACBA"/>
</linearGradient>
<linearGradient id="paint68_linear_200_1289" x1="35.6886" y1="46.8263" x2="35.6886" y2="31.0906" gradientUnits="userSpaceOnUse">
<stop stop-color="#C57F8E"/>
<stop offset="1" stop-color="#D9ACBA"/>
</linearGradient>
<linearGradient id="paint69_linear_200_1289" x1="39.345" y1="42.9072" x2="39.345" y2="29.2697" gradientUnits="userSpaceOnUse">
<stop stop-color="#C57F8E"/>
<stop offset="1" stop-color="#D9ACBA"/>
</linearGradient>
<linearGradient id="paint70_linear_200_1289" x1="33.9944" y1="31.8943" x2="33.9944" y2="28.6216" gradientUnits="userSpaceOnUse">
<stop stop-color="#C57F8E"/>
<stop offset="1" stop-color="#D9ACBA"/>
</linearGradient>
<linearGradient id="paint71_linear_200_1289" x1="21.1418" y1="43.0357" x2="21.1418" y2="29.2425" gradientUnits="userSpaceOnUse">
<stop stop-color="#84002A"/>
<stop offset="1" stop-color="#FFDDC2"/>
</linearGradient>
<linearGradient id="paint72_linear_200_1289" x1="31.2571" y1="43.3489" x2="31.2571" y2="29.0726" gradientUnits="userSpaceOnUse">
<stop stop-color="#84002A"/>
<stop offset="1" stop-color="#FFDDC2"/>
</linearGradient>
<linearGradient id="paint73_linear_200_1289" x1="21.8816" y1="42.9263" x2="21.8816" y2="32.1619" gradientUnits="userSpaceOnUse">
<stop stop-color="#84002A"/>
<stop offset="1" stop-color="white"/>
</linearGradient>
<linearGradient id="paint74_linear_200_1289" x1="17.2896" y1="41.9852" x2="17.2896" y2="38.0853" gradientUnits="userSpaceOnUse">
<stop offset="0.00396825" stop-color="#AE0051"/>
<stop offset="1" stop-color="#E53961"/>
</linearGradient>
<linearGradient id="paint75_linear_200_1289" x1="20.2649" y1="30.7392" x2="20.2649" y2="29.1722" gradientUnits="userSpaceOnUse">
<stop stop-color="#C57F8E"/>
<stop offset="1" stop-color="#D9ACBA"/>
</linearGradient>
<linearGradient id="paint76_linear_200_1289" x1="21.9446" y1="31.091" x2="21.9446" y2="29.0807" gradientUnits="userSpaceOnUse">
<stop stop-color="#C57F8E"/>
<stop offset="1" stop-color="#D9ACBA"/>
</linearGradient>
<linearGradient id="paint77_linear_200_1289" x1="30.492" y1="32.1001" x2="30.492" y2="28.997" gradientUnits="userSpaceOnUse">
<stop stop-color="#C57F8E"/>
<stop offset="1" stop-color="#D9ACBA"/>
</linearGradient>
<linearGradient id="paint78_linear_200_1289" x1="31.8096" y1="29.9556" x2="31.8096" y2="28.997" gradientUnits="userSpaceOnUse">
<stop stop-color="#C57F8E"/>
<stop offset="1" stop-color="#D9ACBA"/>
</linearGradient>
<linearGradient id="paint79_linear_200_1289" x1="39.254" y1="32.0632" x2="39.254" y2="29.2698" gradientUnits="userSpaceOnUse">
<stop stop-color="#BC6B7C"/>
<stop offset="1" stop-color="#D98D86"/>
</linearGradient>
<linearGradient id="paint80_linear_200_1289" x1="26.7921" y1="43.3179" x2="26.7921" y2="28.9753" gradientUnits="userSpaceOnUse">
<stop stop-color="#84002A"/>
<stop offset="1" stop-color="#FFDDC2"/>
</linearGradient>
<linearGradient id="paint81_linear_200_1289" x1="24.9421" y1="31.0905" x2="24.9421" y2="29.0319" gradientUnits="userSpaceOnUse">
<stop stop-color="#E4C4CE"/>
<stop offset="1" stop-color="#C57F8E"/>
</linearGradient>
<linearGradient id="paint82_linear_200_1289" x1="27.7084" y1="31.2897" x2="27.7084" y2="28.9966" gradientUnits="userSpaceOnUse">
<stop stop-color="#E4C4CE"/>
<stop offset="1" stop-color="#C57F8E"/>
</linearGradient>
<linearGradient id="paint83_linear_200_1289" x1="41.2566" y1="51.7712" x2="41.2566" y2="42.9547" gradientUnits="userSpaceOnUse">
<stop stop-color="#E37A74"/>
<stop offset="0.996" stop-color="#DD5663"/>
</linearGradient>
<linearGradient id="paint84_linear_200_1289" x1="40.702" y1="51.7712" x2="40.702" y2="42.9547" gradientUnits="userSpaceOnUse">
<stop stop-color="#FFB3A4"/>
<stop offset="1" stop-color="#FF9386"/>
</linearGradient>
<linearGradient id="paint85_linear_200_1289" x1="56.675" y1="51.7713" x2="56.675" y2="31.2153" gradientUnits="userSpaceOnUse">
<stop stop-color="#FFB3A4"/>
<stop offset="1" stop-color="#FF9386"/>
</linearGradient>
<linearGradient id="paint86_linear_200_1289" x1="56.9151" y1="51.7746" x2="56.9151" y2="31.215" gradientUnits="userSpaceOnUse">
<stop stop-color="#E37A74"/>
<stop offset="0.996" stop-color="#DD5663"/>
</linearGradient>
<linearGradient id="paint87_linear_200_1289" x1="52.1798" y1="51.7713" x2="52.1798" y2="31.2153" gradientUnits="userSpaceOnUse">
<stop stop-color="#FFB3A4"/>
<stop offset="1" stop-color="#FF9386"/>
</linearGradient>
<linearGradient id="paint88_linear_200_1289" x1="52.6477" y1="51.7713" x2="52.6477" y2="31.2152" gradientUnits="userSpaceOnUse">
<stop stop-color="#E37A74"/>
<stop offset="0.996" stop-color="#DD5663"/>
</linearGradient>
<linearGradient id="paint89_linear_200_1289" x1="52.442" y1="35.9266" x2="58.3386" y2="35.9266" gradientUnits="userSpaceOnUse">
<stop stop-color="#84002A"/>
<stop offset="1" stop-color="white"/>
</linearGradient>
<linearGradient id="paint90_linear_200_1289" x1="47.0009" y1="52.1045" x2="47.0009" y2="42.9547" gradientUnits="userSpaceOnUse">
<stop stop-color="#E37A74"/>
<stop offset="0.996" stop-color="#DD5663"/>
</linearGradient>
<linearGradient id="paint91_linear_200_1289" x1="46.2518" y1="52.1045" x2="46.2518" y2="42.9547" gradientUnits="userSpaceOnUse">
<stop stop-color="#FFB3A4"/>
<stop offset="1" stop-color="#FF9386"/>
</linearGradient>
<linearGradient id="paint92_linear_200_1289" x1="51.0028" y1="29.0697" x2="59.6153" y2="29.6039" gradientUnits="userSpaceOnUse">
<stop stop-color="#FFB3A4"/>
<stop offset="1" stop-color="#FF9386"/>
</linearGradient>
<linearGradient id="paint93_linear_200_1289" x1="50.9143" y1="28.9926" x2="58.9396" y2="29.4904" gradientUnits="userSpaceOnUse">
<stop stop-color="#FFB69A"/>
<stop offset="1" stop-color="#FFE1D1"/>
</linearGradient>
<linearGradient id="paint94_linear_200_1289" x1="51.4515" y1="23.551" x2="59.2852" y2="23.551" gradientUnits="userSpaceOnUse">
<stop stop-color="#F9E5E3"/>
<stop offset="1"/>
</linearGradient>
<linearGradient id="paint95_linear_200_1289" x1="55.3415" y1="37.4518" x2="55.3415" y2="20.7176" gradientUnits="userSpaceOnUse">
<stop offset="0.00396825" stop-color="#D0000A"/>
<stop offset="1" stop-color="#FB394B"/>
</linearGradient>
<linearGradient id="paint96_linear_200_1289" x1="55.0571" y1="37.3628" x2="55.0571" y2="24.8145" gradientUnits="userSpaceOnUse">
<stop stop-color="#B3576B"/>
<stop offset="1" stop-color="white"/>
</linearGradient>
<linearGradient id="paint97_linear_200_1289" x1="51.4065" y1="38.1575" x2="52.698" y2="38.1575" gradientUnits="userSpaceOnUse">
<stop stop-color="#84002A"/>
<stop offset="1" stop-color="white"/>
</linearGradient>
<linearGradient id="paint98_linear_200_1289" x1="47.1206" y1="44.3225" x2="47.1206" y2="42.9547" gradientUnits="userSpaceOnUse">
<stop stop-color="white"/>
<stop offset="1" stop-color="#84002A"/>
</linearGradient>
<linearGradient id="paint99_linear_200_1289" x1="41.8989" y1="44.6807" x2="41.8989" y2="42.9547" gradientUnits="userSpaceOnUse">
<stop stop-color="white"/>
<stop offset="1" stop-color="#84002A"/>
</linearGradient>
<linearGradient id="paint100_linear_200_1289" x1="51.3378" y1="44.5016" x2="51.3378" y2="42.8034" gradientUnits="userSpaceOnUse">
<stop stop-color="white"/>
<stop offset="1" stop-color="#84002A"/>
</linearGradient>
<linearGradient id="paint101_linear_200_1289" x1="45.919" y1="42.2348" x2="55.6298" y2="42.2348" gradientUnits="userSpaceOnUse">
<stop stop-color="#FFB3A4"/>
<stop offset="1" stop-color="#FF9386"/>
</linearGradient>
<linearGradient id="paint102_linear_200_1289" x1="43.2778" y1="43.0474" x2="43.2778" y2="41.4222" gradientUnits="userSpaceOnUse">
<stop stop-color="#FFCAB6"/>
<stop offset="1" stop-color="#FFE1D1"/>
</linearGradient>
<linearGradient id="paint103_linear_200_1289" x1="25.588" y1="29.0641" x2="25.588" y2="23.7128" gradientUnits="userSpaceOnUse">
<stop stop-color="#FFB69A"/>
<stop offset="1" stop-color="#FFD2BA"/>
</linearGradient>
<linearGradient id="paint104_linear_200_1289" x1="25.6648" y1="24.0952" x2="25.6648" y2="22.8644" gradientUnits="userSpaceOnUse">
<stop stop-color="#FFB3A4"/>
<stop offset="1" stop-color="#7E3D2F"/>
</linearGradient>
<linearGradient id="paint105_linear_200_1289" x1="25.6489" y1="25.9159" x2="25.6489" y2="23.7128" gradientUnits="userSpaceOnUse">
<stop stop-color="#FFDBCD"/>
<stop offset="1" stop-color="#FFE1D1"/>
</linearGradient>
<linearGradient id="paint106_linear_200_1289" x1="25.588" y1="29.0641" x2="25.588" y2="25.4063" gradientUnits="userSpaceOnUse">
<stop stop-color="#84002A"/>
<stop offset="1" stop-color="white"/>
</linearGradient>
<linearGradient id="paint107_linear_200_1289" x1="31.4597" y1="29.0386" x2="31.4597" y2="21.7678" gradientUnits="userSpaceOnUse">
<stop stop-color="#FFB69A"/>
<stop offset="1" stop-color="#FFD2BA"/>
</linearGradient>
<linearGradient id="paint108_linear_200_1289" x1="31.3827" y1="22.1503" x2="31.3827" y2="20.9195" gradientUnits="userSpaceOnUse">
<stop stop-color="#FFB3A4"/>
<stop offset="1" stop-color="#7E3D2F"/>
</linearGradient>
<linearGradient id="paint109_linear_200_1289" x1="31.3989" y1="23.9709" x2="31.3989" y2="21.7678" gradientUnits="userSpaceOnUse">
<stop stop-color="#FFDBCD"/>
<stop offset="1" stop-color="#FFE1D1"/>
</linearGradient>
<linearGradient id="paint110_linear_200_1289" x1="31.4597" y1="29.0387" x2="31.4597" y2="23.4613" gradientUnits="userSpaceOnUse">
<stop stop-color="#84002A"/>
<stop offset="1" stop-color="white"/>
</linearGradient>
<linearGradient id="paint111_linear_200_1289" x1="27.9596" y1="23.4316" x2="28.1534" y2="22.179" gradientUnits="userSpaceOnUse">
<stop stop-color="#736300"/>
<stop offset="1" stop-color="#504F00"/>
</linearGradient>
<linearGradient id="paint112_linear_200_1289" x1="28.5806" y1="28.4031" x2="28.5806" y2="18.6014" gradientUnits="userSpaceOnUse">
<stop stop-color="#736300"/>
<stop offset="1" stop-color="#504F00"/>
</linearGradient>
<linearGradient id="paint113_linear_200_1289" x1="27.8726" y1="18.022" x2="28.0962" y2="16.5767" gradientUnits="userSpaceOnUse">
<stop stop-color="#736300"/>
<stop offset="1" stop-color="#504F00"/>
</linearGradient>
<linearGradient id="paint114_linear_200_1289" x1="28.8697" y1="19.9857" x2="29.0433" y2="18.8635" gradientUnits="userSpaceOnUse">
<stop offset="0.00396825" stop-color="#AE0051"/>
<stop offset="1" stop-color="#E53961"/>
</linearGradient>
<linearGradient id="paint115_linear_200_1289" x1="29.333" y1="19.6115" x2="29.683" y2="17.3499" gradientUnits="userSpaceOnUse">
<stop stop-color="#FF5459"/>
<stop offset="0.996" stop-color="#FF2C51"/>
</linearGradient>
<linearGradient id="paint116_linear_200_1289" x1="29.1796" y1="19.0961" x2="29.4169" y2="17.5628" gradientUnits="userSpaceOnUse">
<stop offset="0.00396825" stop-color="#C90051"/>
<stop offset="1" stop-color="#FF5461"/>
</linearGradient>
<linearGradient id="paint117_linear_200_1289" x1="29.1251" y1="18.9191" x2="29.3394" y2="17.5343" gradientUnits="userSpaceOnUse">
<stop offset="0.00396825" stop-color="#C90051"/>
<stop offset="1" stop-color="#B31B61"/>
</linearGradient>
<linearGradient id="paint118_linear_200_1289" x1="29.2331" y1="18.7486" x2="29.3948" y2="17.704" gradientUnits="userSpaceOnUse">
<stop offset="0.4643" stop-color="#A10051"/>
<stop offset="1" stop-color="#FF5461"/>
</linearGradient>
<linearGradient id="paint119_linear_200_1289" x1="29.2133" y1="18.8608" x2="29.3824" y2="17.7681" gradientUnits="userSpaceOnUse">
<stop offset="0.00396825" stop-color="#AE0051"/>
<stop offset="1" stop-color="#FF5461"/>
</linearGradient>
<linearGradient id="paint120_linear_200_1289" x1="29.1826" y1="18.3593" x2="29.2423" y2="17.9736" gradientUnits="userSpaceOnUse">
<stop offset="0.00396825" stop-color="#AE0051"/>
<stop offset="1" stop-color="#E53961"/>
</linearGradient>
<linearGradient id="paint121_linear_200_1289" x1="29.1157" y1="18.1956" x2="29.1887" y2="17.7238" gradientUnits="userSpaceOnUse">
<stop offset="0.00396825" stop-color="#C90051"/>
<stop offset="1" stop-color="#FF5461"/>
</linearGradient>
<linearGradient id="paint122_linear_200_1289" x1="29.0483" y1="18.2716" x2="29.0979" y2="17.9513" gradientUnits="userSpaceOnUse">
<stop offset="0.00396825" stop-color="#C90051"/>
<stop offset="1" stop-color="#FF5461"/>
</linearGradient>
<linearGradient id="paint123_linear_200_1289" x1="28.2217" y1="28.8104" x2="27.0507" y2="17.9499" gradientUnits="userSpaceOnUse">
<stop stop-color="#E05A2C"/>
<stop offset="1" stop-color="#9F2F3F"/>
</linearGradient>
<radialGradient id="paint124_radial_200_1289" cx="0" cy="0" r="1" gradientUnits="userSpaceOnUse" gradientTransform="translate(26.2759 18.5619) rotate(13.2261) scale(0.656828)">
<stop offset="0.00396825" stop-color="#703BAC"/>
<stop offset="1" stop-color="#7C6FCF"/>
</radialGradient>
<radialGradient id="paint125_radial_200_1289" cx="0" cy="0" r="1" gradientUnits="userSpaceOnUse" gradientTransform="translate(26.2213 18.439) rotate(-42.4629) scale(0.637498)">
<stop offset="0.00396825" stop-color="#703BAC"/>
<stop offset="1" stop-color="#4D9AEF"/>
</radialGradient>
<linearGradient id="paint126_linear_200_1289" x1="26.131" y1="18.6368" x2="26.131" y2="18.0024" gradientUnits="userSpaceOnUse">
<stop offset="0.00396825" stop-color="#5E16AC"/>
<stop offset="1" stop-color="#95349F"/>
</linearGradient>
<linearGradient id="paint127_linear_200_1289" x1="25.9707" y1="18.8486" x2="26.4738" y2="18.3882" gradientUnits="userSpaceOnUse">
<stop offset="0.00396825" stop-color="#7086FF"/>
<stop offset="1" stop-color="#4D9AEF"/>
</linearGradient>
<radialGradient id="paint128_radial_200_1289" cx="0" cy="0" r="1" gradientUnits="userSpaceOnUse" gradientTransform="translate(27.4444 20.3227) rotate(4.08276) scale(0.759793)">
<stop offset="0.00396825" stop-color="#703BAC"/>
<stop offset="1" stop-color="#7C6FCF"/>
</radialGradient>
<radialGradient id="paint129_radial_200_1289" cx="0" cy="0" r="1" gradientUnits="userSpaceOnUse" gradientTransform="translate(27.5963 20.2534) rotate(-51.6024) scale(0.680695)">
<stop offset="0.00396825" stop-color="#703BAC"/>
<stop offset="1" stop-color="#4D9AEF"/>
</radialGradient>
<linearGradient id="paint130_linear_200_1289" x1="27.3545" y1="20.4222" x2="27.3545" y2="19.8185" gradientUnits="userSpaceOnUse">
<stop offset="0.00396825" stop-color="#5E16AC"/>
<stop offset="1" stop-color="#95349F"/>
</linearGradient>
<linearGradient id="paint131_linear_200_1289" x1="27.4969" y1="20.6354" x2="27.4969" y2="20.1412" gradientUnits="userSpaceOnUse">
<stop offset="0.00396825" stop-color="#7086FF"/>
<stop offset="1" stop-color="#4D9AEF"/>
</linearGradient>
<linearGradient id="paint132_linear_200_1289" x1="28.5063" y1="28.9891" x2="28.5063" y2="23.2783" gradientUnits="userSpaceOnUse">
<stop stop-color="#D8CFEE"/>
<stop offset="1" stop-color="#D9D9E3"/>
</linearGradient>
<linearGradient id="paint133_linear_200_1289" x1="28.6267" y1="27.2346" x2="28.6267" y2="23.4186" gradientUnits="userSpaceOnUse">
<stop stop-color="white"/>
<stop offset="1" stop-color="#84002A"/>
</linearGradient>
<linearGradient id="paint134_linear_200_1289" x1="28.5064" y1="28.989" x2="28.5064" y2="28.4031" gradientUnits="userSpaceOnUse">
<stop stop-color="#84002A"/>
<stop offset="1" stop-color="white"/>
</linearGradient>
<linearGradient id="paint135_linear_200_1289" x1="27.795" y1="28.7417" x2="27.795" y2="25.7835" gradientUnits="userSpaceOnUse">
<stop stop-color="#F9E5E3"/>
<stop offset="1"/>
</linearGradient>
<linearGradient id="paint136_linear_200_1289" x1="28.9492" y1="27.8537" x2="28.9492" y2="24.0951" gradientUnits="userSpaceOnUse">
<stop stop-color="#F9E5E3"/>
<stop offset="1"/>
</linearGradient>
<linearGradient id="paint137_linear_200_1289" x1="19.1645" y1="29.1311" x2="19.1645" y2="25.9745" gradientUnits="userSpaceOnUse">
<stop stop-color="#9F2F3F"/>
<stop offset="1" stop-color="#E05A2C"/>
</linearGradient>
<linearGradient id="paint138_linear_200_1289" x1="19.1322" y1="26.4113" x2="19.1322" y2="25.9159" gradientUnits="userSpaceOnUse">
<stop stop-color="#FF774A"/>
<stop offset="1" stop-color="#FF9836"/>
</linearGradient>
<linearGradient id="paint139_linear_200_1289" x1="19.153" y1="27.8538" x2="19.153" y2="27.0401" gradientUnits="userSpaceOnUse">
<stop stop-color="#FFB69A"/>
<stop offset="1" stop-color="#FFD2BA"/>
</linearGradient>
<linearGradient id="paint140_linear_200_1289" x1="19.1744" y1="28.6211" x2="19.1744" y2="27.9526" gradientUnits="userSpaceOnUse">
<stop stop-color="#8D0A00"/>
<stop offset="1" stop-color="#631F3B"/>
</linearGradient>
<linearGradient id="paint141_linear_200_1289" x1="19.3513" y1="29.2683" x2="19.3513" y2="28.2361" gradientUnits="userSpaceOnUse">
<stop stop-color="#D8CFEE"/>
<stop offset="1" stop-color="#D9D9E3"/>
</linearGradient>
<linearGradient id="paint142_linear_200_1289" x1="18.556" y1="27.9552" x2="18.556" y2="27.4652" gradientUnits="userSpaceOnUse">
<stop stop-color="#FFDBCD"/>
<stop offset="1" stop-color="#FFE1D1"/>
</linearGradient>
<linearGradient id="paint143_linear_200_1289" x1="19.1581" y1="26.2579" x2="19.2875" y2="25.4215" gradientUnits="userSpaceOnUse">
<stop stop-color="#FF5459"/>
<stop offset="0.996" stop-color="#FF2C51"/>
</linearGradient>
<linearGradient id="paint144_linear_200_1289" x1="18.5977" y1="25.3688" x2="18.8023" y2="24.0468" gradientUnits="userSpaceOnUse">
<stop stop-color="#736300"/>
<stop offset="1" stop-color="#504F00"/>
</linearGradient>
<linearGradient id="paint145_linear_200_1289" x1="17.2695" y1="29.2683" x2="17.2695" y2="28.5296" gradientUnits="userSpaceOnUse">
<stop/>
<stop offset="1" stop-color="#F9E5E3"/>
</linearGradient>
<linearGradient id="paint146_linear_200_1289" x1="19.4849" y1="29.2683" x2="19.4849" y2="28.8931" gradientUnits="userSpaceOnUse">
<stop stop-color="#84002A"/>
<stop offset="1" stop-color="white"/>
</linearGradient>
<linearGradient id="paint147_linear_200_1289" x1="37.0626" y1="28.4244" x2="37.0626" y2="26.5553" gradientUnits="userSpaceOnUse">
<stop stop-color="#686D00"/>
<stop offset="1" stop-color="#8F7A00"/>
</linearGradient>
<linearGradient id="paint148_linear_200_1289" x1="37.6994" y1="28.4806" x2="37.8517" y2="27.4963" gradientUnits="userSpaceOnUse">
<stop stop-color="#FF5459"/>
<stop offset="0.996" stop-color="#FF2C51"/>
</linearGradient>
<linearGradient id="paint149_linear_200_1289" x1="38.5813" y1="29.2683" x2="38.5813" y2="28.2361" gradientUnits="userSpaceOnUse">
<stop stop-color="#D8CFEE"/>
<stop offset="1" stop-color="#D9D9E3"/>
</linearGradient>
<linearGradient id="paint150_linear_200_1289" x1="40.6628" y1="29.2683" x2="40.6628" y2="28.5296" gradientUnits="userSpaceOnUse">
<stop/>
<stop offset="1" stop-color="#F9E5E3"/>
</linearGradient>
<linearGradient id="paint151_linear_200_1289" x1="38.4471" y1="29.2683" x2="38.4471" y2="28.8931" gradientUnits="userSpaceOnUse">
<stop stop-color="#84002A"/>
<stop offset="1" stop-color="white"/>
</linearGradient>
<linearGradient id="paint152_linear_200_1289" x1="40.1152" y1="28.4899" x2="40.1152" y2="26.1337" gradientUnits="userSpaceOnUse">
<stop stop-color="#7C7500"/>
<stop offset="1" stop-color="#A38C00"/>
</linearGradient>
<clipPath id="clip0_200_1289">
<rect width="60" height="60" fill="white"/>
</clipPath>
</defs>
</svg>
