<svg width="61" height="61" viewBox="0 0 61 61" fill="none" xmlns="http://www.w3.org/2000/svg">
<g clip-path="url(#clip0_200_1643)">
<path fill-rule="evenodd" clip-rule="evenodd" d="M42.7208 21.4035C39.6258 21.0809 36.8687 19.1424 34.9302 18.9111C34.495 17.9007 34.1511 17.0577 33.3933 15.9713L30.7031 17.2069C31.2722 18.4272 32.7816 19.891 33.442 21.2361C36.9387 22.5447 40.5814 22.1186 42.3313 22.9799C42.8547 24.0663 44.2455 23.1564 44.8419 23.485C45.1554 23.6585 45.2619 24.048 45.4293 24.3493C45.6606 24.7662 45.8645 24.2276 45.764 23.7011C45.6697 23.199 45.3258 22.6664 45.0519 22.2738C44.5863 22.0699 43.3599 21.4643 42.7208 21.4035Z" fill="#FCBE72"/>
<path fill-rule="evenodd" clip-rule="evenodd" d="M33.9045 15.5849L35.0397 17.7851C34.3002 18.5703 33.4268 19.255 32.2399 19.6111L30.347 17.2465C27.1699 12.8277 30.7548 8.74373 33.9045 15.5849Z" fill="#FFAE2B"/>
<path d="M58.9686 55.4194C61.3788 52.3374 60.8342 47.885 57.7522 45.4747C54.6701 43.0645 50.2177 43.6091 47.8075 46.6912C45.3972 49.7732 45.9419 54.2256 49.0239 56.6359C52.106 59.0461 56.5583 58.5015 58.9686 55.4194Z" fill="#221E54"/>
<path fill-rule="evenodd" clip-rule="evenodd" d="M52.6842 44.0057C52.3678 44.0361 52.0604 44.0909 51.7591 44.1609C48.938 45.3204 47.0908 48.2267 47.4103 51.419C47.7999 55.3113 51.2722 58.1536 55.1645 57.7641C55.481 57.7337 55.7883 57.6789 56.0896 57.6089C58.9107 56.4494 60.7579 53.5432 60.4384 50.3508C60.0519 46.4555 56.5796 43.6162 52.6842 44.0057Z" fill="#2B2468"/>
<path fill-rule="evenodd" clip-rule="evenodd" d="M54.3766 46.5255C51.8751 45.9807 49.407 47.5693 48.8653 50.0708C48.3206 52.5723 49.9091 55.0404 52.4107 55.5821C54.9122 56.1268 57.3802 54.5383 57.9219 52.0367C58.4636 49.5383 56.8751 47.0702 54.3766 46.5255ZM53.6036 47.3776L53.1258 49.5809L51.9055 47.6849C51.872 47.6332 51.8659 47.5754 51.8842 47.5176C51.9024 47.4597 51.9451 47.4171 52.0029 47.3958C52.4472 47.2285 52.925 47.1372 53.4149 47.1402C53.4758 47.1402 53.5306 47.1676 53.5671 47.2132C53.6036 47.2589 53.6158 47.3167 53.6036 47.3776ZM52.5385 52.2832L52.0607 54.4865C52.0485 54.5474 52.012 54.593 51.9572 54.6204C51.9024 54.6478 51.8446 54.6509 51.7868 54.6235C51.3394 54.4226 50.9438 54.1427 50.6091 53.8049C50.5665 53.7622 50.5452 53.7044 50.5543 53.6436C50.5604 53.5827 50.5908 53.534 50.6426 53.5005L52.5385 52.2832ZM53.1776 54.73L53.6553 52.5267L54.8757 54.4226C54.9091 54.4744 54.9152 54.5322 54.897 54.59C54.8787 54.6478 54.8361 54.6904 54.7783 54.7117C54.334 54.8791 53.8562 54.9704 53.3662 54.9674C53.3054 54.9674 53.2506 54.94 53.2141 54.8943C53.1776 54.8487 53.1654 54.7909 53.1776 54.73ZM54.2457 49.8243L54.7235 47.621C54.7357 47.5602 54.7722 47.5145 54.827 47.4871C54.8818 47.4597 54.9396 47.4567 54.9974 47.4841C55.4448 47.6849 55.8404 47.9649 56.1751 48.3027C56.2177 48.3453 56.239 48.4031 56.2299 48.464C56.2238 48.5249 56.1934 48.5736 56.1417 48.607L54.2457 49.8243ZM51.9177 51.3185L50.0217 52.5389C49.97 52.5723 49.9122 52.5784 49.8544 52.5602C49.7965 52.5419 49.7539 52.4993 49.7326 52.4415C49.5653 51.9972 49.474 51.5194 49.477 51.0294C49.477 50.9686 49.5044 50.9138 49.55 50.8773C49.5987 50.8377 49.6565 50.8255 49.7144 50.8377L51.9177 51.3185ZM54.8635 50.789L56.7594 49.5687C56.8112 49.5352 56.869 49.5291 56.9268 49.5474C56.9846 49.5656 57.0272 49.6083 57.0485 49.6661C57.2159 50.1104 57.3072 50.5882 57.3042 51.0781C57.3042 51.139 57.2768 51.1938 57.2311 51.2303C57.1824 51.2699 57.1246 51.282 57.0668 51.2699L54.8635 50.789ZM52.1611 50.2017L49.9578 49.7209C49.897 49.7087 49.8513 49.6722 49.8239 49.6174C49.7965 49.5626 49.7935 49.5048 49.8209 49.447C50.0217 48.9996 50.3017 48.604 50.6395 48.2692C50.6821 48.2266 50.7399 48.2053 50.8008 48.2145C50.8617 48.2205 50.9104 48.251 50.9438 48.3027L52.1611 50.2017ZM54.62 51.9059L56.8233 52.3837C56.8842 52.3958 56.9298 52.4324 56.9572 52.4871C56.9846 52.5419 56.9877 52.5997 56.9603 52.6576C56.7594 53.1049 56.4794 53.5005 56.1417 53.8353C56.099 53.8779 56.0412 53.8992 55.9804 53.8901C55.9195 53.884 55.8708 53.8535 55.8373 53.8018L54.62 51.9059Z" fill="#97A5B5"/>
<path fill-rule="evenodd" clip-rule="evenodd" d="M54.3885 46.6289C53.2108 46.3733 51.9814 46.5954 50.968 47.2467C49.9515 47.901 49.2425 48.9205 48.9868 50.1012C48.7312 51.279 48.9534 52.5084 49.6046 53.5218C50.2589 54.5383 51.2784 55.2473 52.4591 55.503C53.6369 55.7586 54.8663 55.5364 55.8797 54.8852C56.8962 54.2309 57.6052 53.2114 57.8609 52.0306C58.1165 50.8529 57.8943 49.6235 57.2431 48.6101C56.5888 47.5936 55.5693 46.8846 54.3885 46.6289ZM53.7282 47.408L53.2017 49.8304L51.8596 47.7458C51.8109 47.6697 51.7988 47.5814 51.8292 47.4993C51.8566 47.4141 51.9175 47.3502 52.0027 47.3197C52.4652 47.1432 52.9552 47.055 53.4482 47.058C53.5364 47.058 53.6156 47.0976 53.6734 47.1676C53.7251 47.2345 53.7464 47.3197 53.7282 47.408ZM52.7087 52.0945L52.1822 54.5169C52.164 54.6052 52.1092 54.6752 52.0301 54.7148C51.9509 54.7543 51.8627 54.7574 51.7805 54.7208C51.3301 54.52 50.9223 54.2339 50.5754 53.884C50.5115 53.82 50.4841 53.7379 50.4932 53.6466C50.5024 53.5583 50.548 53.4823 50.6241 53.4336L52.7087 52.0945ZM53.1195 54.7208L53.646 52.2984L54.9881 54.383C55.0368 54.4591 55.0489 54.5474 55.0185 54.6295C54.9911 54.7148 54.9302 54.7787 54.845 54.8091C54.3825 54.9856 53.8925 55.0739 53.3995 55.0708C53.3112 55.0708 53.2321 55.0313 53.1743 54.9613C53.1226 54.8943 53.1013 54.8091 53.1195 54.7208ZM54.139 50.0343L54.6655 47.6119C54.6837 47.5236 54.7385 47.4536 54.8176 47.4141C54.8968 47.3745 54.985 47.3715 55.0672 47.408C55.5176 47.6088 55.9254 47.8949 56.2723 48.2449C56.3362 48.3088 56.3636 48.3909 56.3545 48.4822C56.3453 48.5705 56.2997 48.6466 56.2236 48.6953L54.139 50.0343ZM52.1913 51.2881L50.1067 52.6302C50.0307 52.6788 49.9424 52.691 49.8602 52.6606C49.775 52.6332 49.7111 52.5723 49.6807 52.4871C49.5042 52.0276 49.4159 51.5346 49.419 51.0416C49.419 50.9533 49.4585 50.8742 49.5285 50.8164C49.5985 50.7616 49.6837 50.7403 49.772 50.7586L52.1913 51.2881ZM54.6564 50.8407L56.741 49.4987C56.817 49.45 56.9053 49.4378 56.9875 49.4682C57.0727 49.4956 57.1366 49.5565 57.167 49.6417C57.3435 50.1043 57.4318 50.5942 57.4287 51.0872C57.4287 51.1755 57.3892 51.2546 57.3192 51.3124C57.2492 51.3672 57.164 51.3885 57.0757 51.3703L54.6564 50.8407ZM52.3952 50.3508L49.9728 49.8243C49.8846 49.806 49.8146 49.7513 49.775 49.6721C49.7355 49.593 49.7324 49.5048 49.7689 49.4226C49.9698 48.9722 50.2559 48.5644 50.6058 48.2175C50.6697 48.1536 50.7519 48.1262 50.8432 48.1353C50.9315 48.1444 51.0075 48.1901 51.0562 48.2662L52.3952 50.3508ZM54.4525 51.778L56.8749 52.3045C56.9631 52.3228 57.0331 52.3776 57.0727 52.4567C57.1122 52.5358 57.1153 52.6241 57.0788 52.7062C56.8779 53.1566 56.5918 53.5644 56.2419 53.9113C56.178 53.9753 56.0958 54.0026 56.0045 53.9935C55.9162 53.9844 55.8402 53.9387 55.7915 53.8627L54.4525 51.778Z" fill="white"/>
<path fill-rule="evenodd" clip-rule="evenodd" d="M50.3898 47.6849C49.6837 48.3179 49.1907 49.1578 48.9868 50.0982C48.7312 51.2759 48.9534 52.5053 49.6046 53.5187C50.2589 54.5352 51.2784 55.2442 52.4591 55.4999C53.6369 55.7555 54.8663 55.5333 55.8797 54.8821C56.0349 54.7817 56.181 54.6752 56.321 54.5595C57.027 53.9265 57.52 53.0866 57.7239 52.1462C57.9795 50.9685 57.7574 49.739 57.1061 48.7257C56.4518 47.7092 55.4324 47.0002 54.2516 46.7445C53.0739 46.4889 51.8444 46.711 50.831 47.3623C50.6758 47.4627 50.5297 47.5692 50.3898 47.6849ZM53.1165 49.7025L53.0617 49.9521L51.7196 47.8675C51.6709 47.7914 51.6588 47.7031 51.6892 47.621C51.7166 47.5388 51.7744 47.4779 51.8535 47.4445C51.887 47.3897 51.9357 47.3471 51.9996 47.3227C52.4622 47.1462 52.9521 47.058 53.4451 47.061C53.5334 47.061 53.6125 47.1006 53.6703 47.1706C53.7251 47.2406 53.7464 47.3258 53.7282 47.414L53.2017 49.8364L53.1165 49.7025ZM52.0118 54.7238C51.9844 54.7695 51.9448 54.8091 51.8931 54.8334C51.814 54.873 51.7257 54.876 51.6436 54.8395C51.1932 54.6386 50.7854 54.3526 50.4384 54.0026C50.3745 53.9387 50.3472 53.8565 50.3563 53.7652C50.3654 53.677 50.4111 53.6009 50.4871 53.5522L50.5389 53.5187C50.5602 53.4853 50.5906 53.4548 50.6271 53.4335L52.7117 52.0915L52.1853 54.5139C52.167 54.6021 52.1122 54.6721 52.0331 54.7117C52.024 54.7178 52.0179 54.7208 52.0118 54.7238ZM52.9826 54.8395L53.5091 52.4171L53.5912 52.5479L53.646 52.2984L54.9881 54.383C55.0368 54.4591 55.0489 54.5473 55.0185 54.6295C54.9911 54.7117 54.9333 54.7725 54.8542 54.806C54.8207 54.8608 54.772 54.9034 54.7081 54.9277C54.2455 55.1042 53.7556 55.1925 53.2626 55.1895C53.1743 55.1895 53.0952 55.1499 53.0374 55.0799C52.9826 55.013 52.9643 54.9277 52.9826 54.8395ZM54.0021 50.1529L54.5285 47.7305C54.5468 47.6423 54.6016 47.5723 54.6807 47.5327C54.6868 47.5297 54.6929 47.5266 54.699 47.5236C54.7263 47.4779 54.7659 47.4384 54.8176 47.414C54.8968 47.3745 54.985 47.3714 55.0672 47.4079C55.5176 47.6088 55.9254 47.8949 56.2723 48.2448C56.3362 48.3087 56.3636 48.3909 56.3545 48.4822C56.3453 48.5705 56.2997 48.6465 56.2236 48.6952L56.1719 48.7287C56.1506 48.7622 56.1201 48.7926 56.0836 48.8139L54.0021 50.1529ZM52.0544 51.4067L49.9698 52.7488C49.8937 52.7975 49.8055 52.8097 49.7233 52.7792C49.6381 52.7518 49.5742 52.691 49.5437 52.6058C49.3672 52.1462 49.279 51.6532 49.282 51.1602C49.282 51.072 49.3216 50.9929 49.3916 50.935C49.4129 50.9168 49.4372 50.9046 49.4616 50.8924C49.4798 50.865 49.5011 50.8377 49.5285 50.8164C49.5985 50.7616 49.6837 50.7403 49.772 50.7585L52.1944 51.285L52.0209 51.3946L52.0544 51.4067ZM54.5194 50.9594L54.6929 50.8498L54.6594 50.8437L56.744 49.5017C56.8201 49.453 56.9083 49.4408 56.9905 49.4712C57.0757 49.4986 57.1396 49.5595 57.17 49.6447C57.3466 50.1073 57.4348 50.5972 57.4318 51.0902C57.4318 51.1785 57.3922 51.2576 57.3222 51.3154C57.3009 51.3337 57.2766 51.3459 57.2522 51.358C57.234 51.3854 57.2127 51.4128 57.1853 51.4341C57.1153 51.4889 57.0301 51.5102 56.9418 51.4919L54.5194 50.9594ZM52.2553 50.4694L49.8328 49.9429C49.7446 49.9247 49.6746 49.8699 49.635 49.7908C49.5955 49.7117 49.5924 49.6234 49.629 49.5412C49.8298 49.0908 50.1159 48.6831 50.4658 48.3361C50.4871 48.3148 50.5115 48.2966 50.5389 48.2844C50.5602 48.2631 50.5815 48.2418 50.6028 48.2205C50.6667 48.1566 50.7489 48.1292 50.8402 48.1383C50.9284 48.1474 51.0045 48.1931 51.0532 48.2692L52.3952 50.3538L52.1457 50.299L52.2553 50.4694ZM54.3155 51.8967L54.5651 51.9515L54.4555 51.778L56.8779 52.3045C56.9662 52.3227 57.0361 52.3775 57.0757 52.4566C57.1153 52.5358 57.1183 52.624 57.0818 52.7062C56.8809 53.1566 56.5949 53.5644 56.2449 53.9113C56.2236 53.9326 56.1993 53.9509 56.1719 53.963C56.1506 53.9843 56.1293 54.0056 56.108 54.0269C56.0441 54.0909 55.9619 54.1182 55.8706 54.1091C55.7823 54.1 55.7063 54.0543 55.6576 53.9783L54.3155 51.8967Z" fill="#EAEEF4"/>
<path fill-rule="evenodd" clip-rule="evenodd" d="M59.6771 52.9923C59.6375 53.1232 59.5006 53.1962 59.3697 53.1597C59.2389 53.1201 59.1658 52.9832 59.2024 52.8523C59.2602 52.6576 59.3089 52.4628 59.3454 52.268C59.3819 52.0763 59.4093 51.8785 59.4306 51.6716C59.4428 51.5346 59.5645 51.4372 59.6984 51.4494C59.8354 51.4616 59.9327 51.5833 59.9206 51.7172C59.9023 51.9302 59.8688 52.1433 59.8293 52.3593C59.7867 52.5815 59.7349 52.7915 59.6771 52.9923ZM59.9175 50.4208C59.9297 50.5547 59.8323 50.6764 59.6954 50.6886C59.5615 50.7008 59.4397 50.6034 59.4276 50.4665C59.3484 49.6691 59.1202 48.9205 58.7763 48.248C58.4172 47.548 57.9333 46.9302 57.3551 46.419C57.2517 46.3307 57.2425 46.1725 57.3338 46.072C57.4221 45.9686 57.5803 45.9595 57.6808 46.0507C58.3046 46.6016 58.8281 47.2711 59.2145 48.0258C59.5858 48.7531 59.8293 49.5596 59.9175 50.4208Z" fill="#5A5499"/>
<path fill-rule="evenodd" clip-rule="evenodd" d="M18.2446 44.0057C14.3523 44.3952 11.5099 47.8645 11.8995 51.7598C12.289 55.6521 15.7613 58.4945 19.6536 58.1049C23.5459 57.7154 26.3882 54.2431 25.9987 50.3508C25.6092 46.4555 22.1369 43.6162 18.2446 44.0057Z" fill="#221E54"/>
<path fill-rule="evenodd" clip-rule="evenodd" d="M18.2443 44.0057C17.9278 44.0361 17.6204 44.0909 17.3192 44.1609C14.4981 45.3204 12.6509 48.2267 12.9704 51.419C13.3599 55.3113 16.8323 58.1536 20.7245 57.7641C21.041 57.7337 21.3484 57.6789 21.6497 57.6089C24.4707 56.4494 26.318 53.5432 25.9984 50.3508C25.6089 46.4555 22.1366 43.6162 18.2443 44.0057Z" fill="#2B2468"/>
<path fill-rule="evenodd" clip-rule="evenodd" d="M19.9332 46.5253C17.4317 45.9806 14.9636 47.5692 14.422 50.0707C13.8772 52.5722 15.4658 55.0403 17.9673 55.582C20.4688 56.1267 22.9369 54.5381 23.4786 52.0366C24.0203 49.5381 22.4348 47.0701 19.9332 46.5253ZM19.1633 47.3775L18.6855 49.5807L17.4652 47.6848C17.4317 47.6331 17.4256 47.5753 17.4439 47.5174C17.4621 47.4596 17.5047 47.417 17.5626 47.3957C18.0069 47.2283 18.4847 47.137 18.9746 47.1401C19.0355 47.1401 19.0903 47.1675 19.1268 47.2131C19.1633 47.2588 19.1755 47.3166 19.1633 47.3775ZM18.0951 52.2831L17.6173 54.4864C17.6052 54.5473 17.5686 54.5929 17.5139 54.6203C17.4591 54.6477 17.4013 54.6507 17.3434 54.6234C16.8961 54.4225 16.5005 54.1425 16.1657 53.8047C16.1231 53.7621 16.1018 53.7043 16.1109 53.6434C16.117 53.5826 16.1475 53.5339 16.1992 53.5004L18.0951 52.2831ZM18.7372 54.7299L19.215 52.5266L20.4354 54.4225C20.4688 54.4742 20.4749 54.5321 20.4567 54.5899C20.4384 54.6477 20.3958 54.6903 20.338 54.7116C19.8937 54.879 19.4159 54.9703 18.9259 54.9672C18.8651 54.9672 18.8103 54.9399 18.7738 54.8942C18.7372 54.8486 18.722 54.7907 18.7372 54.7299ZM19.8024 49.8242L20.2802 47.6209C20.2923 47.56 20.3288 47.5144 20.3836 47.487C20.4384 47.4596 20.4962 47.4566 20.554 47.484C21.0014 47.6848 21.397 47.9648 21.7318 48.3026C21.7744 48.3452 21.7957 48.403 21.7865 48.4639C21.7805 48.5247 21.75 48.5734 21.6983 48.6069L19.8024 49.8242ZM17.4773 51.3184L15.5814 52.5388C15.5297 52.5722 15.4719 52.5783 15.414 52.5601C15.3562 52.5418 15.3136 52.4992 15.2923 52.4414C15.1249 51.9971 15.0336 51.5193 15.0367 51.0293C15.0367 50.9685 15.0641 50.9137 15.1097 50.8772C15.1584 50.8376 15.2162 50.8254 15.2741 50.8376L17.4773 51.3184ZM20.4232 50.7889L22.3191 49.5686C22.3708 49.5351 22.4287 49.529 22.4865 49.5473C22.5443 49.5655 22.5869 49.6081 22.6082 49.666C22.7756 50.1103 22.8669 50.588 22.8638 51.078C22.8638 51.1389 22.8365 51.1937 22.7908 51.2302C22.7421 51.2697 22.6843 51.2819 22.6265 51.2697L20.4232 50.7889ZM17.7208 50.2016L15.5145 49.7207C15.4536 49.7086 15.408 49.672 15.3806 49.6173C15.3532 49.5625 15.3501 49.5047 15.3775 49.4468C15.5784 48.9995 15.8584 48.6039 16.1962 48.2691C16.2388 48.2265 16.2966 48.2052 16.3574 48.2143C16.4183 48.2204 16.467 48.2509 16.5005 48.3026L17.7208 50.2016ZM20.1797 51.9058L22.383 52.3835C22.4439 52.3957 22.4895 52.4322 22.5169 52.487C22.5443 52.5418 22.5474 52.5996 22.52 52.6574C22.3191 53.1048 22.0391 53.5004 21.7013 53.8352C21.6587 53.8778 21.6009 53.8991 21.54 53.8899C21.4792 53.8839 21.4305 53.8534 21.397 53.8017L20.1797 51.9058Z" fill="#97A5B5"/>
<path fill-rule="evenodd" clip-rule="evenodd" d="M19.9452 46.6288C18.7675 46.3732 17.538 46.5953 16.5246 47.2466C15.5082 47.9009 14.7991 48.9203 14.5435 50.1011C14.2878 51.2788 14.51 52.5083 15.1612 53.5217C15.8155 54.5381 16.835 55.2472 18.0158 55.5028C19.1935 55.7585 20.423 55.5363 21.4364 54.8851C22.4528 54.2308 23.1619 53.2113 23.4175 52.0305C23.6731 50.8528 23.451 49.6233 22.7997 48.6099C22.1485 47.5935 21.126 46.8844 19.9452 46.6288ZM19.2848 47.4079L18.7583 49.8303L17.4163 47.7457C17.3676 47.6696 17.3554 47.5813 17.3858 47.4992C17.4132 47.4139 17.4741 47.35 17.5593 47.3196C18.0219 47.1431 18.5118 47.0549 19.0048 47.0579C19.0931 47.0579 19.1722 47.0975 19.23 47.1674C19.2848 47.2344 19.3061 47.3196 19.2848 47.4079ZM18.2684 52.0944L17.7419 54.5168C17.7236 54.6051 17.6689 54.6751 17.5897 54.7146C17.5106 54.7542 17.4224 54.7572 17.3402 54.7207C16.8898 54.5199 16.482 54.2338 16.1351 53.8838C16.0712 53.8199 16.0438 53.7378 16.0529 53.6465C16.062 53.5582 16.1077 53.4821 16.1838 53.4334L18.2684 52.0944ZM18.6792 54.7207L19.2057 52.2983L20.5477 54.3829C20.5964 54.459 20.6086 54.5473 20.5782 54.6294C20.5508 54.7146 20.4899 54.7785 20.4047 54.809C19.9421 54.9855 19.4522 55.0737 18.9592 55.0707C18.8709 55.0707 18.7918 55.0311 18.734 54.9611C18.6792 54.8942 18.6579 54.809 18.6792 54.7207ZM19.6956 50.0342L20.2221 47.6118C20.2404 47.5235 20.2952 47.4535 20.3743 47.4139C20.4534 47.3744 20.5417 47.3713 20.6238 47.4079C21.0742 47.6087 21.482 47.8948 21.8289 48.2447C21.8928 48.3087 21.9202 48.3908 21.9111 48.4821C21.902 48.5704 21.8563 48.6465 21.7802 48.6951L19.6956 50.0342ZM17.748 51.288L15.6634 52.63C15.5873 52.6787 15.499 52.6909 15.4169 52.6605C15.3317 52.6331 15.2678 52.5722 15.2373 52.487C15.0608 52.0275 14.9726 51.5345 14.9756 51.0415C14.9756 50.9532 15.0152 50.8741 15.0852 50.8163C15.1552 50.7615 15.2404 50.7402 15.3286 50.7585L17.748 51.288ZM20.216 50.8406L22.3006 49.4986C22.3767 49.4499 22.465 49.4377 22.5471 49.4681C22.6324 49.4955 22.6963 49.5564 22.7267 49.6416C22.9032 50.1042 22.9915 50.5941 22.9884 51.0871C22.9884 51.1754 22.9488 51.2545 22.8789 51.3123C22.8089 51.3671 22.7236 51.3884 22.6354 51.3701L20.216 50.8406ZM17.9519 50.3507L15.5295 49.8242C15.4412 49.8059 15.3712 49.7511 15.3317 49.672C15.2921 49.5929 15.2891 49.5046 15.3256 49.4225C15.5264 48.9721 15.8125 48.5643 16.1625 48.2174C16.2264 48.1535 16.3085 48.1261 16.3998 48.1352C16.4881 48.1443 16.5642 48.19 16.6129 48.2661L17.9519 50.3507ZM20.0121 51.7779L22.4345 52.3044C22.5228 52.3227 22.5928 52.3774 22.6324 52.4566C22.6719 52.5357 22.675 52.6239 22.6384 52.7061C22.4376 53.1565 22.1515 53.5643 21.8016 53.9112C21.7376 53.9751 21.6555 54.0025 21.5642 53.9934C21.4759 53.9843 21.3998 53.9386 21.3512 53.8625L20.0121 51.7779Z" fill="white"/>
<path fill-rule="evenodd" clip-rule="evenodd" d="M15.9493 47.6849C15.2433 48.3179 14.7503 49.1578 14.5464 50.0982C14.2908 51.2759 14.5129 52.5053 15.1642 53.5187C15.8185 54.5352 16.8379 55.2442 18.0187 55.4999C19.1964 55.7555 20.4259 55.5333 21.4393 54.8821C21.5945 54.7817 21.7406 54.6752 21.8806 54.5595C22.5866 53.9265 23.0796 53.0866 23.2835 52.1462C23.5391 50.9685 23.317 49.739 22.6657 48.7257C22.0114 47.7092 20.9919 47.0002 19.8112 46.7445C18.6334 46.4889 17.404 46.711 16.3906 47.3623C16.2354 47.4627 16.0863 47.5692 15.9493 47.6849ZM18.6761 49.7025L18.6213 49.9521L17.2792 47.8675C17.2305 47.7914 17.2183 47.7031 17.2488 47.621C17.2762 47.5388 17.334 47.4779 17.4131 47.4445C17.4466 47.3897 17.4953 47.3471 17.5592 47.3227C18.0218 47.1462 18.5117 47.058 19.0047 47.061C19.093 47.061 19.1721 47.1006 19.2299 47.1706C19.2847 47.2406 19.306 47.3258 19.2877 47.414L18.7613 49.8364L18.6761 49.7025ZM17.5683 54.7238C17.5409 54.7695 17.5014 54.8091 17.4496 54.8334C17.3705 54.873 17.2823 54.876 17.2001 54.8395C16.7497 54.6386 16.3419 54.3526 15.995 54.0026C15.9311 53.9387 15.9037 53.8565 15.9128 53.7652C15.9219 53.677 15.9676 53.6009 16.0437 53.5522L16.0954 53.5187C16.1167 53.4853 16.1471 53.4548 16.1837 53.4335L18.2683 52.0915L17.7418 54.5139C17.7235 54.6021 17.6687 54.6721 17.5896 54.7117C17.5805 54.7178 17.5744 54.7208 17.5683 54.7238ZM18.5421 54.8395L19.0686 52.4171L19.1508 52.5479L19.2056 52.2984L20.5476 54.383C20.5963 54.4591 20.6085 54.5473 20.5781 54.6295C20.5507 54.7117 20.4929 54.7725 20.4137 54.806C20.3803 54.8608 20.3316 54.9034 20.2677 54.9277C19.8051 55.1042 19.3151 55.1925 18.8221 55.1895C18.7339 55.1895 18.6547 55.1499 18.5969 55.0799C18.5421 55.013 18.5208 54.9277 18.5421 54.8395ZM19.5586 50.1529L20.0851 47.7305C20.1033 47.6423 20.1581 47.5723 20.2372 47.5327C20.2433 47.5297 20.2494 47.5266 20.2555 47.5236C20.2829 47.4779 20.3224 47.4384 20.3742 47.414C20.4533 47.3745 20.5415 47.3714 20.6237 47.4079C21.0741 47.6088 21.4819 47.8949 21.8288 48.2448C21.8927 48.3087 21.9201 48.3909 21.911 48.4822C21.9019 48.5705 21.8562 48.6465 21.7801 48.6952L21.7284 48.7287C21.7071 48.7622 21.6767 48.7926 21.6401 48.8139L19.5586 50.1529ZM17.6109 51.4067L15.5263 52.7488C15.4502 52.7975 15.362 52.8097 15.2798 52.7792C15.1946 52.7518 15.1307 52.691 15.1003 52.6058C14.9238 52.1462 14.8355 51.6532 14.8386 51.1602C14.8386 51.072 14.8781 50.9929 14.9481 50.935C14.9694 50.9168 14.9938 50.9046 15.0181 50.8924C15.0364 50.865 15.0577 50.8377 15.0851 50.8164C15.155 50.7616 15.2403 50.7403 15.3285 50.7585L17.7509 51.285L17.5774 51.3946L17.6109 51.4067ZM20.079 50.9594L20.2524 50.8498L20.219 50.8437L22.3036 49.5017C22.3797 49.453 22.4679 49.4408 22.5501 49.4712C22.6353 49.4986 22.6992 49.5595 22.7296 49.6447C22.9061 50.1073 22.9944 50.5972 22.9913 51.0902C22.9913 51.1785 22.9518 51.2576 22.8818 51.3154C22.8605 51.3337 22.8361 51.3459 22.8118 51.358C22.7935 51.3854 22.7722 51.4128 22.7448 51.4341C22.6748 51.4889 22.5896 51.5102 22.5014 51.4919L20.079 50.9594ZM17.8148 50.4694L15.3924 49.9429C15.3042 49.9247 15.2342 49.8699 15.1946 49.7908C15.155 49.7117 15.152 49.6234 15.1885 49.5412C15.3894 49.0908 15.6754 48.6831 16.0254 48.3361C16.0467 48.3148 16.0711 48.2966 16.0984 48.2844C16.1197 48.2631 16.141 48.2418 16.1624 48.2205C16.2263 48.1566 16.3084 48.1292 16.3997 48.1383C16.488 48.1474 16.5641 48.1931 16.6127 48.2692L17.9548 50.3538L17.7053 50.299L17.8148 50.4694ZM19.8751 51.8967L20.1246 51.9515L20.0151 51.778L22.4375 52.3045C22.5257 52.3227 22.5957 52.3775 22.6353 52.4566C22.6748 52.5358 22.6779 52.624 22.6414 52.7062C22.4405 53.1566 22.1545 53.5644 21.8045 53.9113C21.7832 53.9326 21.7588 53.9509 21.7314 53.963C21.7101 53.9843 21.6888 54.0056 21.6675 54.0269C21.6036 54.0909 21.5215 54.1182 21.4302 54.1091C21.3419 54.1 21.2658 54.0543 21.2171 53.9783L19.8751 51.8967Z" fill="#EAEEF4"/>
<path fill-rule="evenodd" clip-rule="evenodd" d="M25.2342 52.9923C25.1947 53.1232 25.0577 53.1962 24.9269 53.1597C24.796 53.1201 24.723 52.9832 24.7595 52.8523C24.8173 52.6576 24.866 52.4628 24.9025 52.268C24.939 52.0763 24.9664 51.8785 24.9877 51.6716C24.9999 51.5346 25.1216 51.4372 25.2555 51.4494C25.3925 51.4616 25.4899 51.5833 25.4777 51.7172C25.4594 51.9302 25.426 52.1433 25.3864 52.3593C25.3468 52.5815 25.2951 52.7915 25.2342 52.9923ZM25.4746 50.4208C25.4868 50.5547 25.3894 50.6764 25.2525 50.6886C25.1186 50.7008 24.9969 50.6034 24.9847 50.4665C24.9056 49.6691 24.6773 48.9205 24.3334 48.248C23.9743 47.548 23.4905 46.9302 22.9123 46.419C22.8088 46.3307 22.7997 46.1725 22.891 46.072C22.9792 45.9686 23.1375 45.9595 23.2379 46.0507C23.8617 46.6016 24.3852 47.2711 24.7717 48.0258C25.1429 48.7531 25.3894 49.5596 25.4746 50.4208Z" fill="#5A5499"/>
<path d="M20.3334 51.5896C20.3929 50.871 19.8586 50.2403 19.1401 50.1808C18.4215 50.1213 17.7907 50.6556 17.7312 51.3742C17.6718 52.0928 18.2061 52.7235 18.9246 52.783C19.6432 52.8425 20.274 52.3082 20.3334 51.5896Z" fill="#27215E"/>
<path d="M20.2181 51.6785C20.3838 50.9768 19.9492 50.2736 19.2475 50.1079C18.5458 49.9422 17.8427 50.3767 17.677 51.0784C17.5113 51.7802 17.9458 52.4833 18.6475 52.649C19.3492 52.8147 20.0524 52.3802 20.2181 51.6785Z" fill="#473F8B"/>
<path fill-rule="evenodd" clip-rule="evenodd" d="M50.3994 44.7391C51.2728 44.313 52.3349 44.6813 52.7609 45.5547L54.9673 50.0799C55.3933 50.9533 55.0251 52.0154 54.1517 52.4415C53.2783 52.8675 52.2162 52.4993 51.7902 51.6259L49.5838 47.1006C49.1608 46.2272 49.526 45.1651 50.3994 44.7391Z" fill="#332A7C"/>
<path fill-rule="evenodd" clip-rule="evenodd" d="M52.9152 45.8711L54.9663 50.0769C55.1763 50.506 55.1945 50.9837 55.0515 51.4068C54.8902 51.6228 54.6742 51.8054 54.4155 51.9332C53.5421 52.3593 52.5835 51.9332 52.0539 51.1177C50.158 48.2083 52.407 44.8243 52.9152 45.8711Z" fill="#3D3584"/>
<path d="M54.7255 51.2334C54.8831 50.566 54.4698 49.8973 53.8025 49.7397C53.1351 49.5821 52.4663 49.9954 52.3088 50.6627C52.1512 51.3301 52.5644 51.9988 53.2318 52.1564C53.8992 52.314 54.5679 51.9007 54.7255 51.2334Z" fill="#27215E"/>
<path d="M53.868 51.9944C54.5016 51.732 54.8024 51.0056 54.54 50.3721C54.2775 49.7385 53.5512 49.4377 52.9177 49.7001C52.2841 49.9626 51.9833 50.6889 52.2457 51.3224C52.5081 51.956 53.2344 52.2568 53.868 51.9944Z" fill="#5A5499"/>
<path fill-rule="evenodd" clip-rule="evenodd" d="M41.6099 27.1858L42.1698 28.8596L44.9057 26.985L44.3822 25.6277L41.6099 27.1858Z" fill="#1A1840"/>
<path fill-rule="evenodd" clip-rule="evenodd" d="M51.1751 40.7433C58.9109 40.8346 60.5299 46.5984 58.99 46.2333C55.956 45.5181 52.8762 45.0007 51.1446 47.6453C49.5348 50.1042 48.0527 51.1115 46.2603 50.159C47.8792 46.3945 49.553 44.5078 51.1751 40.7433Z" fill="#FF6272"/>
<path fill-rule="evenodd" clip-rule="evenodd" d="M51.1751 40.7433C51.872 40.7524 52.5202 40.8072 53.1227 40.8985C52.9797 41.2545 52.7971 41.5984 52.5902 41.918C50.5908 45.0038 49.0296 47.4171 47.3406 50.5029C46.9906 50.4694 46.6346 50.3568 46.2603 50.159C47.8792 46.3945 49.553 44.5077 51.1751 40.7433Z" fill="#FF2B39"/>
<path fill-rule="evenodd" clip-rule="evenodd" d="M58.4845 46.1177C55.6178 45.4695 52.7785 45.15 51.1442 47.6454C49.5344 50.1044 48.0523 51.1117 46.2568 50.1591C47.8454 46.4677 49.4857 44.584 51.0773 40.9625C56.7864 41.3794 58.7736 45.0222 58.4845 46.1177Z" fill="#FF3B48"/>
<path fill-rule="evenodd" clip-rule="evenodd" d="M47.3372 50.503C46.9872 50.4695 46.6312 50.3569 46.2568 50.1591C47.8454 46.4677 49.4857 44.584 51.0773 40.9625C51.759 41.0112 52.3889 41.1086 52.9671 41.2425C52.8545 41.4768 52.7267 41.7051 52.5867 41.9211C50.5904 45.0039 49.0262 47.4172 47.3372 50.503Z" fill="#F61D2D"/>
<path fill-rule="evenodd" clip-rule="evenodd" d="M41.7802 28.0226L44.6957 26.2697C44.7687 26.224 44.8569 26.2545 44.9026 26.3397L51.7042 39.0421L44.224 52.1553H29.8965L26.3237 38.8778L33.6153 38.1626C29.9239 38.5247 31.1594 47.6453 35.0213 48.4152H41.7529C42.4832 48.4152 43.104 47.8339 43.3201 46.9484L44.7748 40.9654C44.9878 40.089 45.003 39.2551 44.7443 38.3969L41.695 28.2782C41.6646 28.1778 41.7042 28.0682 41.7802 28.0226Z" fill="#EB0010"/>
<path fill-rule="evenodd" clip-rule="evenodd" d="M8.3632 44.7635H8.3145C7.91889 44.7635 7.59326 44.4865 7.59326 44.1457C7.59326 42.3624 8.87446 40.8225 10.6852 40.1652C9.64439 41.495 8.8349 43.0562 8.3632 44.7635Z" fill="#FFA000"/>
<path fill-rule="evenodd" clip-rule="evenodd" d="M7.60791 43.7834C7.70225 42.8278 8.16482 41.9574 8.87389 41.2758C8.69434 42.4048 8.24394 43.5764 7.60791 43.7834Z" fill="#FFDE05"/>
<path fill-rule="evenodd" clip-rule="evenodd" d="M41.7316 27.8736L44.6561 26.0964C44.6987 26.069 44.7291 26.0264 44.7413 25.9685C44.7535 25.9107 44.7504 25.8559 44.7261 25.8042L44.58 25.4938C44.4948 25.3143 44.5435 25.086 44.6774 24.9643L44.8235 24.8304C44.9087 24.7513 45.0091 24.736 45.1126 24.7695L46.4972 25.2412V19.4561L43.2014 19.5991C42.8028 19.6173 42.6567 19.7695 42.4376 20.0495L40.2008 22.8766C40.0639 23.0501 39.9878 23.254 39.9878 23.4975L40.003 24.9978C40.0061 25.1651 40.0334 25.3173 40.1126 25.4451L41.5246 27.8006C41.5703 27.8858 41.6555 27.9192 41.7316 27.8736Z" fill="#F61D2D"/>
<path fill-rule="evenodd" clip-rule="evenodd" d="M46.6551 25.3993H47.2272C47.3185 25.3993 47.3915 25.3263 47.3915 25.235V19.4407C47.3915 19.3494 47.3185 19.2764 47.2272 19.2764H46.6551C46.5638 19.2764 46.4907 19.3494 46.4907 19.4407V25.238C46.4907 25.3263 46.5668 25.3993 46.6551 25.3993Z" fill="#FF919B"/>
<path fill-rule="evenodd" clip-rule="evenodd" d="M46.6551 25.3993H46.9959C47.0872 25.3993 47.1602 25.3263 47.1602 25.235V19.4407C47.1602 19.3494 47.0872 19.2764 46.9959 19.2764H46.6551C46.5638 19.2764 46.4907 19.3494 46.4907 19.4407V25.238C46.4907 25.3263 46.5668 25.3993 46.6551 25.3993Z" fill="#FF6E7C"/>
<path fill-rule="evenodd" clip-rule="evenodd" d="M41.9115 14.8698C42.5537 14.8698 43.074 15.7401 43.074 16.8113C43.074 17.8825 42.5537 18.7529 41.9115 18.7529C41.2694 18.7529 40.749 17.8825 40.749 16.8113C40.749 15.7371 41.2694 14.8698 41.9115 14.8698Z" fill="#F20010"/>
<path fill-rule="evenodd" clip-rule="evenodd" d="M41.9115 14.8698C41.9876 14.8698 42.0607 14.8819 42.1306 14.9032C42.4776 15.238 42.7119 15.8649 42.7119 16.5831C42.7119 17.6543 42.1915 18.5247 41.5494 18.5247C41.4733 18.5247 41.4003 18.5125 41.3303 18.4912C40.9834 18.1564 40.749 17.5295 40.749 16.8113C40.749 15.7371 41.2694 14.8698 41.9115 14.8698Z" fill="#FB394B"/>
<path fill-rule="evenodd" clip-rule="evenodd" d="M19.2203 35.6276H33.5934C34.2264 35.6276 34.7407 36.2484 34.7407 37.0092V37.6513C34.7407 38.2904 34.3908 38.826 33.8765 38.9873C28.7608 40.6093 29.479 48.9173 34.7407 49.3403V49.3525H9.38766C8.56904 49.3525 7.89648 48.546 7.89648 47.56C7.89648 40.655 13.4778 35.6276 19.2203 35.6276Z" fill="#FF6272"/>
<path fill-rule="evenodd" clip-rule="evenodd" d="M19.2216 35.6276H33.5947C34.2277 35.6276 34.742 36.2484 34.742 37.0092V37.6513C34.742 38.2904 34.3921 38.826 33.8778 38.9873C29.319 40.4328 29.3951 47.1918 33.19 48.9417H10.0737C9.25507 48.9417 8.58252 48.1352 8.58252 47.1492C8.58252 42.7152 10.8862 39.0542 14.0542 37.0031C15.6519 36.1175 17.4292 35.6276 19.2216 35.6276Z" fill="#FA1E29"/>
<path fill-rule="evenodd" clip-rule="evenodd" d="M19.2216 35.6276H32.1431C33.5004 36.5284 32.8339 38.4638 31.7384 38.6343C31.6197 38.6525 31.4736 38.7469 31.3002 38.7134C28.9082 38.2417 22.067 40.1133 21.6653 46.0475L18.3695 48.9417H10.0737C9.25507 48.9417 8.58252 48.1352 8.58252 47.1492C8.58252 42.7152 10.8862 39.0542 14.0542 37.0031C15.6519 36.1175 17.4292 35.6276 19.2216 35.6276Z" fill="#FF3B48"/>
<path fill-rule="evenodd" clip-rule="evenodd" d="M35.536 49.1091L43.5823 49.2035C44.3157 49.2126 44.9487 48.7774 45.2743 48.041C50.04 37.1949 48.9231 39.6052 44.1209 28.0044C44.0479 27.8279 44.0448 27.6392 44.1087 27.4566L44.6291 25.9837C44.7022 25.7798 44.8604 25.7189 45.0369 25.6916C45.2134 25.6642 45.4021 25.8315 45.5117 26.0081L52.2372 36.8571C53.071 38.2022 52.6571 39.9551 51.7989 41.2759C49.5835 44.6965 47.9036 47.2923 45.9925 50.8925C45.6486 51.5437 45.0673 51.9119 44.3917 51.9119H29.696C28.4057 51.9119 27.298 51.2455 26.5889 50.0434L26.0381 49.1122H35.536V49.1091Z" fill="#FF6272"/>
<path fill-rule="evenodd" clip-rule="evenodd" d="M35.7032 49.3556L43.7495 49.4499C44.4829 49.459 45.1159 49.0238 45.4415 48.2874C50.2072 37.4414 49.209 39.532 44.4068 27.9313C44.3338 27.7548 44.3308 27.5661 44.3947 27.3835L44.7872 26.288C44.8603 26.0841 45.0003 25.9532 45.1768 25.9258C45.3533 25.8984 45.4841 26.0049 45.6241 26.1601C47.5353 28.3269 50.0185 31.6592 51.9114 34.7329C53.4239 37.1918 53.7434 38.7834 51.9692 41.5223C49.7538 44.9429 48.0739 47.5388 46.1628 51.1389C45.8189 51.7901 45.2346 52.0945 44.562 52.1584C39.9942 52.5996 34.5194 52.7366 29.8694 52.1584C28.5882 52.0001 27.4713 51.4919 26.7623 50.2898L26.2114 49.3586H35.7032V49.3556Z" fill="#FF2B39"/>
<path fill-rule="evenodd" clip-rule="evenodd" d="M35.7028 49.3556L43.749 49.4499C44.4824 49.459 45.1154 49.0238 45.4411 48.2874C50.2067 37.4414 49.2086 39.532 44.4064 27.9313C44.3333 27.7548 44.3303 27.5661 44.3942 27.3835L44.7868 26.288C44.8598 26.0841 44.9998 25.9532 45.1763 25.9258C45.3528 25.8984 45.4837 26.0049 45.6237 26.1601C47.5348 28.3269 50.0181 31.6592 51.911 34.7329C52.5865 35.8284 53.0217 36.7536 53.1435 37.6818C53.0339 38.5217 52.6626 39.4134 51.9688 40.4815C49.7533 43.9021 48.0735 46.498 46.1623 50.0981C45.8184 50.7494 45.2341 51.0537 44.5616 51.1176C39.9937 51.5558 34.5189 51.6958 29.8689 51.1176C28.6273 50.9624 27.5378 50.4816 26.8257 49.3556H35.7028Z" fill="#FF3B48"/>
<path fill-rule="evenodd" clip-rule="evenodd" d="M43.7312 20.8162C43.7312 20.9014 43.6612 20.9714 43.576 20.9714C43.4908 20.9714 43.4208 20.9014 43.4208 20.8162L43.4299 19.3981L42.2248 17.423C42.1791 17.35 42.2035 17.2526 42.2765 17.21C42.3496 17.1644 42.4469 17.1887 42.4895 17.2618L43.716 19.2764C43.7312 19.3007 43.7373 19.3281 43.7373 19.3585L43.7312 20.8162Z" fill="#1A1840"/>
<path fill-rule="evenodd" clip-rule="evenodd" d="M47.3926 20.1287C47.9343 20.3113 48.3481 21.2303 48.3481 22.3411C48.3481 23.4488 47.9343 24.3709 47.3926 24.5535V20.1287Z" fill="#FFA000"/>
<path fill-rule="evenodd" clip-rule="evenodd" d="M47.7423 20.3628C48.1014 20.7432 48.3479 21.4827 48.3479 22.3378C48.3479 22.4109 48.3448 22.4839 48.3418 22.5539C47.7058 22.4291 47.3284 20.8649 47.7423 20.3628Z" fill="#FFDE05"/>
<path fill-rule="evenodd" clip-rule="evenodd" d="M43.3564 20.5059H43.8372C43.9103 20.5059 43.9589 20.5728 43.9711 20.655L44.105 21.574C44.1172 21.6562 44.0442 21.7231 43.9711 21.7231H43.2255C43.1525 21.7231 43.0825 21.6562 43.0916 21.574L43.2255 20.655C43.2347 20.5759 43.2833 20.5059 43.3564 20.5059Z" fill="#332A7C"/>
<path fill-rule="evenodd" clip-rule="evenodd" d="M49.0018 34.6477C49.4187 34.4439 49.9269 34.6204 50.1308 35.0373L51.1837 37.198C51.3876 37.6149 51.2111 38.1231 50.7942 38.327C50.3773 38.5309 49.8691 38.3544 49.6652 37.9375L48.6122 35.7768C48.4083 35.3599 48.5848 34.8516 49.0018 34.6477Z" fill="#FFA000"/>
<path fill-rule="evenodd" clip-rule="evenodd" d="M49.3945 34.5625C49.6988 34.5716 49.9879 34.7451 50.1279 35.0372L51.0104 36.8449C50.9465 36.9606 50.8491 37.0579 50.7213 37.1188C50.3927 37.2801 49.991 37.1401 49.8297 36.8114L49.151 35.4207C48.9989 35.1133 49.1115 34.742 49.3945 34.5625Z" fill="#FFDE05"/>
<path fill-rule="evenodd" clip-rule="evenodd" d="M20.9803 31.5375H33.9809C35.1434 31.5375 36.096 32.49 36.096 33.6525C36.096 34.815 35.1434 35.7676 33.9809 35.7676H20.9803C19.8178 35.7676 18.8652 34.815 18.8652 33.6525C18.8622 32.49 19.8147 31.5375 20.9803 31.5375Z" fill="#221E54"/>
<path fill-rule="evenodd" clip-rule="evenodd" d="M20.9803 31.5375H33.9809C34.2852 31.5375 34.5774 31.6044 34.8391 31.7201C34.9974 32.0153 35.0856 32.3531 35.0856 32.7091C35.0856 33.8716 34.1331 34.8242 32.9706 34.8242H19.9699C19.6656 34.8242 19.3735 34.7572 19.1117 34.6416C18.9535 34.3464 18.8652 34.0086 18.8652 33.6525C18.8622 32.49 19.8147 31.5375 20.9803 31.5375Z" fill="#332A7C"/>
<path fill-rule="evenodd" clip-rule="evenodd" d="M15.0091 38.8018C15.4412 38.8018 15.7881 39.1517 15.7881 39.5808C15.7881 40.013 15.4382 40.3599 15.0091 40.3599C14.5769 40.3599 14.23 40.0099 14.23 39.5808C14.227 39.1517 14.5769 38.8018 15.0091 38.8018Z" fill="#F61D2D"/>
<path fill-rule="evenodd" clip-rule="evenodd" d="M24.51 36.6014C24.9422 36.6014 25.2891 36.9514 25.2891 37.3805C25.2891 37.8096 24.9391 38.1596 24.51 38.1596C24.0779 38.1596 23.731 37.8096 23.731 37.3805C23.731 36.9514 24.0809 36.6014 24.51 36.6014Z" fill="#F61D2D"/>
<path fill-rule="evenodd" clip-rule="evenodd" d="M15.0849 38.686C15.5049 38.686 15.8427 39.0269 15.8427 39.4438C15.8427 39.8638 15.5019 40.2016 15.0849 40.2016C14.665 40.2016 14.3272 39.8607 14.3272 39.4438C14.3241 39.0269 14.665 38.686 15.0849 38.686Z" fill="#FFA000"/>
<path fill-rule="evenodd" clip-rule="evenodd" d="M24.5864 36.4889C25.0063 36.4889 25.3441 36.8297 25.3441 37.2467C25.3441 37.6666 25.0033 38.0044 24.5864 38.0044C24.1664 38.0044 23.8286 37.6636 23.8286 37.2467C23.8286 36.8297 24.1664 36.4889 24.5864 36.4889Z" fill="#FFA000"/>
<path fill-rule="evenodd" clip-rule="evenodd" d="M11.9051 34.3282C11.7986 34.1273 11.8746 33.8747 12.0755 33.7682C12.2764 33.6617 12.5289 33.7378 12.6355 33.9387L15.4748 39.2673C15.5813 39.4682 15.5052 39.7208 15.3044 39.8273C15.1035 39.9338 14.8509 39.8577 14.7444 39.6569L11.9051 34.3282Z" fill="#B7C7D9"/>
<path fill-rule="evenodd" clip-rule="evenodd" d="M11.978 33.8291C12.0054 33.8047 12.0358 33.7804 12.0693 33.7621C12.2702 33.6556 12.5228 33.7317 12.6293 33.9326L15.4716 39.2673C15.5782 39.4682 15.5021 39.7208 15.3012 39.8273C15.283 39.8364 15.2647 39.8455 15.2464 39.8516C15.1795 39.8121 15.1247 39.7542 15.0852 39.6812L12.0145 33.9204C11.9993 33.8899 11.9872 33.8595 11.978 33.8291Z" fill="#E2E8F0"/>
<path fill-rule="evenodd" clip-rule="evenodd" d="M8.02483 34.4986C7.79659 34.4986 7.60791 34.313 7.60791 34.0817C7.60791 33.8504 7.79355 33.6648 8.02483 33.6648H22.7114C23.6518 33.6648 24.2087 33.8474 24.5465 34.1395C24.9299 34.4712 25.0121 34.8912 25.0121 35.3447H25.009V37.2223C25.009 37.4506 24.8234 37.6362 24.5952 37.6362C24.3669 37.6362 24.1813 37.4506 24.1813 37.2223V35.3447H24.1782C24.1782 35.1042 24.1478 34.8912 24.0017 34.7664C23.81 34.5991 23.4235 34.4986 22.7084 34.4986H8.02483Z" fill="#B7C7D9"/>
<path fill-rule="evenodd" clip-rule="evenodd" d="M7.62012 33.9933C7.65968 33.8077 7.82706 33.6677 8.02487 33.6677H22.7114C23.6518 33.6677 24.2087 33.8503 24.5465 34.1425C24.93 34.4742 25.0121 34.8941 25.0121 35.3476H25.0091V37.2252C25.0091 37.2587 25.006 37.2892 24.9969 37.3226C24.9482 37.3409 24.8965 37.3531 24.8447 37.3531C24.6165 37.3531 24.4309 37.1674 24.4309 36.9392V35.0615H24.4278C24.4278 34.8211 24.3974 34.6081 24.2513 34.4833C24.0596 34.3159 23.6731 34.2155 22.9579 34.2155H7.97922C7.82706 34.2094 7.69011 34.1242 7.62012 33.9933Z" fill="#E2E8F0"/>
<path fill-rule="evenodd" clip-rule="evenodd" d="M42.8854 22.1067C43.908 22.1067 44.7357 22.9071 44.7357 23.6222C44.7357 24.3374 43.908 25.1377 42.8854 25.1377C41.8629 25.1377 41.0352 24.4591 41.0352 23.6222C41.0352 22.7823 41.8629 22.1067 42.8854 22.1067Z" fill="#D0000A"/>
<path fill-rule="evenodd" clip-rule="evenodd" d="M45.219 24.9672C45.3164 24.9733 45.3925 25.0616 45.3834 25.159C45.3773 25.2563 45.289 25.3324 45.1916 25.3233C44.4095 25.2655 43.4935 24.1912 43.4844 23.4517C43.4813 23.0774 44.0778 23.0804 44.0809 23.4547C44.093 24.1182 44.4734 24.9094 45.219 24.9672Z" fill="#B7C7D9"/>
<path fill-rule="evenodd" clip-rule="evenodd" d="M45.2196 24.9671C45.314 24.9732 45.387 25.0554 45.384 25.1497C45.3535 25.168 45.317 25.1771 45.2805 25.1741C44.4984 25.1163 43.5824 24.042 43.5732 23.3025C43.5732 23.2812 43.5763 23.2599 43.5793 23.2386C43.7467 23.1017 44.0784 23.1747 44.0815 23.4547C44.0936 24.1181 44.474 24.9093 45.2196 24.9671Z" fill="#E2E8F0"/>
<path fill-rule="evenodd" clip-rule="evenodd" d="M41.8081 25.7736L43.1198 24.3829L43.0924 24.4133L43.065 24.4377L43.0346 24.462L43.0041 24.4864L42.9706 24.5077L42.9402 24.529L42.9067 24.5472L42.8702 24.5655L42.8337 24.5807L42.8002 24.5929L42.7607 24.605L42.7241 24.6142L42.6846 24.6203L42.645 24.6263L42.6055 24.6294L42.5659 24.6324L42.5263 24.6294L42.4868 24.6263L42.4472 24.6203L42.4077 24.6142L42.3711 24.605L42.3346 24.5929L42.2981 24.5807L42.2616 24.5655L42.2281 24.5472L42.1946 24.529L42.1612 24.5077L42.1277 24.4864L42.0972 24.462L42.0699 24.4377L42.0394 24.4133L42.012 24.3829L41.9877 24.3555L41.9633 24.3251L41.939 24.2916L41.9177 24.2581L41.8964 24.2246L41.8781 24.1881L41.8599 24.1516L41.8447 24.1151L41.8325 24.0786L41.8203 24.039L41.8081 23.9964L41.799 23.9568L41.7929 23.9142L41.7868 23.8747L41.7838 23.829V23.7864V23.7438L41.7868 23.7012L41.7929 23.6586L41.799 23.616L41.8081 23.5764L41.8203 23.5369L41.8325 23.4973L41.8447 23.4577L41.8599 23.4212L41.8781 23.3847L41.8964 23.3482L41.9177 23.3147L41.939 23.2812L41.9633 23.2508L41.9877 23.2204L42.012 23.1899L40.7004 24.5776L40.6761 24.6081L40.6517 24.6385L40.6274 24.672L40.6061 24.7024L40.5848 24.7389L40.5665 24.7724L40.5482 24.8089L40.533 24.8485L40.5209 24.885L40.5087 24.9246L40.4965 24.9641L40.4874 25.0067L40.4813 25.0463L40.4752 25.0889L40.4722 25.1315V25.1772V25.2198L40.4752 25.2624L40.4813 25.305L40.4874 25.3445L40.4965 25.3871L40.5087 25.4267L40.5209 25.4663L40.533 25.5028L40.5482 25.5424L40.5665 25.5789L40.5848 25.6123L40.6061 25.6489L40.6274 25.6793L40.6517 25.7128L40.6761 25.7432L40.7004 25.7736L40.7278 25.801L40.7582 25.8284L40.7856 25.8528L40.816 25.8771L40.8495 25.8984L40.88 25.9167L40.9165 25.938L40.95 25.9532L40.9865 25.9684L41.023 25.9806L41.0595 25.9927L41.096 26.0019L41.1356 26.011L41.1752 26.014L41.2147 26.0201H41.2543H41.2938L41.3334 26.014L41.373 26.011L41.4125 26.0019L41.449 25.9927L41.4856 25.9806L41.5221 25.9684L41.5586 25.9532L41.5921 25.938L41.6255 25.9167L41.659 25.8984L41.6925 25.8771L41.7229 25.8528L41.7503 25.8284L41.7807 25.801L41.8081 25.7736Z" fill="#473F8B"/>
<path fill-rule="evenodd" clip-rule="evenodd" d="M40.7002 24.5776L42.0118 23.1899C42.657 22.5174 43.643 23.3208 43.2687 24.1516L43.1165 24.3829L41.8049 25.7706C42.444 25.0463 41.6436 23.9812 40.8797 24.4316L40.7002 24.5776Z" fill="#1A1840"/>
<path fill-rule="evenodd" clip-rule="evenodd" d="M41.2391 24.1C41.8143 24.1 42.283 24.5686 42.283 25.1438C42.283 25.719 41.8143 26.1876 41.2391 26.1876C40.664 26.1876 40.1953 25.719 40.1953 25.1438C40.1953 24.5656 40.664 24.1 41.2391 24.1Z" fill="#332A7C"/>
<path fill-rule="evenodd" clip-rule="evenodd" d="M45.3597 24.7542C45.6001 24.7725 45.7827 24.9824 45.7644 25.2259C45.7462 25.4663 45.5362 25.6489 45.2927 25.6307C45.0523 25.6124 44.8697 25.4024 44.888 25.159C44.9062 24.9155 45.1162 24.7359 45.3597 24.7542Z" fill="#B7C7D9"/>
<path fill-rule="evenodd" clip-rule="evenodd" d="M45.3592 24.7541C45.5601 24.7693 45.7183 24.9154 45.7579 25.1041C45.7 25.2988 45.5144 25.4327 45.3044 25.4175C45.1036 25.4023 44.9453 25.2562 44.9058 25.0676C44.9636 24.8728 45.1492 24.7389 45.3592 24.7541Z" fill="#E2E8F0"/>
<path fill-rule="evenodd" clip-rule="evenodd" d="M29.0053 49.3555H9.8208C9.87254 44.1485 13.9413 39.8333 19.1574 39.8333H24.2822C26.7959 39.8333 29.1239 41.9666 29.1239 44.4803V48.7103C29.1239 48.9355 29.0813 49.1516 29.0053 49.3555Z" fill="#EB0010"/>
<path fill-rule="evenodd" clip-rule="evenodd" d="M19.7779 40.1134H24.2788C26.7925 40.1134 28.8528 42.1706 28.8528 44.6874V48.9174C28.8528 49.9247 28.0311 50.7464 27.0238 50.7464H11.3238C10.7243 50.7464 10.2344 50.2565 10.2344 49.6569C10.2344 44.4074 14.5284 40.1134 19.7779 40.1134Z" fill="#FA1E29"/>
<path fill-rule="evenodd" clip-rule="evenodd" d="M19.7779 40.1134H24.2788C24.9423 40.1134 25.5752 40.2564 26.1474 40.5151C27.0421 41.352 27.6051 42.5419 27.6051 43.8566V47.0489C27.6051 48.5066 26.2052 49.9156 24.7384 49.9156H10.2648C10.2435 49.8335 10.2344 49.7452 10.2344 49.6569C10.2344 44.4074 14.5284 40.1134 19.7779 40.1134Z" fill="#FF2B39"/>
<path fill-rule="evenodd" clip-rule="evenodd" d="M19.7778 40.1134H23.8648C25.3042 40.1134 26.7072 42.4962 26.7133 43.7501C26.7406 48.8688 23.9439 49.2096 12.328 49.2096C10.5355 49.2096 10.6177 46.775 11.0498 45.8042C12.5379 42.4597 15.8976 40.1134 19.7778 40.1134Z" fill="#FF3B48"/>
<path fill-rule="evenodd" clip-rule="evenodd" d="M18.0739 41.5741C18.4421 42.1675 17.8517 43.1992 16.7562 43.8748C15.6606 44.5534 14.4768 44.6204 14.1086 44.0269C13.7403 43.4335 14.3307 42.4019 15.4263 41.7263C16.5218 41.0507 17.7087 40.9807 18.0739 41.5741Z" fill="#FF6272"/>
<path fill-rule="evenodd" clip-rule="evenodd" d="M49.7567 34.8913C49.8906 34.8274 50.055 34.8821 50.1189 35.016L50.4567 35.7099C50.5206 35.8438 50.4658 36.0081 50.3319 36.072C50.198 36.1359 50.0337 36.0812 49.9698 35.9473L49.632 35.2534C49.565 35.1195 49.6228 34.9552 49.7567 34.8913Z" fill="#FFED79"/>
<path fill-rule="evenodd" clip-rule="evenodd" d="M47.8634 20.7949C47.9517 20.7614 48.0886 20.9136 48.1708 21.1327C48.2499 21.3518 48.2438 21.5557 48.1525 21.5892C48.0643 21.6227 47.9273 21.4705 47.8451 21.2514C47.766 21.0323 47.7721 20.8284 47.8634 20.7949Z" fill="#FFED79"/>
<path fill-rule="evenodd" clip-rule="evenodd" d="M42.1299 20.0494C42.1664 20.0037 42.2334 20.0068 42.279 20.0433C42.3247 20.0798 42.3521 20.1528 42.3155 20.1985L40.4227 22.5905C40.3861 22.6361 40.3009 22.6331 40.2553 22.5996C40.2096 22.5631 40.2005 22.49 40.234 22.4444L42.1299 20.0494Z" fill="#332A7C"/>
<path fill-rule="evenodd" clip-rule="evenodd" d="M50.0546 29.5564C50.1459 29.4864 50.2768 29.5199 50.3498 29.6112C50.4198 29.7025 50.4411 29.8608 50.3529 29.9307L48.8343 31.1298C48.743 31.1998 48.5756 31.1602 48.5056 31.0689C48.4357 30.9776 48.4478 30.8285 48.5361 30.7555L50.0546 29.5564ZM50.5537 30.3416L49.0352 31.5406C48.9439 31.6106 48.9317 31.7628 49.0047 31.8541C49.0747 31.9454 49.2421 31.988 49.3334 31.9149L50.852 30.7159C50.9433 30.6459 50.922 30.4877 50.8489 30.3964C50.7789 30.3051 50.645 30.2716 50.5537 30.3416Z" fill="#B7C7D9"/>
<path fill-rule="evenodd" clip-rule="evenodd" d="M50.0547 29.5563C50.1125 29.5106 50.1856 29.5076 50.2495 29.535C50.2738 29.6171 50.2647 29.7054 50.2008 29.7571L48.6822 30.9561C48.6244 31.0018 48.5362 31.0018 48.4601 30.9714C48.4479 30.8922 48.4722 30.804 48.5331 30.7553L50.0547 29.5563ZM50.7486 30.3201C50.6847 30.2927 50.6116 30.2958 50.5538 30.3414L49.0352 31.5404C48.9744 31.5891 48.947 31.6774 48.9622 31.7565C49.0383 31.7869 49.1265 31.7869 49.1844 31.7413L50.7029 30.5423C50.7638 30.4936 50.7729 30.4023 50.7486 30.3201Z" fill="#E2E8F0"/>
<path fill-rule="evenodd" clip-rule="evenodd" d="M48.9742 27.6056C48.8647 27.4656 48.6516 27.4747 48.5147 27.5812C48.3747 27.6908 48.2895 27.919 48.3991 28.059L52.0844 32.7182C52.1939 32.8582 52.4587 32.8521 52.5987 32.7425C52.7387 32.633 52.7722 32.4017 52.6626 32.2647L48.9742 27.6056Z" fill="#332A7C"/>
<path fill-rule="evenodd" clip-rule="evenodd" d="M48.9741 27.6056C48.8646 27.4656 48.6516 27.4747 48.5146 27.5812L48.5055 27.5873C48.4963 27.6573 48.5116 27.7273 48.5542 27.7851L52.4069 32.6543C52.4495 32.706 52.5104 32.7395 52.5803 32.7547C52.5864 32.7516 52.5925 32.7456 52.5956 32.7425C52.7356 32.633 52.769 32.4017 52.6595 32.2647L48.9741 27.6056Z" fill="#473F8B"/>
<path fill-rule="evenodd" clip-rule="evenodd" d="M37.9524 43.5644L37.3681 45.9959L34.9609 45.6216L35.2713 42.9314L37.9524 43.5644Z" fill="#FFA715"/>
<path fill-rule="evenodd" clip-rule="evenodd" d="M35.3139 48.8747C36.3638 49.0512 37.1885 49.0999 38.2963 49.4042C41.3304 50.2381 42.076 49.6538 42.1155 48.753C42.1186 48.7286 42.0942 48.6952 42.0455 48.6495C41.9329 49.3981 41.2512 49.5412 38.4271 48.7652C37.3194 48.4608 36.4916 48.4304 35.4448 48.2387C34.544 48.0713 34.2975 47.7883 34.3097 47.2466C34.0023 47.9252 34.1027 48.6739 35.3139 48.8747Z" fill="#BECDDD"/>
<path fill-rule="evenodd" clip-rule="evenodd" d="M35.4415 48.2356C36.4884 48.4304 37.3161 48.4608 38.4238 48.7651C41.4579 49.599 42.0209 49.3707 42.0605 48.473C42.1061 48.2143 38.8468 46.4705 37.8274 45.0037C37.6996 44.8181 37.0879 44.9154 36.9357 45.1072C36.8109 45.2654 36.7744 45.5241 36.7896 45.6671C36.254 45.7675 35.3867 45.3689 34.9454 45.1832C34.7233 45.0919 34.6107 45.5028 34.5133 45.9988C34.2333 47.4139 34.0112 47.9708 35.4415 48.2356Z" fill="#221E54"/>
<path fill-rule="evenodd" clip-rule="evenodd" d="M24.5497 26.4674C23.6762 28.619 23.9349 31.5739 25.8795 32.779C27.176 33.2386 33.6884 32.4443 37.1668 33.7072C35.5996 35.2471 35.4687 40.5575 34.7079 43.9842C35.5357 44.3311 36.8504 44.6598 38.0129 44.3707C38.2807 39.4985 41.9782 32.5417 41.193 31.1692C39.9057 29.5167 35.2466 27.9921 31.4821 26.8356C29.1723 26.717 26.8595 26.5922 24.5497 26.4674Z" fill="#360E94"/>
<path fill-rule="evenodd" clip-rule="evenodd" d="M40.6544 44.2034L40.4931 46.6988L38.0585 46.7445L37.9033 44.0391L40.6544 44.2034Z" fill="#FFA715"/>
<path fill-rule="evenodd" clip-rule="evenodd" d="M24.5497 26.4674C23.6762 28.619 23.9349 31.5739 25.8795 32.779C27.176 33.2386 34.1571 32.4747 37.6355 33.7377C36.4699 37.0396 37.7207 40.8405 37.5138 44.4528C38.8132 44.7846 39.6958 44.7419 40.8583 44.4528C41.1261 39.5806 42.4438 32.5447 41.6586 31.1722C40.3714 29.5198 35.2435 27.9951 31.4821 26.8387C29.1723 26.717 26.8595 26.5922 24.5497 26.4674Z" fill="#5A1DCD"/>
<path fill-rule="evenodd" clip-rule="evenodd" d="M39.2428 44.6872C39.7693 44.6811 40.2806 44.5989 40.8618 44.4559C41.1296 39.5837 42.4473 32.5478 41.6622 31.1753C40.3749 29.5228 35.2471 27.9982 31.4857 26.8417L26.3213 26.5618C26.0322 28.4333 26.5191 30.4662 28.0499 31.4157C29.3463 31.8752 35.8588 31.1114 39.3372 32.3743C38.2507 35.4632 39.2702 41.0232 39.2428 44.6872Z" fill="#7433EE"/>
<path fill-rule="evenodd" clip-rule="evenodd" d="M30.7361 10.0586C30.4074 9.80295 30.0422 9.78773 28.9375 10.6307C27.8329 11.4737 25.1092 13.8078 25.5322 19.7238C25.3131 21.562 23.9741 23.041 23.5358 24.806C23.3106 25.7159 23.831 26.8906 24.7105 27.271C26.0678 27.8584 29.2814 28.957 32.1512 27.7001C32.7142 26.6867 32.4433 25.6277 32.1755 24.8365C31.4725 22.7762 32.7477 21.8998 33.6728 19.593C34.1232 18.467 34.7075 15.4177 33.5785 12.7853C33.5785 12.7853 33.3685 12.4201 33.2133 12.2893C32.5894 11.7597 31.4999 10.6094 30.7361 10.0586Z" fill="#FB394B"/>
<path fill-rule="evenodd" clip-rule="evenodd" d="M29.2482 28.2782C30.1977 28.2751 31.1928 28.1169 32.1484 27.6999C32.7114 26.6866 32.4405 25.6275 32.1727 24.8363C31.4697 22.776 32.7448 21.8996 33.67 19.5928C34.1204 18.4668 34.7047 15.4175 33.5756 12.7851C33.5756 12.7851 33.3657 12.4199 33.2105 12.2891C32.9274 12.0487 32.547 11.6774 32.1453 11.2939C30.9706 12.2191 28.4691 14.5928 28.8769 20.2806C28.6578 22.1187 27.3188 23.5977 26.8806 25.3628C26.6554 26.2727 27.1757 27.4474 28.0552 27.8278C28.3626 27.9617 28.7704 28.123 29.2482 28.2782Z" fill="#F61D2D"/>
<path fill-rule="evenodd" clip-rule="evenodd" d="M33.8981 12.2009C33.8494 12.7608 33.6577 13.129 33.3747 13.4364L30.9614 9.48022L33.8981 12.2009Z" fill="#360E94"/>
<path fill-rule="evenodd" clip-rule="evenodd" d="M34.8204 10.9075C34.8204 10.9075 32.8971 12.2374 33.5027 13.2508C33.1831 14.322 30.6938 11.0749 30.4473 10.0736C30.4473 10.0736 30.7577 10.1284 30.8794 9.94886C30.8794 9.94886 31.6706 9.03285 31.835 7.86426L32.5684 8.2964L34.8204 10.9075Z" fill="#FCB054"/>
<path fill-rule="evenodd" clip-rule="evenodd" d="M37.0512 7.45042C36.9812 7.96168 37.4651 8.95986 37.4408 9.13028C37.4195 9.29461 36.7165 9.1668 36.6678 9.28548C36.4091 9.89108 36.3817 9.93065 36.0409 11.0627C35.8522 11.6866 33.1924 10.378 32.7998 9.91543C32.3038 9.40721 32.1851 8.99029 32.1456 8.50338C32.1395 8.41816 32.033 8.55207 31.9082 8.45468C30.484 7.34999 30.8887 6.09923 31.2387 5.4845C31.2387 5.4845 32.319 3.21426 34.3397 3.42424C34.3397 3.42424 36.7013 3.29034 36.9569 4.47111C37.599 5.62449 37.2551 6.58615 37.0512 7.45042Z" fill="#FDCB90"/>
<path fill-rule="evenodd" clip-rule="evenodd" d="M37.0993 7.97668C37.2119 8.4636 37.4553 9.00833 37.4401 9.13311C37.4188 9.29744 36.7158 9.16962 36.6671 9.28831C36.4085 9.89391 36.3811 9.93347 36.0402 11.0656C35.8516 11.6894 33.1918 10.3808 32.7992 9.91826C32.3032 9.41004 32.1845 8.99312 32.1449 8.5062C32.1388 8.42099 32.0323 8.55489 31.9075 8.45751C30.7968 7.59628 30.7968 6.64375 31.0189 5.97424C33.0396 7.57498 35.6203 7.9219 37.0993 7.97668Z" fill="#8AC6F4"/>
<path fill-rule="evenodd" clip-rule="evenodd" d="M37.1003 7.97697C37.2129 8.46389 37.4563 9.00862 37.4411 9.1334C37.4198 9.29773 36.7168 9.16991 36.6681 9.2886C36.4216 9.86985 36.3851 9.93072 36.0808 10.9319C35.2226 10.7767 33.7162 9.9855 33.4271 9.6477C32.7363 9.14557 32.7972 8.01653 32.9797 7.12183C34.5166 7.75786 36.0747 7.93741 37.1003 7.97697Z" fill="#B7D9F9"/>
<path fill-rule="evenodd" clip-rule="evenodd" d="M38.877 5.61832C36.8076 5.77961 35.9373 -1.66107 31.059 2.84898C29.3578 2.98897 29.443 6.92386 30.8581 8.22027C30.8581 8.22027 31.3572 9.58667 31.8107 10.1588C31.8289 9.63537 31.978 9.13019 32.0663 8.48503C31.1259 7.849 30.7303 5.79178 32.0024 6.36999C32.0024 6.36999 32.401 7.32861 32.4132 8.03768C32.4132 8.03768 33.2592 5.31704 33.1436 4.70231C33.1436 4.70535 38.2288 7.46555 38.877 5.61832Z" fill="#221E54"/>
<path fill-rule="evenodd" clip-rule="evenodd" d="M40.0304 22.1217C36.9628 21.6074 34.3304 19.5045 32.4102 19.1545C32.0389 18.1198 32.2093 16.9299 31.5215 15.8009L28.7583 16.8691C29.2513 18.1198 30.2038 20.0005 30.779 21.3852C34.1904 22.9068 37.8484 22.706 39.5435 23.6737C40 24.7906 41.4424 23.9689 42.0176 24.3341C42.3219 24.5258 42.4011 24.9214 42.5502 25.2349C42.7571 25.664 42.9914 25.1405 42.9245 24.608C42.8606 24.1028 42.5532 23.5489 42.3037 23.1381C41.8533 22.9038 40.6664 22.2221 40.0304 22.1217Z" fill="#FDCB90"/>
<path fill-rule="evenodd" clip-rule="evenodd" d="M31.7777 15.591L32.2038 17.9861C31.3426 18.6343 30.3657 19.1607 29.1362 19.3129L28.1776 16.6562C25.4783 12.4444 30.3018 8.66772 31.7777 15.591Z" fill="#FFAE2B"/>
<path fill-rule="evenodd" clip-rule="evenodd" d="M30.9466 9.46497L30.2437 10.1923L32.38 14.7389C32.5413 14.0785 32.9034 13.5977 33.3751 13.4394L30.9466 9.46497Z" fill="#7433EE"/>
<path fill-rule="evenodd" clip-rule="evenodd" d="M33.8979 12.2009C33.8066 12.6848 33.6149 13.1017 33.3745 13.4365C33.694 13.6039 33.9679 13.9812 34.0745 14.4773C34.2023 13.7682 34.0836 12.9496 33.8979 12.2009Z" fill="#7433EE"/>
<path d="M7.85155 24.9092H1.58252V25.7704H7.85155V24.9092Z" fill="#7433EE"/>
<path d="M7.85155 26.65H1.58252V27.5113H7.85155V26.65Z" fill="#7433EE"/>
<path fill-rule="evenodd" clip-rule="evenodd" d="M5.29853 33.683H18.144C20.5724 33.683 22.5627 31.6958 22.5627 29.2643V19.6598C22.5627 17.9252 21.1415 16.504 19.4069 16.504H4.03863C2.304 16.504 0.882812 17.9252 0.882812 19.6598V24.602C0.882812 24.7725 1.0228 24.9124 1.19322 24.9124H7.54442C7.71484 24.9124 7.85483 25.0524 7.85483 25.2229V25.4663C7.85483 25.6367 7.71484 25.7767 7.54442 25.7767H1.19322C1.0228 25.7767 0.882812 25.9167 0.882812 26.0871V26.3458C0.882812 26.5162 1.0228 26.6562 1.19322 26.6562H7.54442C7.71484 26.6562 7.85483 26.7962 7.85483 26.9666V27.2009C7.85483 27.3714 7.71484 27.5114 7.54442 27.5114H1.19322C1.0228 27.5114 0.882812 27.6513 0.882812 27.8218V29.2673C0.882813 31.6958 2.87004 33.683 5.29853 33.683Z" fill="#FF8400"/>
<path fill-rule="evenodd" clip-rule="evenodd" d="M22.5627 21.7535V19.6598C22.5627 18.6342 22.0667 17.7182 21.2998 17.14H2.14575C1.37886 17.7182 0.882812 18.6342 0.882812 19.6598V21.7535H22.5627Z" fill="#FF5A1F"/>
<path fill-rule="evenodd" clip-rule="evenodd" d="M20.2407 16.6166C19.976 16.5436 19.696 16.504 19.4069 16.504H4.03863C2.304 16.504 0.882812 17.9252 0.882812 19.6598V24.602C0.882812 24.7725 1.0228 24.9124 1.19322 24.9124H7.54442C7.71484 24.9124 7.85483 25.0524 7.85483 25.2229V25.4663C7.85483 25.6367 7.71484 25.7767 7.54442 25.7767H1.19322C1.0228 25.7767 0.882812 25.9167 0.882812 26.0871V26.3458C0.882812 26.5162 1.0228 26.6562 1.19322 26.6562H7.54442C7.71484 26.6562 7.85483 26.7962 7.85483 26.9666V27.2009C7.85483 27.3714 7.71484 27.5114 7.54442 27.5114H1.19322C1.0228 27.5114 0.882812 27.6513 0.882812 27.8218V29.2673C0.882812 29.9125 1.0228 30.5272 1.27539 31.0841C1.82925 31.3367 2.44398 31.4767 3.09219 31.4767H16.8202C18.7648 31.4767 20.3533 29.8851 20.3533 27.9435V17.4505C20.3533 17.1644 20.3138 16.8844 20.2407 16.6166Z" fill="#FFA000"/>
<path fill-rule="evenodd" clip-rule="evenodd" d="M2.14575 17.14C1.37886 17.7182 0.882812 18.6342 0.882812 19.6598V21.7505H20.3564V17.4504C20.3564 17.3439 20.3503 17.2404 20.3412 17.14H2.14575Z" fill="#FF8400"/>
<path fill-rule="evenodd" clip-rule="evenodd" d="M2.65065 16.504H20.7974C22.2551 16.504 23.448 17.697 23.448 19.1547V20.4298C23.448 20.9167 23.0494 21.3123 22.5655 21.3123H0.882534C0.395619 21.3123 0 20.9137 0 20.4298V19.1547C0 17.697 1.19294 16.504 2.65065 16.504Z" fill="#FFA000"/>
<path fill-rule="evenodd" clip-rule="evenodd" d="M2.65064 16.504H20.3561V21.3154H0.882534C0.395619 21.3154 0 20.9167 0 20.4328V19.1547C0 17.697 1.1899 16.504 2.65064 16.504Z" fill="#FFAE2B"/>
<path fill-rule="evenodd" clip-rule="evenodd" d="M31.4636 8.02559C31.4362 7.80343 31.6706 7.59345 31.7984 7.58736C31.9262 7.58128 32.2153 7.59345 32.2336 7.84299C32.2336 7.84908 32.0175 10.0098 34.8964 10.9653C35.0181 11.0049 35.0851 11.1388 35.0455 11.2605C35.0059 11.3823 34.872 11.4492 34.7503 11.4096C31.5671 10.3506 31.4636 8.03167 31.4636 8.02559Z" fill="#5416CF"/>
<path fill-rule="evenodd" clip-rule="evenodd" d="M31.5005 7.8307C31.5674 7.69375 31.7105 7.59333 31.7987 7.58724C31.9265 7.58116 32.2156 7.59333 32.2339 7.84287C32.2339 7.84896 32.0178 10.0096 34.8967 10.9652C34.9941 10.9956 35.055 11.0839 35.058 11.1813C35.0002 11.2665 34.8937 11.3061 34.7902 11.2726C31.604 10.2166 31.5005 7.89765 31.5005 7.89156C31.5005 7.87026 31.5005 7.84896 31.5005 7.8307Z" fill="#7433EE"/>
<path fill-rule="evenodd" clip-rule="evenodd" d="M35.0519 0.630518C37.5839 1.14787 39.3094 3.38768 39.1724 5.81617C39.1633 5.98354 39.0872 6.12657 38.9472 6.227C38.8103 6.33047 38.649 6.36395 38.4786 6.33047L35.1889 5.66096C34.7354 5.56966 34.3094 5.67313 33.9594 5.9592C33.1682 6.6074 32.6082 7.48081 32.31 8.43638C32.1852 8.82895 31.8809 9.10589 31.464 9.19718C31.0501 9.28848 30.6453 9.16675 30.3532 8.86243C29.2485 7.72122 28.7068 6.10223 29.0416 4.46498C29.5893 1.78086 32.2795 0.0644785 35.0519 0.630518Z" fill="#F61D2D"/>
<path fill-rule="evenodd" clip-rule="evenodd" d="M36.436 1.12047C38.1859 2.03039 39.2815 3.86241 39.1719 5.81616C39.1628 5.98354 39.0867 6.12657 38.9467 6.22699C38.8098 6.33046 38.6454 6.37307 38.478 6.33046L35.3344 5.50879C33.9345 5.14361 32.8694 6.73217 32.4312 7.77904C32.2851 8.13205 32.206 8.60983 31.9747 8.72852C31.6278 8.90807 31.2139 8.69809 30.94 8.41811C29.9144 7.35603 29.4093 5.85268 29.7197 4.33107C30.2279 1.83867 32.7294 0.240979 35.307 0.767456C35.6144 0.82832 36.0009 0.950049 36.436 1.12047Z" fill="#FB394B"/>
<path fill-rule="evenodd" clip-rule="evenodd" d="M34.2788 5.75829L38.7523 7.23425C38.8071 7.25251 38.8619 7.23425 38.8984 7.19469C38.9349 7.15513 38.9349 7.1034 38.9258 7.04862L38.8102 6.30303C38.7067 6.34563 38.5941 6.35172 38.4754 6.33042L35.1857 5.66091C34.8662 5.59396 34.5588 5.62743 34.2788 5.75829Z" fill="#FFAE2B"/>
<path fill-rule="evenodd" clip-rule="evenodd" d="M31.6336 6.36991C31.9379 6.45816 32.1113 6.77466 32.0261 7.07898C31.9379 7.3833 31.6214 7.55677 31.3171 7.47156C31.0127 7.3833 30.8393 7.06681 30.9245 6.76249C31.0127 6.45816 31.3292 6.28166 31.6336 6.36991Z" fill="#5416CF"/>
<path fill-rule="evenodd" clip-rule="evenodd" d="M31.5916 6.29996C31.8959 6.38822 32.0694 6.70471 31.9841 7.00903C31.8959 7.31336 31.5794 7.48682 31.2751 7.40161C30.9708 7.31336 30.7973 6.99686 30.8825 6.69254C30.9708 6.38822 31.2872 6.21171 31.5916 6.29996Z" fill="#7433EE"/>
<path fill-rule="evenodd" clip-rule="evenodd" d="M38.99 49.742C40.0551 49.7542 40.8737 49.6568 42.018 49.7694C45.1495 50.0707 45.7885 49.4164 45.542 48.3361C45.6577 49.2277 45.1434 49.5473 42.0119 49.246C40.8707 49.1364 40.049 49.2308 38.9839 49.2186C38.1318 49.2095 37.8214 49.0025 37.7179 48.54C37.7118 49.2825 37.9096 49.7299 38.99 49.742Z" fill="#F1F3F8"/>
<path fill-rule="evenodd" clip-rule="evenodd" d="M38.9799 49.2216C40.045 49.2338 40.8637 49.1364 42.0079 49.249C45.1394 49.5503 45.6567 49.2307 45.538 48.3391C45.538 48.0774 42.0292 46.9179 40.7724 45.6458C40.6141 45.4845 40.0298 45.6884 39.9111 45.9015C39.8137 46.078 39.8229 46.3427 39.8655 46.4797C39.3542 46.6684 38.4352 46.4097 37.9665 46.3032C37.7322 46.2484 37.6926 46.6775 37.6804 47.1827C37.65 48.616 37.5283 49.2034 38.9799 49.2216Z" fill="#332A7C"/>
</g>
<defs>
<clipPath id="clip0_200_1643">
<rect width="61" height="61" fill="white"/>
</clipPath>
</defs>
</svg>
