<svg width="60" height="60" viewBox="0 0 60 60" fill="none" xmlns="http://www.w3.org/2000/svg">
<g clip-path="url(#clip0_200_1643)">
<path d="M58.0999 53.0896C58.0915 54.3328 57.621 55.5285 56.78 56.4441C55.9389 57.3596 54.7874 57.9297 53.5494 58.0434C52.3113 58.1571 51.0753 57.8063 50.0816 57.0592C49.0878 56.3121 48.4075 55.2221 48.1728 54.0012C48.1125 53.7011 48.0823 53.3957 48.0826 53.0896C48.0802 52.7531 48.1138 52.4173 48.1828 52.0879C48.4289 50.8873 49.1059 49.8183 50.0861 49.0827C50.7978 48.5383 51.6482 48.2051 52.5403 48.1211C52.7225 48.0924 52.9068 48.079 53.0913 48.081C54.1757 48.0767 55.2315 48.4286 56.0964 49.0827C57.0766 49.8183 57.7537 50.8873 57.9997 52.0879C58.0687 52.4173 58.1023 52.7531 58.0999 53.0896Z" fill="#57565C"/>
<path d="M57.9995 52.0881H48.1826C48.4287 50.8875 49.1057 49.8185 50.0859 49.0829H56.0962C57.0764 49.8185 57.7535 50.8875 57.9995 52.0881Z" fill="#3E3D42"/>
<path d="M52.5403 48.1212C52.5072 49.1281 52.0917 50.0845 51.3783 50.7958L50.0861 52.088L48.1728 54.0013C48.1125 53.7012 48.0823 53.3959 48.0826 53.0898C48.0802 52.7532 48.1138 52.4174 48.1828 52.088C48.4289 50.8875 49.1059 49.8185 50.0861 49.0829C50.7978 48.5385 51.6482 48.2052 52.5403 48.1212Z" fill="#3E3D42"/>
<path d="M30.052 53.0896C30.0544 53.4261 30.0209 53.7619 29.9519 54.0913C29.7219 55.2235 29.1077 56.2415 28.2131 56.9726C27.3186 57.7038 26.1988 58.1032 25.0434 58.1032C23.8881 58.1032 22.7682 57.7038 21.8737 56.9726C20.9791 56.2415 20.3649 55.2235 20.135 54.0913C20.066 53.7619 20.0324 53.4261 20.0348 53.0896C20.0354 52.4009 20.1751 51.7195 20.4455 51.0861C20.8369 50.1925 21.4802 49.4323 22.2968 48.8985C23.1134 48.3647 24.0678 48.0804 25.0434 48.0804C26.019 48.0804 26.9734 48.3647 27.79 48.8985C28.6066 49.4323 29.2499 50.1925 29.6413 51.0861C29.9117 51.7195 30.0514 52.4009 30.052 53.0896Z" fill="#57565C"/>
<path d="M30.052 53.0898C30.0544 53.4263 30.0209 53.7621 29.9519 54.0915H20.135C20.066 53.7621 20.0324 53.4263 20.0348 53.0898C20.0354 52.4011 20.1751 51.7197 20.4455 51.0863H29.6413C29.9117 51.7197 30.0514 52.4011 30.052 53.0898Z" fill="#3E3D42"/>
<path d="M38.0656 27.0449L37.7651 27.7461L35.972 31.9633L35.0804 34.0569H28.0483V30.8013C28.0594 28.3589 28.7012 25.9608 29.9115 23.8393L31.0335 21.906V21.896L31.4041 21.2549L31.7748 20.6038L31.7948 20.5737C33.2951 20.8997 34.8275 21.0543 36.3626 21.0345V21.0646L36.9036 22.9779L36.9236 23.038L37.1841 23.9395L38.0656 27.0449Z" fill="#FF5023"/>
<path d="M59.1019 50.0845H50.0864L51.3787 48.7922C51.8947 48.2748 52.2598 47.6263 52.4345 46.9167C52.6093 46.2071 52.5871 45.4632 52.3704 44.7653L51.5289 42.0807C51.8782 42.1004 52.2261 42.1405 52.5707 42.2009C52.9414 42.2705 53.3063 42.3676 53.6626 42.4914C54.8267 42.8898 55.8851 43.5474 56.7579 44.4147C58.2591 45.9197 59.1021 47.9587 59.1019 50.0845Z" fill="#3D9AE2"/>
<path d="M51.3785 48.7923L50.0863 50.0845L48.0828 52.088H45.0776V48.0811L47.0811 42.0707L45.4383 33.0552L45.0776 31.0518H48.0828L48.7039 33.0552L49.6455 36.0604L50.2766 38.0638L51.5287 42.0807L52.3702 44.7654C52.5869 45.4633 52.6091 46.2071 52.4344 46.9167C52.2596 47.6264 51.8945 48.2748 51.3785 48.7923Z" fill="#3D9AE2"/>
<path d="M52.3804 48.7922L51.0881 50.0845H50.0864L51.3787 48.7922C51.8947 48.2748 52.2598 47.6263 52.4345 46.9167C52.6093 46.2071 52.5871 45.4632 52.3704 44.7653L51.5289 42.0807C51.8782 42.1004 52.2261 42.1405 52.5707 42.2009L53.3721 44.7653C53.5888 45.4632 53.611 46.2071 53.4363 46.9167C53.2615 47.6263 52.8964 48.2748 52.3804 48.7922Z" fill="#1E81CE"/>
<path d="M48.7039 33.0552H45.4383L45.0776 31.0518H48.0828L48.7039 33.0552Z" fill="#1E81CE"/>
<path d="M48.0826 31.0517H44.0757V27.0448L50.8473 25.3519C50.9948 25.3154 51.1487 25.313 51.2973 25.3448C51.4459 25.3766 51.5853 25.4417 51.705 25.5354C51.8246 25.629 51.9214 25.7486 51.9881 25.8852C52.0547 26.0217 52.0894 26.1716 52.0895 26.3236V30.05C52.0895 30.3157 51.9839 30.5705 51.7961 30.7583C51.6082 30.9462 51.3534 31.0517 51.0878 31.0517H48.0826Z" fill="#3D9AE2"/>
<path d="M35.0606 38.0638H26.0351C23.3801 38.0638 20.8337 39.1179 18.9554 40.9943C17.077 42.8707 16.0205 45.4161 16.0178 48.0711V48.0811L16.0078 52.088H36.0623V39.0656C36.0623 38.7999 35.9568 38.5451 35.7689 38.3572C35.5811 38.1694 35.3263 38.0638 35.0606 38.0638Z" fill="#3D9AE2"/>
<path d="M31.0535 36.0605C31.0551 36.5913 31.2666 37.1 31.642 37.4754C32.0174 37.8507 32.5261 38.0623 33.0569 38.0639H17.0293C16.4992 38.06 15.9919 37.8476 15.617 37.4728C15.2422 37.0979 15.0298 36.5906 15.0259 36.0605C15.0275 35.5296 15.239 35.0209 15.6144 34.6456C15.9898 34.2702 16.4985 34.0586 17.0293 34.057H31.0535V36.0605Z" fill="#1E81CE"/>
<path d="M45.4882 27.6358C45.6765 27.8195 45.8259 28.0392 45.9274 28.2819C46.029 28.5246 46.0806 28.7852 46.0792 29.0483C46.0776 29.5791 45.866 30.0878 45.4906 30.4632C45.1153 30.8386 44.6066 31.0501 44.0757 31.0517H41.0605L41.0706 27.0448H44.0757C44.3388 27.0434 44.5994 27.095 44.8421 27.1966C45.0848 27.2981 45.3045 27.4475 45.4882 27.6358Z" fill="#FFC477"/>
<path d="M23.0399 12.019H5.00882C3.90235 12.019 3.00537 12.916 3.00537 14.0225V32.0535C3.00537 33.16 3.90235 34.057 5.00882 34.057H23.0399C24.1463 34.057 25.0433 33.16 25.0433 32.0535V14.0225C25.0433 12.916 24.1463 12.019 23.0399 12.019Z" fill="#FFA733"/>
<path d="M40.069 38.0639V44.0742H36.0621V39.0656C36.0621 38.8 35.9566 38.5452 35.7687 38.3573C35.5809 38.1694 35.3261 38.0639 35.0604 38.0639H30.0518C29.5209 38.0623 29.0123 37.8507 28.6369 37.4754C28.2615 37.1 28.0499 36.5913 28.0483 36.0605V34.057H36.0621C37.1248 34.057 38.144 34.4792 38.8954 35.2306C39.6469 35.982 40.069 37.0012 40.069 38.0639Z" fill="#57565C"/>
<path d="M45.077 48.0811V52.088H36.0615V48.0811H40.0684H41.0701H45.077Z" fill="#3D9AE2"/>
<path d="M42.0719 46.0777V48.0811H36.0615V44.0742H40.0684C40.5993 44.0758 41.1079 44.2874 41.4833 44.6628C41.8587 45.0381 42.0703 45.5468 42.0719 46.0777Z" fill="#3E3D42"/>
<path d="M36.0623 48.0811V52.088H29.9517H20.1348H20.0347V48.0811H36.0623Z" fill="#E6E7E8"/>
<path d="M36.0623 44.0742V48.0811H20.0347C20.0347 47.0184 20.4568 45.9993 21.2083 45.2478C21.9597 44.4964 22.9789 44.0742 24.0416 44.0742H36.0623Z" fill="#1E81CE"/>
<path d="M37.7651 27.746L35.972 31.9633L32.5962 28.5875C32.3996 28.3917 32.2436 28.1591 32.137 27.903C32.0304 27.6469 31.9754 27.3723 31.9751 27.0949C31.9756 26.8041 32.0354 26.5164 32.1508 26.2495C32.2662 25.9825 32.4348 25.7419 32.6463 25.5422C33.0467 25.1622 33.5799 24.9536 34.1319 24.9611C34.684 24.9686 35.2113 25.1915 35.6013 25.5823L37.7651 27.746Z" fill="#ED1C24"/>
<path d="M41.0708 27.0448L41.0607 31.0517H36.0621L32.5962 27.5858C32.3996 27.39 32.2436 27.1574 32.137 26.9013C32.0304 26.6452 31.9754 26.3706 31.9751 26.0932C31.9756 25.8024 32.0354 25.5147 32.1508 25.2477C32.2662 24.9808 32.4348 24.7402 32.6463 24.5405C33.0467 24.1605 33.5799 23.9519 34.1319 23.9594C34.684 23.9669 35.2113 24.1898 35.6013 24.5806L38.0656 27.0448H41.0708Z" fill="#FF6243"/>
<path d="M36.9038 22.9779C36.6251 23.0182 36.3439 23.0383 36.0623 23.038C34.342 23.043 32.6815 22.4074 31.4043 21.2549L31.7749 20.6038L31.795 20.5737C33.2953 20.8997 34.8277 21.0543 36.3628 21.0345V21.0646L36.9038 22.9779Z" fill="#ED1C24"/>
<path d="M34.0586 13.0208H41.0707V17.0276C41.0707 18.0903 40.6485 19.1095 39.8971 19.861C39.1456 20.6124 38.1265 21.0345 37.0638 21.0345H34.0586V13.0208Z" fill="#FFC477"/>
<path d="M35.0607 21.0346V21.9562C33.8699 21.7891 32.7439 21.3125 31.7951 20.5738C30.884 19.8745 30.1588 18.9619 29.6834 17.9164C29.208 16.8709 28.997 15.7245 29.0689 14.5782C29.1409 13.4319 29.4935 12.3209 30.0959 11.343C30.6983 10.3651 31.5318 9.55032 32.5232 8.9704C33.5146 8.39047 34.6333 8.0632 35.7809 8.01741C36.9286 7.97162 38.0698 8.20871 39.1043 8.7078C40.1387 9.20689 41.0345 9.95267 41.7129 10.8795C42.3912 11.8063 42.8313 12.8856 42.9944 14.0225H35.0607V21.0346Z" fill="#787680"/>
<path d="M35.0605 14.0225H41.0709V16.0259H35.0605V14.0225Z" fill="#FFB655"/>
<path d="M10.0171 23.038H22.0378V27.0449H10.0171V23.038Z" fill="#EE8700"/>
<path d="M8.01416 21.0347H20.0348V25.0416H8.01416V21.0347Z" fill="#E6E7E8"/>
<path d="M8.01344 20.0328C7.74777 20.0328 7.49298 20.1384 7.30512 20.3262C7.11726 20.5141 7.01172 20.7689 7.01172 21.0346V25.0415C7.01172 25.3071 7.11726 25.5619 7.30512 25.7498C7.49298 25.9376 7.74777 26.0432 8.01344 26.0432H20.0341C20.2998 26.0432 20.5546 25.9376 20.7425 25.7498C20.9303 25.5619 21.0359 25.3071 21.0359 25.0415V21.0346C21.0359 20.7689 20.9303 20.5141 20.7425 20.3262C20.5546 20.1384 20.2998 20.0328 20.0341 20.0328H8.01344ZM19.0324 24.0397H9.01517V22.0363H19.0324V24.0397Z" fill="black"/>
<path d="M57.4589 43.7036C56.061 42.3106 54.2456 41.4135 52.29 41.1492L51.2281 37.7633L49.3148 38.3644L51.4085 45.0659C51.5746 45.588 51.5933 46.1459 51.4625 46.6779C51.3317 47.21 51.0565 47.6956 50.6672 48.0811L47.672 51.0863H46.0793V48.2414L48.0326 42.3913C48.0827 42.2292 48.093 42.0574 48.0627 41.8904L46.2796 32.0535H47.3414L48.6938 36.3609L50.6071 35.7599L49.4451 32.0535H51.0879C51.6188 32.0519 52.1274 31.8403 52.5028 31.465C52.8782 31.0896 53.0898 30.5809 53.0913 30.0501V26.3237C53.0915 26.0187 53.022 25.7177 52.8882 25.4437C52.7544 25.1696 52.5598 24.9297 52.3192 24.7423C52.0786 24.5549 51.7985 24.4248 51.5 24.3621C51.2016 24.2994 50.8927 24.3056 50.5971 24.3803L43.9556 26.0432H38.8268L37.6648 21.9762C38.8768 21.8312 39.9939 21.2481 40.8057 20.3366C41.6176 19.4251 42.0681 18.2482 42.0724 17.0276V15.0242H42.994C43.1374 15.0242 43.2791 14.9934 43.4095 14.9339C43.54 14.8744 43.6561 14.7876 43.7502 14.6793C43.8442 14.571 43.9138 14.4439 43.9545 14.3063C43.9951 14.1688 44.0057 14.0242 43.9857 13.8822C43.813 12.6727 43.3661 11.5186 42.6791 10.5083C41.9921 9.49795 41.0831 8.65808 40.0217 8.05289C38.9603 7.4477 37.7746 7.09321 36.5552 7.01653C35.3358 6.93985 34.1151 7.14301 32.9862 7.61047C31.8574 8.07793 30.8504 8.79731 30.0422 9.71363C29.234 10.6299 28.646 11.7189 28.3232 12.8973C28.0004 14.0757 27.9514 15.3123 28.1797 16.5126C28.4081 17.7128 28.908 18.845 29.641 19.8225C29.9047 20.1694 30.1961 20.4944 30.5125 20.7941L29.04 23.3485C27.7457 25.6201 27.0591 28.187 27.0465 30.8014V33.0552H25.8645C25.9811 32.734 26.0421 32.3952 26.0448 32.0535V18.0294H24.0413V32.0535C24.0413 32.3192 23.9358 32.574 23.748 32.7618C23.5601 32.9497 23.3053 33.0552 23.0396 33.0552H5.00859C4.74292 33.0552 4.48812 32.9497 4.30026 32.7618C4.1124 32.574 4.00687 32.3192 4.00687 32.0535V30.0501H2.00342V32.0535C2.0058 32.8498 2.32318 33.6128 2.88624 34.1759C3.4493 34.7389 4.2123 35.0563 5.00859 35.0587H14.2044C14.0395 35.5113 13.9866 35.997 14.0502 36.4744C14.1138 36.9519 14.2919 37.4069 14.5694 37.8006C14.847 38.1942 15.2157 38.5149 15.644 38.7352C16.0723 38.9555 16.5476 39.0688 17.0293 39.0656H19.7139C18.4038 39.9838 17.3095 41.1764 16.5068 42.5603C15.7041 43.9442 15.2124 45.4863 15.0659 47.0794H10.0172V49.0828H15.0158L15.0058 52.088C15.0045 52.2199 15.0295 52.3508 15.0793 52.4729C15.1292 52.5951 15.2029 52.706 15.2962 52.7993C15.3895 52.8926 15.5005 52.9663 15.6226 53.0162C15.7447 53.0661 15.8756 53.0911 16.0075 53.0897H19.0327C19.0327 54.6838 19.666 56.2125 20.7931 57.3397C21.9203 58.4668 23.449 59.1001 25.0431 59.1001C26.6371 59.1001 28.1659 58.4668 29.293 57.3397C30.4202 56.2125 31.0534 54.6838 31.0534 53.0897H47.081C47.0834 54.683 47.7174 56.2104 48.844 57.337C49.9707 58.4637 51.498 59.0977 53.0913 59.1001C54.6854 59.1001 56.2141 58.4668 57.3413 57.3397C58.4685 56.2125 59.1017 54.6838 59.1017 53.0897C59.1026 52.4066 58.9839 51.7285 58.7511 51.0863H59.1017C59.3674 51.0863 59.6222 50.9807 59.81 50.7929C59.9979 50.605 60.1034 50.3502 60.1034 50.0845C60.1069 48.8988 59.875 47.7242 59.421 46.6289C58.967 45.5335 58.3001 44.5392 57.4589 43.7036ZM51.0879 26.3237V30.0501H46.9007C47.0578 29.6232 47.1134 29.1656 47.063 28.7135C47.0125 28.2614 46.8575 27.8273 46.6102 27.4456L51.0879 26.3237ZM42.0724 28.0466H44.0758C44.3415 28.0466 44.5963 28.1522 44.7842 28.34C44.972 28.5279 45.0776 28.7827 45.0776 29.0483C45.0776 29.314 44.972 29.5688 44.7842 29.7567C44.5963 29.9445 44.3415 30.0501 44.0758 30.0501H42.0624L42.0724 28.0466ZM38.0655 28.0466H40.0689L40.0589 30.0501H36.4727L33.3073 26.8846C33.0961 26.6734 32.9774 26.3869 32.9774 26.0882C32.9774 25.7895 33.0961 25.5031 33.3073 25.2919C33.5185 25.0807 33.805 24.962 34.1037 24.962C34.4024 24.962 34.6888 25.0807 34.9 25.2919L37.3543 27.7561C37.5453 27.9406 37.7999 28.0446 38.0655 28.0466ZM40.0689 17.0276C40.0666 17.8239 39.7492 18.5869 39.1861 19.15C38.623 19.7131 37.8601 20.0304 37.0638 20.0328H36.062V15.0242H37.0638V17.0276H39.0672V15.0242H40.0689V17.0276ZM30.1218 14.1126C30.3233 12.8515 30.9179 11.6862 31.821 10.7832C32.7241 9.88011 33.8893 9.28542 35.1505 9.08398C35.4519 9.03539 35.7568 9.01193 36.062 9.01386C37.3047 9.0113 38.5173 9.39573 39.5316 10.1138C40.5458 10.8318 41.3113 11.8478 41.7218 13.0208H35.0603C34.7946 13.0208 34.5398 13.1263 34.352 13.3141C34.1641 13.502 34.0586 13.7568 34.0586 14.0225V20.6839C32.9342 20.2947 31.9533 19.5756 31.2437 18.6204C30.7662 17.9815 30.421 17.2537 30.2284 16.4796C30.0357 15.7056 29.9995 14.9009 30.1218 14.1126ZM29.05 30.8114C29.063 28.5414 29.6598 26.3129 30.783 24.3402L32.1253 21.9962C32.9888 22.4861 33.937 22.809 34.9201 22.9478C34.9663 22.9562 35.0133 22.9595 35.0603 22.9579C35.3034 22.9554 35.5378 22.8667 35.7215 22.7074C35.7415 22.6874 35.7515 22.6573 35.7715 22.6373L36.062 23.6691C35.4419 23.1621 34.6503 22.9133 33.8516 22.9743C33.0529 23.0353 32.3084 23.4014 31.7724 23.9966C31.2364 24.5919 30.9501 25.3707 30.9729 26.1714C30.9957 26.9721 31.3258 27.7333 31.8949 28.297L35.0904 31.5026L34.4192 33.0552H29.05V30.8114ZM17.0293 37.0621C16.7636 37.0621 16.5088 36.9566 16.321 36.7687C16.1331 36.5809 16.0276 36.3261 16.0276 36.0604C16.0276 35.7947 16.1331 35.5399 16.321 35.3521C16.5088 35.1642 16.7636 35.0587 17.0293 35.0587H27.0465V36.0604C27.0492 36.4021 27.1102 36.7409 27.2268 37.0621H17.0293ZM25.0431 57.0966C23.9804 57.0966 22.9612 56.6745 22.2098 55.923C21.4583 55.1716 21.0362 54.1524 21.0362 53.0897H24.0413V54.0914H26.0448V53.0897H29.05C29.05 54.1524 28.6278 55.1716 27.8764 55.923C27.1249 56.6745 26.1058 57.0966 25.0431 57.0966ZM35.0603 51.0863H21.0362V49.0828H35.0603V51.0863ZM35.0603 43.0725H28.0482V45.0759H35.0603V47.0794H21.2165C21.4244 46.4956 21.8071 45.9901 22.3126 45.6316C22.8181 45.2732 23.4217 45.0791 24.0413 45.0759H26.0448V43.0725H24.0413C22.713 43.0725 21.439 43.6002 20.4997 44.5395C19.5604 45.4788 19.0327 46.7527 19.0327 48.0811V51.0863H17.0092L17.0193 48.0711C17.0232 45.6822 17.9747 43.3924 19.6648 41.7041C21.355 40.0158 23.6459 39.0669 26.0348 39.0656H35.0603V43.0725ZM35.0603 37.0621H30.0517C29.786 37.0621 29.5312 36.9566 29.3434 36.7687C29.1555 36.5809 29.05 36.3261 29.05 36.0604V35.0587H36.062C36.8583 35.0611 37.6213 35.3784 38.1844 35.9415C38.7475 36.5046 39.0648 37.2676 39.0672 38.0639V43.0725H37.0638V39.0656C37.0622 38.5347 36.8506 38.0261 36.4752 37.6507C36.0998 37.2753 35.5912 37.0637 35.0603 37.0621ZM40.0689 45.0759C40.3346 45.0759 40.5894 45.1815 40.7773 45.3693C40.9651 45.5572 41.0707 45.812 41.0707 46.0776V47.0794H37.0638V45.0759H40.0689ZM44.0758 51.0863H37.0638V49.0828H44.0758V51.0863ZM44.3563 47.0794H43.0741V46.0776C43.0724 45.4564 42.8791 44.8508 42.5205 44.3435C42.162 43.8362 41.6557 43.4518 41.0707 43.2428V38.0639C41.065 36.8296 40.6038 35.6409 39.7756 34.7258C38.9474 33.8107 37.8105 33.2337 36.5829 33.1053L37.0337 32.0535H44.2461L46.0492 42.0006L44.3563 47.0794ZM53.0913 57.0966C52.0287 57.0966 51.0095 56.6745 50.258 55.923C49.5066 55.1716 49.0845 54.1524 49.0845 53.0897C49.0913 52.8679 49.1148 52.6469 49.1546 52.4286L50.4969 51.0863H56.5573C56.9129 51.694 57.0997 52.3856 57.0982 53.0897C57.0982 54.1524 56.6761 55.1716 55.9247 55.923C55.1732 56.6745 54.154 57.0966 53.0913 57.0966ZM52.4502 49.0828C52.9627 48.4434 53.3102 47.6878 53.4621 46.8826C53.6141 46.0773 53.5659 45.2471 53.3217 44.4649L52.9711 43.3329C54.2837 43.6927 55.4622 44.4289 56.3611 45.4507C57.2601 46.4725 57.8402 47.7351 58.0299 49.0828H52.4502Z" fill="black"/>
<path d="M52.0894 52.088H54.0928V54.0915H52.0894V52.088Z" fill="black"/>
<path d="M4.00687 14.0224C4.00687 13.7567 4.1124 13.5019 4.30026 13.3141C4.48812 13.1262 4.74292 13.0207 5.00859 13.0207H23.0396C23.3053 13.0207 23.5601 13.1262 23.748 13.3141C23.9358 13.5019 24.0413 13.7567 24.0413 14.0224V16.0258H26.0448V14.0224C26.0448 13.2254 25.7282 12.461 25.1646 11.8974C24.601 11.3338 23.8366 11.0172 23.0396 11.0172H5.00859C4.21157 11.0172 3.44719 11.3338 2.88361 11.8974C2.32003 12.461 2.00342 13.2254 2.00342 14.0224V28.0465H4.00687V14.0224Z" fill="black"/>
<path d="M4.00684 51.0863H13.0224V53.0898H4.00684V51.0863Z" fill="black"/>
<path d="M0 51.0863H2.00345V53.0898H0V51.0863Z" fill="black"/>
<path d="M12.0205 55.0931H18.0309V57.0966H12.0205V55.0931Z" fill="black"/>
<path d="M8.01416 55.0931H10.0176V57.0966H8.01416V55.0931Z" fill="black"/>
<path d="M6.00977 47.0793H8.01321V49.0828H6.00977V47.0793Z" fill="black"/>
<path d="M4.00684 55.0931H6.01028V57.0966H4.00684V55.0931Z" fill="black"/>
<path d="M10.0171 1H19.0326V3.00345H10.0171V1Z" fill="black"/>
<path d="M6.00977 1H8.01321V3.00345H6.00977V1Z" fill="black"/>
<path d="M18.0312 5.00696H24.0416V7.01041H18.0312V5.00696Z" fill="black"/>
<path d="M14.0239 5.00696H16.0274V7.01041H14.0239V5.00696Z" fill="black"/>
<path d="M10.0171 5.00696H12.0205V7.01041H10.0171V5.00696Z" fill="black"/>
</g>
<defs>
<clipPath id="clip0_200_1643">
<rect width="60" height="60" fill="white"/>
</clipPath>
</defs>
</svg>
