<svg width="60" height="60" viewBox="0 0 60 60" fill="none" xmlns="http://www.w3.org/2000/svg">
<g clip-path="url(#clip0_200_1995)">
<path d="M16.3467 60H44.4584C44.897 60 45.2528 59.6444 45.2528 59.2062V4.03247C45.2528 3.5942 44.897 3.23865 44.4584 3.23865H16.3467C15.9081 3.23865 15.5522 3.5942 15.5522 4.03247V59.2062C15.5522 59.6449 15.9076 60 16.3467 60Z" fill="#8D0000"/>
<path d="M45.2528 4.05666V56.6075C45.2528 57.7699 44.3103 58.7132 43.1455 58.7132H17.6605C16.4958 58.7132 15.5532 57.7699 15.5532 56.6075V4.05666C15.5532 3.79737 15.6007 3.54824 15.6868 3.31895C15.9192 2.69783 16.4367 2.21553 17.0816 2.03316C17.265 1.97947 17.4606 1.95093 17.6605 1.95093H43.1455C43.4422 1.95093 43.7245 2.01236 43.9815 2.12411C44.409 2.30745 44.7639 2.63107 44.9885 3.03548C45.1565 3.33782 45.2528 3.68563 45.2528 4.05666Z" fill="url(#paint0_linear_200_1995)"/>
<path d="M30.4025 57.7066C31.1752 57.7066 31.8016 57.0806 31.8016 56.3085C31.8016 55.5364 31.1752 54.9105 30.4025 54.9105C29.6298 54.9105 29.0034 55.5364 29.0034 56.3085C29.0034 57.0806 29.6298 57.7066 30.4025 57.7066Z" fill="url(#paint1_linear_200_1995)"/>
<path d="M18.8535 54.1743H41.9523C42.3909 54.1743 42.7467 53.8187 42.7467 53.3805V7.28369C42.7467 6.84542 42.3909 6.48987 41.9523 6.48987H18.8535C18.4149 6.48987 18.0591 6.84542 18.0591 7.28369V53.3805C18.0591 53.8187 18.4144 54.1743 18.8535 54.1743Z" fill="url(#paint2_linear_200_1995)"/>
<path d="M39.9948 10.5117H20.8096V11.9644H39.9948V10.5117Z" fill="url(#paint3_linear_200_1995)"/>
<path d="M39.9948 12.8259H20.8096V14.2786H39.9948V12.8259Z" fill="url(#paint4_linear_200_1995)"/>
<path d="M39.9948 45.3422H20.8096V46.7948H39.9948V45.3422Z" fill="url(#paint5_linear_200_1995)"/>
<path d="M39.9948 47.6564H20.8096V49.1091H39.9948V47.6564Z" fill="url(#paint6_linear_200_1995)"/>
<path d="M39.9948 49.9706H20.8096V51.4233H39.9948V49.9706Z" fill="url(#paint7_linear_200_1995)"/>
<path d="M45.2528 4.05666V8.57916C45.1628 8.59174 45.0703 8.59851 44.9769 8.59851C44.0164 8.59851 43.2365 7.90289 43.2365 7.04425C43.2365 7.90289 42.4876 8.59851 41.5644 8.59851C40.6412 8.59851 39.8923 7.90289 39.8923 7.04425C39.8923 7.90289 39.0461 8.59851 38.0033 8.59851C36.9591 8.59851 36.1128 7.90289 36.1128 7.04425C36.1128 7.90289 35.1345 8.59851 34.0723 8.59851C33.0271 8.59851 32.0638 7.92369 32.0357 7.08295L32.0318 7.20872H32.0226C31.9287 7.99045 31.1803 8.59851 30.2696 8.59851C29.359 8.59851 28.6106 7.99045 28.5167 7.20872C28.5143 7.20872 28.5143 7.20872 28.5128 7.20872C28.4179 7.99045 27.6487 8.59851 26.7289 8.59851C25.7466 8.59851 24.9619 7.90289 24.9619 7.04425H24.9517C24.9517 7.90289 24.1055 8.59851 23.0613 8.59851C22.0185 8.59851 21.1723 7.90289 21.1723 7.04425C21.1723 7.90289 20.4234 8.59851 19.5002 8.59851C18.577 8.59851 17.8281 7.90289 17.8281 7.04425C17.8281 7.90289 17.0486 8.59851 16.0877 8.59851C15.9013 8.59851 15.7217 8.57287 15.5532 8.52256V4.05666C15.5532 3.79737 15.6007 3.54824 15.6868 3.31895L17.0816 2.03316L18.1708 1.02698L35.0086 1.0323H37.7787L37.7801 1.03617H40.359L40.3565 1.0323H42.247L42.2509 1.03762H42.7839L43.982 2.12459L44.989 3.03596C45.1565 3.33781 45.2528 3.68562 45.2528 4.05666Z" fill="url(#paint8_linear_200_1995)"/>
<path d="M26.7866 3.82691H31.4762C31.5377 3.82691 31.588 3.77708 31.588 3.71516V2.976C31.588 2.91457 31.5382 2.86426 31.4762 2.86426H26.7866C26.7252 2.86426 26.6748 2.91408 26.6748 2.976V3.71564C26.6753 3.77708 26.7252 3.82691 26.7866 3.82691Z" fill="url(#paint9_linear_200_1995)"/>
<path d="M12.8673 7.57196C12.1247 7.57196 11.5225 6.87586 11.5225 6.0177H14.2117C14.2117 6.87586 13.6099 7.57196 12.8673 7.57196Z" fill="url(#paint10_linear_200_1995)"/>
<path d="M18.0415 0L11.5225 6.01775H37.1236C37.0611 4.02909 36.9875 2.01092 36.8133 0.00532117L18.0415 0Z" fill="url(#paint11_linear_200_1995)"/>
<path d="M42.6545 0.00962086L34.2358 0.00720215C34.5307 1.98958 34.8352 3.98405 35.0583 6.0177H49.2819L42.6545 0.00962086Z" fill="url(#paint12_linear_200_1995)"/>
<path d="M47.9391 7.57196C48.6817 7.57196 49.2825 6.87634 49.2825 6.0177H46.5942C46.5942 6.87586 47.1965 7.57196 47.9391 7.57196Z" fill="url(#paint13_linear_200_1995)"/>
<path d="M44.8473 7.57196C45.8078 7.57196 46.5867 6.87634 46.5867 6.0177H43.1084C43.1084 6.87586 43.8868 7.57196 44.8473 7.57196Z" fill="url(#paint14_linear_200_1995)"/>
<path d="M41.4363 7.57196C42.36 7.57196 43.1084 6.87634 43.1084 6.0177H39.7642C39.7642 6.87586 40.5126 7.57196 41.4363 7.57196Z" fill="url(#paint15_linear_200_1995)"/>
<path d="M37.8743 7.57196C38.9181 7.57196 39.7638 6.87634 39.7638 6.0177H35.9849C35.9849 6.87586 36.8306 7.57196 37.8743 7.57196Z" fill="url(#paint16_linear_200_1995)"/>
<path d="M33.9438 7.57196C35.0055 7.57196 35.9844 6.87634 35.9844 6.0177H31.9033C31.9033 6.87586 32.8822 7.57196 33.9438 7.57196Z" fill="url(#paint17_linear_200_1995)"/>
<path d="M35.974 6.0178L34.8794 0.00488281H37.649L39.7641 6.0178H35.974Z" fill="white"/>
<path d="M43.1148 6.0178L40.2275 0.00488281H42.118L46.5941 6.0178H43.1148Z" fill="white"/>
<path d="M15.9591 7.57196C14.9987 7.57196 14.2197 6.87634 14.2197 6.0177H17.698C17.6985 6.87586 16.9196 7.57196 15.9591 7.57196Z" fill="url(#paint18_linear_200_1995)"/>
<path d="M19.3704 7.57196C18.4467 7.57196 17.6982 6.87634 17.6982 6.0177H21.0425C21.0425 6.87586 20.2935 7.57196 19.3704 7.57196Z" fill="url(#paint19_linear_200_1995)"/>
<path d="M22.932 7.57196C21.8882 7.57196 21.0425 6.87634 21.0425 6.0177H24.8219C24.8219 6.87586 23.9757 7.57196 22.932 7.57196Z" fill="url(#paint20_linear_200_1995)"/>
<path d="M31.9032 6.1813L32.0392 0.00488281H28.9618L28.3784 6.1813C28.3784 6.1813 31.4966 6.23839 31.9032 6.1813Z" fill="white"/>
<path d="M24.8326 6.0178L25.9271 0.00488281H23.1571L21.0425 6.0178H24.8326Z" fill="white"/>
<path d="M17.6917 6.0178L20.5789 0.00488281H18.6885L14.2119 6.0178H17.6917Z" fill="white"/>
<path d="M30.1411 7.57196C29.1675 7.57196 28.3784 6.87634 28.3784 6.0177H31.9032C31.9032 6.87586 31.1141 7.57196 30.1411 7.57196Z" fill="url(#paint21_linear_200_1995)"/>
<path d="M26.6005 7.57196C25.6182 7.57196 24.833 6.87634 24.833 6.0177H28.3941C28.3941 6.87586 27.5823 7.57196 26.6005 7.57196Z" fill="url(#paint22_linear_200_1995)"/>
<path d="M25.9038 21.0582C25.9038 21.0582 26.5714 25.2721 30.9492 25.1696C35.2195 25.0694 35.7172 21.0582 35.7172 21.0582H25.9038Z" fill="#0447BC"/>
<path d="M33.2873 21.0582C33.0743 21.8999 32.7306 22.6904 32.1196 23.3236C31.0619 24.4202 29.5137 24.5847 28.0415 24.4033C28.7565 24.8774 29.702 25.1991 30.9491 25.17C35.2194 25.0699 35.717 21.0587 35.717 21.0587H33.2873V21.0582Z" fill="#DEDFE3"/>
<path d="M35.7177 21.0583C35.7177 21.5585 33.5208 21.9643 30.8112 21.9643C28.1012 21.9643 25.9048 21.5589 25.9048 21.0583C25.9048 20.5581 28.1017 20.1522 30.8112 20.1522C33.5208 20.1522 35.7177 20.5581 35.7177 21.0583Z" fill="white"/>
<path d="M35.4762 21.0578C35.4762 21.2547 35.0657 21.4337 34.3855 21.5715C34.1439 21.6209 33.8694 21.6649 33.5674 21.7026C33.38 21.7273 33.181 21.7486 32.9724 21.7684H32.9709C32.9283 21.7718 32.8872 21.7752 32.8427 21.78C32.8427 21.78 32.8427 21.78 32.8412 21.78C32.7541 21.7868 32.6669 21.7931 32.5769 21.7999C32.5522 21.8013 32.526 21.8032 32.4999 21.8047C32.4786 21.8061 32.4573 21.8081 32.4341 21.8095C32.3866 21.8129 32.3387 21.8144 32.2893 21.8177C32.148 21.826 32.0037 21.8327 31.8556 21.839C31.8376 21.839 31.8192 21.8405 31.7999 21.8405C31.6929 21.8439 31.583 21.8473 31.4731 21.8502C31.4039 21.8516 31.3351 21.8535 31.2645 21.855H31.1657C31.1459 21.8564 31.1279 21.8564 31.1081 21.8564C31.0093 21.8579 30.9111 21.8579 30.8108 21.8579C30.4938 21.8579 30.1849 21.8531 29.8857 21.8415C29.8315 21.84 29.7773 21.8381 29.7245 21.8366C29.3648 21.8216 29.0196 21.7989 28.6977 21.7708C28.6483 21.7674 28.6009 21.7626 28.553 21.7578C28.5234 21.7563 28.4939 21.7529 28.4644 21.7495H28.4561C28.4445 21.7481 28.4329 21.7462 28.4218 21.7462C28.4102 21.7447 28.4005 21.7428 28.3908 21.7428C28.3859 21.7413 28.3792 21.7413 28.3743 21.7413C28.3729 21.7413 28.3729 21.7413 28.3729 21.7413C28.3187 21.7345 28.2659 21.7283 28.2136 21.7215C28.1676 21.7166 28.1216 21.7118 28.0771 21.705H28.0689C27.9638 21.692 27.8617 21.677 27.7648 21.6639C27.7416 21.6605 27.7203 21.6571 27.699 21.6523C27.6119 21.6392 27.5281 21.6262 27.4477 21.6112C27.3969 21.6015 27.3461 21.5933 27.2967 21.5831C27.2754 21.5783 27.2556 21.5749 27.2343 21.5701C27.0895 21.5406 26.9583 21.5091 26.8402 21.4767C26.3982 21.3553 26.1436 21.2126 26.1436 21.0563C26.1436 20.8299 26.6906 20.6263 27.5712 20.4817C27.6516 20.4686 27.7339 20.4555 27.8191 20.4425C27.8897 20.4328 27.9619 20.4226 28.0359 20.4144H28.0374C28.0374 20.413 28.0388 20.413 28.0388 20.413C28.1637 20.3965 28.2935 20.382 28.4281 20.3685C28.5578 20.3554 28.6909 20.3438 28.8289 20.3322C28.8817 20.3273 28.9359 20.324 28.9916 20.3191C28.993 20.3177 28.993 20.3191 28.993 20.3191C29.0046 20.3191 29.0177 20.3177 29.0308 20.3157C29.07 20.3143 29.1097 20.3109 29.1508 20.3075H29.1523C29.3033 20.2978 29.4597 20.2896 29.619 20.2828C29.9574 20.2678 30.3108 20.2582 30.6753 20.2582C30.7198 20.2567 30.7639 20.2567 30.8099 20.2567C30.8738 20.2567 30.9382 20.2567 31.0006 20.2582C31.0878 20.2582 31.1749 20.2582 31.2601 20.2596C31.2979 20.2611 31.3342 20.2611 31.37 20.2611C31.4784 20.2645 31.5869 20.2678 31.6919 20.2707C31.8773 20.2756 32.0584 20.2838 32.2356 20.294C32.4408 20.3056 32.6398 20.3186 32.8305 20.3351H32.832C32.9734 20.3467 33.1099 20.3598 33.2425 20.3728C33.366 20.3859 33.4855 20.4009 33.6022 20.4154C33.9522 20.4599 34.2625 20.5121 34.5274 20.5731C35.1233 20.71 35.4762 20.8759 35.4762 21.0578Z" fill="#E6E6F9"/>
<path d="M34.3856 21.572C34.1441 21.6213 33.8696 21.6654 33.5675 21.7031C33.3801 21.7278 33.1812 21.749 32.9725 21.7689H32.9711C32.9285 21.7723 32.8873 21.7757 32.8428 21.7805C32.8428 21.7805 32.8428 21.7805 32.8413 21.7805C32.7542 21.7873 32.667 21.7936 32.577 21.8003C32.5523 21.8018 32.5262 21.8037 32.5 21.8052C32.4787 21.8066 32.4574 21.8085 32.4342 21.81C32.3867 21.8134 32.3388 21.8148 32.2894 21.8182C32.1481 21.8264 32.0038 21.8332 31.8557 21.8395C31.8378 21.8395 31.8194 21.841 31.8 21.841C31.693 21.8443 31.5831 21.8477 31.4732 21.8506C31.404 21.8521 31.3353 21.854 31.2646 21.8555H31.1658C31.146 21.8569 31.1281 21.8569 31.1082 21.8569C31.0095 21.8584 30.9112 21.8584 30.811 21.8584C30.4939 21.8584 30.185 21.8535 29.8858 21.8419C29.8316 21.8405 29.7774 21.8385 29.7246 21.8371C29.3649 21.8221 29.0198 21.7994 28.6978 21.7713C28.6485 21.7679 28.601 21.7631 28.5531 21.7582C28.5236 21.7568 28.494 21.7534 28.4645 21.75H28.4563C28.4446 21.7486 28.433 21.7466 28.4219 21.7466C28.4103 21.7452 28.4006 21.7432 28.3909 21.7432C28.3861 21.7418 28.3793 21.7418 28.3745 21.7418C28.373 21.7418 28.373 21.7418 28.373 21.7418C28.3188 21.735 28.266 21.7287 28.2137 21.722C28.1677 21.7171 28.1217 21.7123 28.0772 21.7055H28.069C27.9639 21.6924 27.8618 21.6775 27.765 21.6644C27.7417 21.661 27.7204 21.6576 27.6991 21.6528C27.612 21.6397 27.5282 21.6267 27.4479 21.6117C27.397 21.602 27.3462 21.5938 27.2968 21.5836C27.2755 21.5788 27.2557 21.5754 27.2344 21.5705C27.2523 21.5672 27.2707 21.5623 27.2886 21.5589C27.3215 21.5522 27.3544 21.5459 27.3874 21.541C27.4285 21.5328 27.4711 21.5246 27.5137 21.5178C27.5549 21.511 27.5975 21.5028 27.6401 21.498C27.6599 21.4931 27.6812 21.4898 27.7025 21.4883C27.7204 21.4835 27.7403 21.4815 27.7582 21.4786C27.8632 21.4636 27.9702 21.4491 28.0835 21.4341C28.1213 21.4293 28.1605 21.4245 28.2002 21.4211C28.2578 21.4128 28.3154 21.408 28.3745 21.3998C28.4451 21.393 28.5158 21.3867 28.5879 21.38C28.6422 21.3751 28.6964 21.3703 28.7506 21.365C28.785 21.3616 28.8198 21.3601 28.8557 21.3567C28.8837 21.3533 28.9113 21.3519 28.9409 21.35V21.3485C28.967 21.3471 28.9951 21.3451 29.0232 21.3437C29.0822 21.3388 29.1432 21.3354 29.2037 21.3321C29.3219 21.3238 29.4434 21.3171 29.5683 21.3122C29.5833 21.3108 29.5992 21.3108 29.6157 21.3088C29.6748 21.3055 29.7338 21.304 29.7948 21.3006H29.821C29.8292 21.3006 29.8374 21.3006 29.8457 21.2992C29.8655 21.2992 29.8868 21.2992 29.9067 21.2977C29.9677 21.2963 30.0282 21.2943 30.0906 21.2929C30.0921 21.2929 30.0921 21.2929 30.0921 21.2929C30.1724 21.2895 30.2513 21.288 30.3336 21.288C30.3946 21.2866 30.4552 21.2847 30.5176 21.2847H30.6178C30.6227 21.2832 30.6294 21.2832 30.6343 21.2847C30.6377 21.2832 30.6391 21.2832 30.6425 21.2847C30.6982 21.2832 30.7543 21.2832 30.81 21.2832H30.8197C30.9151 21.2832 31.0085 21.2832 31.1024 21.2847H31.1305C31.1586 21.2847 31.1862 21.2861 31.2142 21.2861C31.2718 21.2861 31.3295 21.2876 31.3851 21.2895C31.4161 21.2895 31.4476 21.2909 31.4786 21.2909C31.587 21.2943 31.692 21.2977 31.7971 21.3006H31.8169C31.9254 21.3055 32.0338 21.3103 32.1389 21.3156C32.1602 21.3171 32.1815 21.3171 32.2028 21.319C32.2652 21.3224 32.3277 21.3258 32.3882 21.3306H32.4032C32.4279 21.3321 32.4506 21.334 32.4739 21.3354C32.4889 21.3354 32.502 21.3369 32.515 21.3369C32.6119 21.3437 32.7072 21.3519 32.7992 21.3582C32.8273 21.3616 32.8549 21.363 32.8815 21.3664C32.9227 21.3698 32.9638 21.3732 33.005 21.3761C33.0476 21.3809 33.0887 21.3843 33.1299 21.3877H33.1313C33.1512 21.3911 33.1705 21.3925 33.1904 21.3945C33.2906 21.4061 33.3874 21.4157 33.4813 21.4274C33.6062 21.4424 33.7277 21.4583 33.8429 21.4767C34.039 21.5062 34.2196 21.5372 34.3856 21.572Z" fill="#E6E6F9"/>
<path d="M31.8834 21.7868C31.8766 21.7999 31.8703 21.8129 31.8621 21.826C31.8621 21.8308 31.8587 21.8342 31.8553 21.8391C31.8374 21.8391 31.819 21.8405 31.7996 21.8405C31.7846 21.8439 31.7715 21.8473 31.757 21.8487C31.6582 21.8637 31.5634 21.8637 31.4728 21.8502C31.4036 21.8516 31.3349 21.8536 31.2642 21.855H31.1654C31.1456 21.8565 31.1277 21.8565 31.1078 21.8565C31.0091 21.8579 30.9108 21.8579 30.8106 21.8579C30.4935 21.8579 30.1846 21.8531 29.8854 21.8415C29.8312 21.84 29.777 21.8381 29.7242 21.8366C29.3645 21.8216 29.0194 21.7989 28.6974 21.7709C28.6481 21.7675 28.6006 21.7626 28.5527 21.7578C28.5232 21.7563 28.4936 21.753 28.4641 21.7496C28.4641 21.751 28.4626 21.751 28.4626 21.751C28.4612 21.7525 28.4578 21.751 28.4559 21.7496C28.4442 21.7481 28.4326 21.7462 28.4215 21.7462C28.4099 21.7447 28.4002 21.7428 28.3905 21.7428C28.3857 21.7413 28.3789 21.7413 28.374 21.7413C28.3726 21.7413 28.3726 21.7413 28.3726 21.7413C28.3184 21.7346 28.2656 21.7283 28.2133 21.7215C28.1673 21.7167 28.1213 21.7118 28.0768 21.7051H28.0686C28.0652 21.6983 28.0637 21.6901 28.0637 21.6818C28.0541 21.6325 28.0521 21.5817 28.0603 21.5309C28.0637 21.498 28.072 21.4651 28.0836 21.4342C28.0967 21.3916 28.1165 21.3505 28.1412 21.3142C28.1906 21.2387 28.2593 21.1763 28.3431 21.142C28.3987 21.1188 28.4612 21.1076 28.5285 21.1125C28.5745 21.1159 28.6171 21.1139 28.6597 21.1091C28.6727 21.1057 28.6878 21.1023 28.7023 21.1009C28.7236 21.0975 28.7449 21.0941 28.7681 21.0941C28.8189 21.0844 28.8683 21.0714 28.9177 21.0564C28.9768 20.933 29.0755 20.8464 29.1956 20.8005C29.2697 20.7743 29.35 20.7613 29.4352 20.7642C29.5073 20.6229 29.6013 20.4933 29.7262 20.4062C29.8051 20.3506 29.8985 20.3129 30.0089 20.3012C30.2456 20.2751 30.4296 20.3685 30.569 20.518C30.6232 20.5736 30.6707 20.6394 30.7104 20.71C30.7152 20.7148 30.7186 20.7197 30.72 20.7265C30.7709 20.7361 30.8154 20.7545 30.8566 20.7792C30.8895 20.7971 30.919 20.8218 30.9437 20.8484C30.9471 20.8484 30.9505 20.8469 30.9553 20.8469C30.9931 20.8401 31.0323 20.8372 31.0686 20.8372C31.1049 20.8372 31.1378 20.8387 31.1703 20.8455C31.2361 20.8551 31.2966 20.8764 31.3508 20.9127C31.3523 20.9127 31.3523 20.9141 31.3523 20.9141C31.3537 20.9141 31.3537 20.9156 31.3537 20.9156C31.3881 20.9354 31.4196 20.9616 31.4491 20.9944C31.5774 21.0191 31.6892 21.0897 31.7594 21.1879C31.7725 21.2078 31.7856 21.2271 31.7957 21.247C31.804 21.2649 31.8122 21.2832 31.817 21.3011C31.8185 21.3045 31.8204 21.306 31.8204 21.3094C31.865 21.3568 31.8945 21.408 31.9109 21.4603C31.9458 21.5653 31.9313 21.677 31.8834 21.7868Z" fill="#70B51E"/>
<path d="M34.0486 21.0926C34.037 21.2126 33.9765 21.3272 33.886 21.4322C33.871 21.4472 33.8579 21.4632 33.8434 21.4782C33.763 21.5604 33.6676 21.6359 33.5674 21.7031C33.3801 21.7278 33.1811 21.7491 32.9725 21.7689H32.971C32.9284 21.7723 32.8873 21.7757 32.8427 21.7805C32.8427 21.7805 32.8427 21.7805 32.8413 21.7805C32.7541 21.7873 32.667 21.7936 32.577 21.8003C32.5523 21.8018 32.5261 21.8037 32.5 21.8052C32.4787 21.8066 32.4574 21.8086 32.4341 21.81C32.4245 21.7936 32.4177 21.7757 32.4114 21.7573C32.3983 21.7491 32.3867 21.7394 32.3751 21.7292C32.3736 21.7278 32.3717 21.7259 32.3702 21.7244C32.3276 21.6867 32.2879 21.6373 32.255 21.5831C32.2187 21.5256 32.1892 21.4651 32.1664 21.4027C32.1567 21.3747 32.1466 21.3451 32.1403 21.3176C32.1369 21.3045 32.1335 21.2929 32.1306 21.2813C32.1292 21.2765 32.1292 21.2716 32.1272 21.2648C32.1204 21.2368 32.1156 21.2092 32.1122 21.1797C32.1074 21.1454 32.1025 21.1076 32.1006 21.0699C32.089 20.9272 32.0957 20.7729 32.1253 20.6282C32.1287 20.6103 32.1321 20.592 32.1369 20.5741C32.1403 20.5562 32.1451 20.5378 32.15 20.5199C32.1713 20.4396 32.1993 20.3641 32.2371 20.2964C32.2536 20.2654 32.2715 20.234 32.2928 20.2059C32.3635 20.1106 32.454 20.0502 32.5489 20.0187C32.82 19.9302 33.1419 20.0811 33.2436 20.3748C33.2503 20.3912 33.2533 20.4057 33.2586 20.4222C33.2765 20.4894 33.2867 20.5615 33.2915 20.6374C33.3491 20.6113 33.4082 20.5915 33.4706 20.575C33.4721 20.575 33.474 20.5736 33.4755 20.5736C33.6333 20.5344 33.7795 20.5866 33.8879 20.695C33.9107 20.7182 33.9325 20.7443 33.9518 20.7724C34.0288 20.8822 34.0569 20.9891 34.0486 21.0926Z" fill="#70B51E"/>
<path d="M28.2001 21.4224C28.1986 21.419 28.1967 21.4142 28.1952 21.4108C28.1788 21.3799 28.1609 21.3484 28.141 21.3155C28.1212 21.2846 28.0999 21.2517 28.0786 21.2202C28.0258 21.1481 27.9667 21.0756 27.9009 21.0069C27.8941 20.9987 27.8878 20.9919 27.8796 20.9856C27.7368 20.8395 27.5659 20.7162 27.3868 20.6673C27.2716 20.6363 27.1549 20.6364 27.0402 20.6804C26.7395 20.7955 26.6703 21.1419 26.802 21.4094C26.8136 21.4321 26.8267 21.4553 26.8397 21.4785C26.9579 21.5114 27.0895 21.5424 27.2338 21.5719C27.2551 21.5767 27.2749 21.5801 27.2962 21.585C27.3456 21.5946 27.3965 21.6029 27.4473 21.613C27.5277 21.628 27.6114 21.6411 27.6985 21.6541C27.7198 21.659 27.7411 21.6624 27.7644 21.6658C27.8612 21.6788 27.9634 21.6938 28.0684 21.7069H28.0766C28.1212 21.7136 28.1672 21.7185 28.2132 21.7233C28.2311 21.6788 28.2412 21.6314 28.2412 21.5806C28.2393 21.5289 28.2262 21.4766 28.2001 21.4224ZM27.183 21.3876C27.1781 21.3842 27.1713 21.3808 27.168 21.3779C27.1728 21.3794 27.1776 21.3828 27.1859 21.3862C27.1849 21.3876 27.1849 21.3876 27.183 21.3876ZM27.4492 21.1825C27.4526 21.1873 27.4541 21.1975 27.4541 21.2106C27.4492 21.1989 27.4473 21.1907 27.4473 21.1859V21.1844C27.4458 21.181 27.4458 21.1796 27.4458 21.1777C27.4478 21.1762 27.4492 21.1791 27.4492 21.1825Z" fill="#70B51E"/>
<path d="M28.7503 21.3664C28.747 21.4138 28.7339 21.4598 28.7092 21.5009C28.7044 21.5125 28.6976 21.5222 28.6893 21.5318C28.6269 21.6121 28.5775 21.6731 28.4938 21.7157L28.4923 21.7171C28.4841 21.7287 28.4759 21.7403 28.4642 21.75C28.4642 21.7515 28.4628 21.7515 28.4628 21.7515C28.4613 21.7529 28.4579 21.7515 28.456 21.75C28.4444 21.7486 28.4328 21.7466 28.4216 21.7466C28.41 21.7452 28.4003 21.7432 28.3907 21.7432C28.3858 21.7418 28.379 21.7418 28.3742 21.7418C28.3727 21.7418 28.3727 21.7418 28.3727 21.7418C28.3185 21.735 28.2658 21.7287 28.2135 21.7219C28.1675 21.7171 28.1215 21.7123 28.077 21.7055H28.0687C27.9637 21.6924 27.8615 21.6774 27.7647 21.6644C27.7386 21.617 27.7187 21.571 27.7071 21.5168C27.7056 21.5072 27.7023 21.4989 27.7023 21.4888C27.6989 21.4675 27.6955 21.4443 27.6955 21.4196C27.694 21.3538 27.7023 21.29 27.7236 21.229C27.7318 21.2058 27.74 21.1845 27.7497 21.1632C27.7807 21.096 27.8252 21.035 27.8794 20.9842C27.9535 20.9136 28.0455 20.8628 28.1457 20.8382C28.1505 20.8367 28.1539 20.8367 28.1588 20.8367C28.3476 20.7956 28.5959 20.8696 28.6845 21.0583C28.686 21.0616 28.6879 21.065 28.6893 21.0699C28.6942 21.0795 28.699 21.0897 28.7024 21.1008C28.7039 21.1008 28.7039 21.1023 28.7039 21.1042C28.7373 21.1845 28.7586 21.2779 28.7503 21.3664Z" fill="#FF3801"/>
<path d="M32.5229 21.2251C32.5229 21.245 32.5229 21.2643 32.5215 21.2861C32.5215 21.304 32.52 21.3204 32.5166 21.3388C32.5132 21.3848 32.505 21.4307 32.4919 21.4752C32.474 21.5425 32.4474 21.6049 32.413 21.6624C32.4063 21.6707 32.4014 21.6803 32.3951 21.6886C32.3883 21.7016 32.3801 21.7132 32.3704 21.7248C32.3457 21.7577 32.3196 21.7887 32.2901 21.8182C32.1487 21.8264 32.0044 21.8332 31.8563 21.8395C31.8384 21.8395 31.82 21.8409 31.8006 21.8409C31.7856 21.8443 31.7726 21.8477 31.758 21.8492C31.6593 21.8642 31.5644 21.8642 31.4739 21.8506C31.4046 21.8521 31.3359 21.854 31.2652 21.8554H31.1665C31.1466 21.8569 31.1287 21.8569 31.1088 21.8569C31.0101 21.7747 30.9283 21.6731 30.8803 21.555V21.5536C30.8707 21.5357 30.8639 21.5159 30.8571 21.496C30.8358 21.4302 30.8227 21.363 30.8208 21.2909V21.2846C30.8208 21.2566 30.8223 21.229 30.8256 21.2009C30.8305 21.1535 30.8406 21.1076 30.8537 21.0631C30.875 20.9924 30.9046 20.9252 30.9423 20.8662C30.9457 20.8628 30.9472 20.858 30.9505 20.8546C30.952 20.8512 30.9539 20.8497 30.9554 20.8478C30.9718 20.8217 30.9917 20.797 31.0144 20.7757C31.1147 20.664 31.2492 20.6016 31.4022 20.5851C31.4119 20.5769 31.4221 20.5701 31.4317 20.5653C31.5959 20.4686 31.7571 20.47 31.9362 20.4981C32.0054 20.5097 32.0727 20.5358 32.1366 20.5735C32.1826 20.5982 32.2252 20.6292 32.2649 20.6669C32.3177 20.7114 32.3637 20.7656 32.3995 20.8198V20.8212C32.4077 20.8328 32.4145 20.8425 32.4208 20.8541C32.4222 20.8575 32.4256 20.8623 32.4256 20.8657C32.4324 20.8739 32.4372 20.8822 32.4406 20.8904L32.4421 20.8918C32.4948 20.9987 32.521 21.1105 32.5229 21.2251Z" fill="#FF3801"/>
<path d="M33.3728 20.7525C33.3704 20.7559 33.3684 20.7588 33.366 20.7622C33.245 20.9296 33.2668 21.1918 33.366 21.3616C33.4715 21.542 33.6695 21.6557 33.8792 21.6557C34.312 21.6557 34.6431 21.1448 34.3923 20.7622C34.3904 20.7588 34.388 20.7559 34.386 20.7525C34.2708 20.5774 34.0946 20.4623 33.8796 20.4623C33.657 20.4623 33.4972 20.5803 33.3728 20.7525Z" fill="#FF3801"/>
<path d="M29.0869 20.7923C29.2157 20.7923 29.3392 20.6791 29.3334 20.546C29.3275 20.4125 29.2249 20.2998 29.0869 20.2998C28.9582 20.2998 28.8347 20.413 28.8405 20.546C28.8468 20.6791 28.949 20.7923 29.0869 20.7923Z" fill="#FF3801"/>
<path d="M32.9085 20.5851C32.8969 20.4947 32.8708 20.4129 32.833 20.3375H32.8316C32.7677 20.2044 32.6689 20.0961 32.5488 20.0192C32.4501 19.9553 32.3353 19.9123 32.2153 19.8977C32.1974 19.7715 32.1678 19.653 32.0512 19.5596C31.9001 19.4363 31.6929 19.4184 31.5075 19.4546C31.1512 19.5238 31.0195 19.7812 31.0016 20.0835C30.8733 20.0835 30.7567 20.1541 30.6763 20.261C30.6206 20.3331 30.5809 20.4236 30.5693 20.5203C30.5562 20.6026 30.5645 20.6896 30.594 20.7733V20.7748C30.489 20.8585 30.4396 20.9997 30.5364 21.1472C30.5674 21.1947 30.6003 21.2425 30.6352 21.2866C30.7092 21.3833 30.7896 21.4752 30.8801 21.5541V21.5555C31.0495 21.7084 31.248 21.8197 31.4731 21.8511C31.5637 21.8642 31.6586 21.8642 31.7573 21.8496C31.7723 21.8482 31.7854 21.8448 31.7999 21.8414C31.8212 21.838 31.8425 21.8332 31.8624 21.8264C32.0236 21.7819 32.1562 21.6968 32.255 21.5836C32.3092 21.5246 32.3518 21.4554 32.3847 21.3819C32.393 21.3654 32.3997 21.349 32.4046 21.3325C32.4143 21.3064 32.4225 21.2783 32.4293 21.2503C32.4602 21.2435 32.4917 21.2353 32.5227 21.2256C32.5619 21.2126 32.5997 21.1976 32.6345 21.1782C32.756 21.1158 32.85 21.0157 32.8906 20.8764C32.8974 20.8599 32.9022 20.842 32.9037 20.8222C32.9182 20.7525 32.9201 20.6737 32.9085 20.5851ZM31.5187 19.9481C31.7568 19.8136 31.6813 20.0235 31.6799 20.1894C31.6799 20.2175 31.6847 20.2451 31.6929 20.2731C31.7307 20.3883 31.8425 20.4831 31.9655 20.4748C32.0396 20.4618 32.1001 20.4763 32.1494 20.5194C32.1674 20.5324 32.1838 20.5503 32.1988 20.5721C32.2434 20.6277 32.2647 20.6592 32.2647 20.6674C32.2647 20.6756 32.2468 20.664 32.209 20.6311C32.1809 20.6277 32.1533 20.6263 32.1252 20.6277C31.92 20.6374 31.7607 20.7985 31.8115 21.0282C31.8294 21.1105 31.8067 21.1593 31.7607 21.1893C31.6702 21.2469 31.4978 21.2203 31.4107 21.1811C31.263 21.1139 31.1575 20.9678 31.0689 20.8381C31.0675 20.8381 31.0675 20.8367 31.0675 20.8367C31.051 20.8135 31.0345 20.7941 31.0147 20.7757C30.9673 20.7312 30.9111 20.7066 30.8535 20.6983C30.8535 20.5997 30.9242 20.531 31.0655 20.4932C31.1657 20.6132 31.386 20.5179 31.3758 20.365C31.3744 20.3288 31.371 20.2944 31.371 20.2635C31.3608 20.127 31.3691 20.0351 31.5187 19.9481Z" fill="#F9C11E"/>
<path d="M28.0788 21.2203C28.1001 21.2513 28.1214 21.2842 28.1413 21.3156C28.1906 21.2401 28.2594 21.1777 28.3431 21.1434C28.2511 21.125 28.1509 21.1497 28.0788 21.2203ZM28.0788 21.2203C28.1001 21.2513 28.1214 21.2842 28.1413 21.3156C28.1906 21.2401 28.2594 21.1777 28.3431 21.1434C28.2511 21.125 28.1509 21.1497 28.0788 21.2203ZM28.0788 21.2203C28.1001 21.2513 28.1214 21.2842 28.1413 21.3156C28.1906 21.2401 28.2594 21.1777 28.3431 21.1434C28.2511 21.125 28.1509 21.1497 28.0788 21.2203ZM28.0788 21.2203C28.1001 21.2513 28.1214 21.2842 28.1413 21.3156C28.1906 21.2401 28.2594 21.1777 28.3431 21.1434C28.2511 21.125 28.1509 21.1497 28.0788 21.2203ZM29.871 20.8135C29.8695 20.812 29.8695 20.812 29.8695 20.812C29.8695 20.7216 29.8463 20.6316 29.8056 20.5426C29.7858 20.4966 29.7596 20.4507 29.7267 20.4081C29.717 20.395 29.7069 20.382 29.6972 20.3689C29.6725 20.338 29.6463 20.3099 29.6197 20.2852C29.4358 20.1062 29.2058 20.0308 28.9676 20.0438C28.8771 19.8484 28.6999 19.7042 28.4419 19.7057C28.0396 19.7072 27.8208 20.0438 27.8174 20.397C27.7254 20.4052 27.6431 20.4362 27.571 20.484C27.4988 20.53 27.4378 20.5939 27.387 20.6679C27.2539 20.8633 27.1963 21.1323 27.236 21.3736C27.2374 21.3901 27.2408 21.408 27.2457 21.4244C27.249 21.4409 27.2524 21.4554 27.2573 21.4718C27.2655 21.5028 27.2771 21.5328 27.2883 21.5604C27.2916 21.5686 27.295 21.5768 27.2965 21.585C27.3459 21.5947 27.3967 21.6029 27.4475 21.6131C27.5279 21.6281 27.6116 21.6412 27.6988 21.6542C27.7201 21.6591 27.7414 21.6624 27.7646 21.6658C27.8614 21.6789 27.9636 21.6939 28.0686 21.7069H28.0769C28.1214 21.7137 28.1674 21.7186 28.2134 21.7234C28.2662 21.7302 28.3184 21.7365 28.3727 21.7432C28.3727 21.7432 28.3727 21.7432 28.3741 21.7432C28.379 21.7432 28.3857 21.7432 28.3906 21.7447C28.4003 21.7447 28.4104 21.7461 28.4216 21.7481C28.4332 21.7481 28.4448 21.7495 28.4559 21.7514C28.4574 21.7529 28.4608 21.7548 28.4627 21.7529C28.4627 21.7529 28.4642 21.7529 28.4642 21.7514C28.4937 21.7548 28.5232 21.7582 28.5527 21.7597C28.6002 21.7645 28.6481 21.7693 28.6975 21.7727C29.0194 21.8008 29.3646 21.8235 29.7243 21.8385C29.7408 21.8076 29.7553 21.7747 29.7688 21.7398C29.808 21.6397 29.8279 21.5313 29.8298 21.423C29.8298 21.4065 29.8298 21.3901 29.8284 21.3736C29.8284 21.362 29.8284 21.349 29.8269 21.3374C29.8269 21.334 29.8269 21.3325 29.8255 21.3291C29.8255 21.3209 29.824 21.3112 29.8221 21.303C29.8221 21.2982 29.8221 21.2948 29.8206 21.29C29.8138 21.2372 29.8027 21.185 29.7843 21.1342C29.8419 21.0408 29.8715 20.9354 29.8715 20.8289V20.8135H29.871ZM29.14 21.5193C29.0843 21.5584 29.0068 21.5831 28.9444 21.585C28.9245 21.5865 28.9081 21.5865 28.8916 21.5836C28.8902 21.5836 28.8882 21.5836 28.8868 21.5821C28.8669 21.5787 28.8442 21.5725 28.8195 21.5609C28.7832 21.5478 28.7454 21.5265 28.7096 21.5018C28.6568 21.4675 28.6094 21.4244 28.5881 21.3819C28.5847 21.3736 28.5799 21.364 28.5784 21.3557C28.5619 21.2919 28.5276 21.2406 28.4796 21.2048C28.4404 21.1739 28.3944 21.154 28.3431 21.1439C28.2511 21.126 28.1509 21.1506 28.0788 21.2213C28.0774 21.2227 28.0774 21.2227 28.0754 21.2247C27.8682 21.4346 27.7486 21.1637 27.9011 21.0079C27.9321 20.977 27.9733 20.9489 28.0275 20.9325C28.0832 20.9146 28.1277 20.8817 28.1587 20.8391C28.2657 20.7012 28.2361 20.4729 28.0372 20.4173C28.0372 20.4158 28.0386 20.4158 28.0386 20.4158C28.0696 20.3815 28.1045 20.352 28.1422 20.3254C28.2197 20.2301 28.318 20.2301 28.4366 20.3239C28.4317 20.3389 28.4298 20.3549 28.4283 20.3713C28.4085 20.5716 28.6041 20.7651 28.8113 20.6964C28.8345 20.6848 28.8558 20.6785 28.8786 20.6737H28.88C28.9555 20.6538 29.0296 20.664 29.1066 20.7017C29.1196 20.7361 29.1361 20.7641 29.1559 20.782C29.1676 20.7917 29.1806 20.7999 29.1952 20.8033C29.2102 20.8081 29.2261 20.8081 29.2445 20.8048C29.1671 20.8541 29.1196 20.9228 29.1017 20.9983C29.0867 21.0539 29.0887 21.11 29.1066 21.1656C29.1182 21.2082 29.1395 21.2479 29.169 21.2856C29.1724 21.2904 29.1758 21.2953 29.1806 21.3006C29.1903 21.3122 29.1985 21.3238 29.2039 21.3349C29.247 21.4075 29.2073 21.4733 29.14 21.5193ZM28.0788 21.2203C28.1001 21.2513 28.1214 21.2842 28.1413 21.3156C28.1906 21.2401 28.2594 21.1777 28.3431 21.1434C28.2511 21.125 28.1509 21.1497 28.0788 21.2203ZM28.0788 21.2203C28.1001 21.2513 28.1214 21.2842 28.1413 21.3156C28.1906 21.2401 28.2594 21.1777 28.3431 21.1434C28.2511 21.125 28.1509 21.1497 28.0788 21.2203ZM28.0788 21.2203C28.1001 21.2513 28.1214 21.2842 28.1413 21.3156C28.1906 21.2401 28.2594 21.1777 28.3431 21.1434C28.2511 21.125 28.1509 21.1497 28.0788 21.2203ZM28.0788 21.2203C28.1001 21.2513 28.1214 21.2842 28.1413 21.3156C28.1906 21.2401 28.2594 21.1777 28.3431 21.1434C28.2511 21.125 28.1509 21.1497 28.0788 21.2203Z" fill="#F9C11E"/>
<path d="M29.95 21.8075C30.0952 21.8075 30.2342 21.6803 30.2274 21.5304C30.2206 21.3804 30.1054 21.2532 29.95 21.2532C29.8048 21.2532 29.6658 21.3804 29.6726 21.5304C29.6794 21.6808 29.7946 21.8075 29.95 21.8075Z" fill="#323434"/>
<path d="M28.9028 21.2227C28.9822 21.2227 28.9822 21.0994 28.9028 21.0994C28.8234 21.0998 28.8234 21.2227 28.9028 21.2227Z" fill="#323434"/>
<path d="M30.0522 20.8895C30.1892 20.8895 30.3204 20.769 30.3141 20.6278C30.3078 20.4861 30.1988 20.3661 30.0522 20.3661C29.9152 20.3661 29.784 20.4865 29.7903 20.6278C29.7966 20.7695 29.9055 20.8895 30.0522 20.8895Z" fill="#323434"/>
<path d="M32.0036 21.4796C32.281 21.4796 32.2815 21.0486 32.0036 21.0486C31.7262 21.0486 31.7258 21.4796 32.0036 21.4796Z" fill="#323434"/>
<path d="M33.1719 21.5942C33.1729 21.5894 33.1744 21.584 33.1753 21.5792C33.2044 21.4568 33.1366 21.362 33.0262 21.3165C33.0209 21.3146 33.0156 21.3122 33.0102 21.3102C32.926 21.2759 32.8185 21.3267 32.7672 21.393C32.7111 21.4655 32.7019 21.5686 32.7493 21.6493C32.8471 21.8162 33.1255 21.7906 33.1719 21.5942Z" fill="#323434"/>
<path d="M33.9954 21.3122C34.1363 21.3122 34.2714 21.1884 34.2651 21.0428C34.2583 20.8967 34.1465 20.7733 33.9954 20.7733C33.8546 20.7733 33.7195 20.8972 33.7258 21.0428C33.7326 21.1889 33.8444 21.3122 33.9954 21.3122Z" fill="#323434"/>
<path d="M27.6086 21.541C27.886 21.541 27.8865 21.11 27.6086 21.11C27.3312 21.11 27.3307 21.541 27.6086 21.541Z" fill="#323434"/>
<path d="M28.5481 30.3214C33.0669 30.3214 36.7301 28.8894 36.7301 27.1229C36.7301 25.3565 33.0669 23.9244 28.5481 23.9244C24.0294 23.9244 20.3662 25.3565 20.3662 27.1229C20.3662 28.8894 24.0294 30.3214 28.5481 30.3214Z" fill="#323434"/>
<path d="M28.53 29.6955C32.5544 29.6955 35.8168 28.4012 35.8168 26.8047C35.8168 25.2081 32.5544 23.9138 28.53 23.9138C24.5056 23.9138 21.2432 25.2081 21.2432 26.8047C21.2432 28.4012 24.5056 29.6955 28.53 29.6955Z" fill="#FF3801"/>
<path d="M28.53 29.3129C32.0218 29.3129 34.8524 28.19 34.8524 26.8047C34.8524 25.4195 32.0218 24.2965 28.53 24.2965C25.0382 24.2965 22.2075 25.4195 22.2075 26.8047C22.2075 28.19 25.0382 29.3129 28.53 29.3129Z" fill="#F9B51E"/>
<path d="M24.5806 24.6622C24.6425 24.6873 28.5299 26.6644 28.5299 26.6644L25.2157 24.4459L24.5806 24.6622Z" fill="#FF3801"/>
<path d="M30.0938 24.0477C30.0212 24.1338 28.4929 27.133 28.6846 26.8046C28.704 26.7712 30.6375 24.2533 30.6375 24.2533L30.0938 24.0477Z" fill="#FF3801"/>
<path d="M34.0124 25.3312C33.8464 25.4458 28.8828 26.8704 28.8828 26.8704L34.5566 25.6413L34.0124 25.3312Z" fill="#FF3801"/>
<path d="M33.703 28.7324C33.5423 28.6835 28.7588 26.9193 28.7588 26.9193L33.184 28.8664L33.703 28.8407V28.7324Z" fill="#FF3801"/>
<path d="M28.1036 29.5358C28.1036 29.4265 28.6695 26.8708 28.6695 26.8708L27.5474 29.4265L28.1036 29.5358Z" fill="#FF3801"/>
<path d="M28.5306 26.9193C28.4502 26.9126 22.9992 28.3735 22.9992 28.3735L22.3936 27.8442L28.5306 26.9193Z" fill="#FF3801"/>
<path d="M24.0339 26.3229C24.4587 26.3229 24.8031 26.1841 24.8031 26.0128C24.8031 25.8416 24.4587 25.7028 24.0339 25.7028C23.6091 25.7028 23.2646 25.8416 23.2646 26.0128C23.2646 26.1841 23.6091 26.3229 24.0339 26.3229Z" fill="#FF3801"/>
<path d="M27.1581 26.6107C27.1581 26.7694 26.826 26.8985 26.4165 26.8985C26.0069 26.8985 25.6748 26.7699 25.6748 26.6107C25.6748 26.452 26.0069 26.3229 26.4165 26.3229C26.826 26.3234 27.1581 26.452 27.1581 26.6107Z" fill="#FF3801"/>
<path d="M28.2517 24.8446C28.2517 25.0056 27.953 25.1367 27.5841 25.1367C27.2157 25.1367 26.9165 25.0061 26.9165 24.8446C26.9165 24.6835 27.2152 24.5524 27.5841 24.5524C27.953 24.5529 28.2517 24.6835 28.2517 24.8446Z" fill="#FF3801"/>
<path d="M28.8825 25.6529C28.8825 25.7709 28.7092 25.8672 28.4957 25.8672C28.2822 25.8672 28.1089 25.7714 28.1089 25.6529C28.1089 25.5349 28.2822 25.4386 28.4957 25.4386C28.7092 25.4386 28.8825 25.5344 28.8825 25.6529Z" fill="#FF3801"/>
<path d="M32.2939 25.0878C32.2939 25.2223 31.9618 25.3311 31.5522 25.3311C31.1426 25.3311 30.8105 25.2223 30.8105 25.0878C30.8105 24.9533 31.1426 24.8445 31.5522 24.8445C31.9622 24.8445 32.2939 24.9538 32.2939 25.0878Z" fill="#FF3801"/>
<path d="M30.5509 25.8574C30.5509 25.9431 30.4265 26.0127 30.273 26.0127C30.1195 26.0127 29.9946 25.9431 29.9946 25.8574C29.9946 25.7718 30.119 25.7021 30.273 25.7021C30.4265 25.7026 30.5509 25.7718 30.5509 25.8574Z" fill="#FF3801"/>
<path d="M26.4164 28.3677C26.4164 28.5191 26.1477 28.6415 25.8161 28.6415C25.4845 28.6415 25.2158 28.5191 25.2158 28.3677C25.2158 28.2163 25.4845 28.0939 25.8161 28.0939C26.1477 28.0939 26.4164 28.2163 26.4164 28.3677Z" fill="#FF3801"/>
<path d="M28.1084 27.8703C28.1084 27.9937 27.8416 28.0938 27.5124 28.0938C27.1832 28.0938 26.9165 27.9937 26.9165 27.8703C26.9165 27.747 27.1832 27.6469 27.5124 27.6469C27.8416 27.6464 28.1084 27.7465 28.1084 27.8703Z" fill="#FF3801"/>
<path d="M27.5129 28.7536C27.5129 28.8155 27.3798 28.8663 27.2152 28.8663C27.0506 28.8663 26.9175 28.816 26.9175 28.7536C26.9175 28.6917 27.0506 28.6409 27.2152 28.6409C27.3798 28.6414 27.5129 28.6917 27.5129 28.7536Z" fill="#FF3801"/>
<path d="M29.8834 27.568C29.8834 27.6667 29.684 27.747 29.4385 27.747C29.1926 27.747 28.9937 27.6672 28.9937 27.568C28.9937 27.4693 29.1931 27.389 29.4385 27.389C29.6845 27.3895 29.8834 27.4693 29.8834 27.568Z" fill="#FF3801"/>
<path d="M30.3473 28.5804C30.3473 28.7381 29.9717 28.8663 29.5079 28.8663C29.0441 28.8663 28.6685 28.7381 28.6685 28.5804C28.6685 28.4227 29.0441 28.2946 29.5079 28.2946C29.9717 28.2946 30.3473 28.4227 30.3473 28.5804Z" fill="#FF3801"/>
<path d="M31.5522 28.5045C31.5522 28.5799 31.3862 28.6414 31.1814 28.6414C30.9766 28.6414 30.8105 28.5799 30.8105 28.5045C30.8105 28.429 30.9766 28.3676 31.1814 28.3676C31.3862 28.3676 31.5522 28.429 31.5522 28.5045Z" fill="#FF3801"/>
<path d="M32.4793 27.0266C32.4793 27.2269 32.1055 27.389 31.6447 27.389C31.1838 27.389 30.8105 27.2264 30.8105 27.0266C30.8105 26.8264 31.1843 26.6643 31.6447 26.6643C32.106 26.6643 32.4793 26.8264 32.4793 27.0266Z" fill="#FF3801"/>
<path d="M34.2593 26.4031C34.2593 26.5177 33.9689 26.6106 33.6101 26.6106C33.2519 26.6106 32.9614 26.5177 32.9614 26.4031C32.9614 26.2884 33.2519 26.1956 33.6101 26.1956C33.9689 26.1956 34.2593 26.2884 34.2593 26.4031Z" fill="#FF3801"/>
<path d="M33.8325 27.6777C33.8325 27.8369 33.5919 27.966 33.2947 27.966C32.9979 27.966 32.7568 27.8369 32.7568 27.6777C32.7568 27.5186 32.9974 27.3894 33.2947 27.3894C33.5919 27.3894 33.8325 27.5181 33.8325 27.6777Z" fill="#FF3801"/>
<path d="M25.0442 26.988C25.0442 27.0983 24.6458 27.1873 24.1544 27.1873C23.6631 27.1873 23.2646 27.0978 23.2646 26.988C23.2646 26.8777 23.6631 26.7887 24.1544 26.7887C24.6458 26.7882 25.0442 26.8777 25.0442 26.988Z" fill="#FF3801"/>
<path d="M25.9347 25.6481C25.9347 25.7637 25.774 25.8575 25.5755 25.8575C25.377 25.8575 25.2163 25.7637 25.2163 25.6481C25.2163 25.5324 25.377 25.4386 25.5755 25.4386C25.7735 25.4386 25.9347 25.5324 25.9347 25.6481Z" fill="#FF3801"/>
<path d="M35.6939 24.0555C35.6774 24.0555 35.6605 24.0541 35.6435 24.0507C35.4983 24.0231 35.4024 23.8833 35.43 23.7377C35.8541 21.5013 36.4801 16.6262 36.4864 16.5773C36.5052 16.4308 36.6393 16.3272 36.786 16.3456C36.9327 16.3645 37.0368 16.4985 37.0179 16.6451C37.0116 16.6944 36.3837 21.585 35.9567 23.8373C35.9325 23.966 35.8202 24.0555 35.6939 24.0555Z" fill="#323434"/>
<path d="M36.137 24.2016C36.1075 24.2016 36.077 24.1967 36.0475 24.1861C35.9081 24.1367 35.835 23.9834 35.8848 23.8441C36.7393 21.4384 37.7051 19.0391 38.7551 16.7118C38.8156 16.5768 38.9744 16.5168 39.1095 16.5778C39.2445 16.6387 39.3046 16.7969 39.2436 16.9319C38.1993 19.2456 37.2394 21.6314 36.3897 24.0231C36.35 24.1329 36.2469 24.2016 36.137 24.2016Z" fill="#323434"/>
<path d="M40.2654 22.1438L39.5494 28.9099C39.4836 29.517 38.9719 29.9775 38.36 29.9775H35.3527C34.8051 29.9775 34.3375 29.5842 34.2402 29.0483L34.2354 29.0216L33.1592 22.1438H40.2654Z" fill="white"/>
<path d="M39.7468 27.0464L39.9308 25.3083H33.6548L33.9269 27.0464H39.7468Z" fill="#FF3801"/>
<path d="M40.2659 22.1438L39.5499 28.9099C39.4841 29.517 38.9724 29.9775 38.3605 29.9775H35.3532C34.8056 29.9775 34.338 29.5842 34.2407 29.0483L34.2359 29.0216L34.1807 28.6632H35.9728C37.2693 28.6632 38.3803 27.7354 38.6103 26.4602L39.3877 22.1438H40.2659Z" fill="#E6E6F9"/>
<path d="M33.1595 22.1443C33.1106 22.2299 32.5146 23.4722 32.5146 23.4722H40.9464L40.2856 22.1443H33.1595Z" fill="#E6E6F9"/>
<path d="M35.6618 21.9252C35.3089 21.4787 34.3532 21.8764 34.3474 22.4201C34.346 22.5613 34.392 22.645 34.4656 22.7606C34.575 22.9319 34.8035 23.092 34.5692 23.2284C34.2429 23.4185 33.9703 23.4563 33.7626 23.8128C33.7147 23.8955 33.7118 24.0053 33.7626 24.0875C33.7767 24.1108 33.7912 24.1335 33.8052 24.1567C33.8425 24.2172 33.934 24.2689 34.0071 24.2389C34.1093 24.1969 34.1533 24.1577 34.2332 24.0875C34.4292 23.9148 34.5445 23.8626 34.7856 23.7804C35.0121 23.7034 35.2401 23.5965 35.3176 23.3484C35.4038 23.0707 35.2261 22.7853 35.0804 22.5652C35.0387 22.5062 34.9971 22.4476 34.9545 22.3891C35.0508 22.2788 35.1685 22.2029 35.3069 22.1603C35.4275 22.111 35.5408 22.081 35.6502 22.0103C35.6831 21.99 35.6841 21.9537 35.6618 21.9252Z" fill="#F9C11E"/>
<path d="M35.9107 21.8607C35.5472 22.06 35.2223 22.4103 35.355 22.8558C35.4169 23.0633 35.5728 23.206 35.7335 23.3405C35.9122 23.4905 36.0356 23.6685 36.1876 23.8431C36.2341 23.8963 36.3397 23.8847 36.3706 23.8194C36.4994 23.5466 36.4278 23.3028 36.2399 23.0686C36.1538 22.9612 36.0376 22.9056 35.9412 22.8122C35.6861 22.5655 35.8328 22.2405 36.0235 22.0068C36.0884 21.928 36.0085 21.807 35.9107 21.8607Z" fill="#F9C11E"/>
<path d="M36.7566 22.3304C36.8974 22.2888 37.0388 22.2472 37.1797 22.2061C37.2174 22.3081 37.2552 22.4102 37.2925 22.5123C37.306 22.594 37.2813 22.685 37.2925 22.7696C37.3084 22.893 37.3433 23.0202 37.4241 23.1184C37.626 23.3622 37.8105 23.25 38.0564 23.1779C38.1871 23.1397 38.4311 23.0971 38.496 23.3109C38.5129 23.3675 38.4572 23.4691 38.4529 23.5335C38.4417 23.7023 38.479 23.8624 38.5482 24.0158C38.6751 24.2973 38.8532 24.4855 39.1558 24.5227C39.2662 24.5363 39.3412 24.3868 39.2831 24.3007C39.1059 24.037 38.8934 23.8769 38.8392 23.5335C38.8116 23.3584 38.8426 23.1537 38.7361 22.9984C38.463 22.5989 37.9746 23.0855 37.8119 22.5471C37.7596 22.3739 37.8497 22.1935 37.7591 22.0058C37.6943 21.8713 37.5757 21.7485 37.4416 21.6827C37.0625 21.4969 36.6563 21.6812 36.4153 21.9903C36.2313 22.2274 36.529 22.5549 36.7566 22.3304Z" fill="#F9C11E"/>
<path d="M37.4354 21.9589C38.1572 21.8443 38.1679 23.0285 38.971 22.434C39.0993 22.3392 39.1399 22.1936 39.2987 22.2613C39.4135 22.3097 39.519 22.4746 39.6444 22.5356C39.8782 22.6488 40.0835 22.658 40.2694 22.4683C40.3347 22.4016 40.3275 22.3053 40.2694 22.2376C40.158 22.1075 40.0903 22.1055 39.9378 22.031C39.7315 21.9304 39.6095 21.7156 39.3985 21.6382C39.0572 21.5129 38.9749 21.7596 38.7052 21.8559C38.4757 21.9381 38.2206 21.5386 37.9432 21.4965C37.6484 21.452 37.4698 21.5545 37.3037 21.7877C37.2384 21.8801 37.3463 21.973 37.4354 21.9589Z" fill="#F9C11E"/>
<path d="M39.2565 40.5816H22.0551C21.2738 40.5816 20.6348 39.9431 20.6348 39.1623V36.9593C20.6348 36.1786 21.2738 35.54 22.0551 35.54H39.2565C40.0378 35.54 40.6769 36.1786 40.6769 36.9593V39.1623C40.6769 39.9431 40.0378 40.5816 39.2565 40.5816Z" fill="#FF3801"/>
<path d="M38.6969 35.54H38.2568C38.2568 37.1185 36.9763 38.398 35.3967 38.398H20.6353V38.6026C20.6353 39.691 21.5265 40.5811 22.6153 40.5811H38.6969C39.7861 40.5811 40.6769 39.6905 40.6769 38.6026V37.5185C40.6769 36.4306 39.7856 35.54 38.6969 35.54Z" fill="#E6E6F9" fill-opacity="0.5"/>
<path d="M37.2742 37.5123H21.8219C21.7682 37.5123 21.7241 37.4683 21.7241 37.4146V36.4636C21.7241 36.4099 21.7682 36.3658 21.8219 36.3658H37.2742C37.3279 36.3658 37.372 36.4099 37.372 36.4636V37.4146C37.372 37.4683 37.3279 37.5123 37.2742 37.5123Z" fill="#E6E6F9" fill-opacity="0.5"/>
<path d="M26.1002 54.16V41.0691H31.265C32.2579 41.0691 33.1037 41.2588 33.8026 41.638C34.5015 42.013 35.0341 42.535 35.4006 43.2041C35.7714 43.8688 35.9567 44.6359 35.9567 45.5052C35.9567 46.3745 35.7692 47.1416 35.3942 47.8063C35.0192 48.4711 34.4759 48.9889 33.7642 49.3596C33.0569 49.7303 32.2003 49.9157 31.1946 49.9157H27.9027V47.6977H30.7472C31.2799 47.6977 31.7188 47.6061 32.064 47.4228C32.4134 47.2353 32.6733 46.9775 32.8438 46.6494C33.0185 46.317 33.1059 45.9356 33.1059 45.5052C33.1059 45.0705 33.0185 44.6913 32.8438 44.3674C32.6733 44.0393 32.4134 43.7857 32.064 43.6068C31.7145 43.4235 31.2714 43.3319 30.7344 43.3319H28.8679V54.16H26.1002ZM28.8679 63.0691V76.16H26.1002V63.0691H28.8679ZM37.6506 89.6522H34.8509C34.7998 89.29 34.6954 88.9683 34.5377 88.687C34.38 88.4015 34.1776 88.1586 33.9304 87.9583C33.6833 87.758 33.3978 87.6046 33.0739 87.4981C32.7543 87.3916 32.407 87.3383 32.032 87.3383C31.3544 87.3383 30.7642 87.5066 30.2614 87.8433C29.7586 88.1757 29.3687 88.6615 29.0917 89.3007C28.8147 89.9356 28.6762 90.7069 28.6762 91.6146C28.6762 92.5478 28.8147 93.3319 29.0917 93.9669C29.3729 94.6018 29.765 95.0812 30.2678 95.4051C30.7706 95.7289 31.3523 95.8909 32.0128 95.8909C32.3836 95.8909 32.7266 95.8419 33.0419 95.7438C33.3616 95.6458 33.6449 95.5031 33.8921 95.3156C34.1392 95.1238 34.3438 94.8916 34.5057 94.6188C34.6719 94.3461 34.787 94.035 34.8509 93.6856L37.6506 93.6984C37.5782 94.2992 37.3971 94.8788 37.1073 95.437C36.8218 95.991 36.4361 96.4874 35.9503 96.9264C35.4688 97.361 34.8935 97.7062 34.2245 97.9619C33.5597 98.2133 32.8076 98.339 31.9681 98.339C30.8005 98.339 29.7564 98.0748 28.836 97.5464C27.9198 97.018 27.1954 96.2531 26.6627 95.2517C26.1343 94.2502 25.8701 93.0379 25.8701 91.6146C25.8701 90.187 26.1385 88.9725 26.6755 87.9711C27.2124 86.9697 27.9411 86.2069 28.8616 85.6828C29.782 85.1544 30.8175 84.8901 31.9681 84.8901C32.7266 84.8901 33.4297 84.9967 34.0775 85.2097C34.7294 85.4228 35.3069 85.7339 35.8097 86.143C36.3125 86.5478 36.7216 87.0443 37.037 87.6323C37.3566 88.2204 37.5611 88.8937 37.6506 89.6522ZM26.1002 120.16V107.069H28.8679V112.841H29.0405L33.7515 107.069H37.0689L32.211 112.931L37.1265 120.16H33.8154L30.2294 114.778L28.8679 116.44V120.16H26.1002ZM34.1861 129.069H36.9539V137.571C36.9539 138.525 36.7259 139.36 36.2699 140.076C35.8182 140.792 35.1854 141.35 34.3715 141.751C33.5576 142.147 32.6094 142.345 31.527 142.345C30.4404 142.345 29.4901 142.147 28.6762 141.751C27.8623 141.35 27.2294 140.792 26.7777 140.076C26.326 139.36 26.1002 138.525 26.1002 137.571V129.069H28.8679V137.334C28.8679 137.833 28.9766 138.276 29.1939 138.664C29.4155 139.051 29.7266 139.356 30.1272 139.578C30.5277 139.799 30.9944 139.91 31.527 139.91C32.064 139.91 32.5306 139.799 32.9269 139.578C33.3275 139.356 33.6364 139.051 33.8537 138.664C34.0753 138.276 34.1861 137.833 34.1861 137.334V129.069ZM26.1002 164.16V151.069H31.265C32.2579 151.069 33.1037 151.259 33.8026 151.638C34.5015 152.013 35.0341 152.535 35.4006 153.204C35.7714 153.869 35.9567 154.636 35.9567 155.505C35.9567 156.375 35.7692 157.142 35.3942 157.806C35.0192 158.471 34.4759 158.989 33.7642 159.36C33.0569 159.73 32.2003 159.916 31.1946 159.916H27.9027V157.698H30.7472C31.2799 157.698 31.7188 157.606 32.064 157.423C32.4134 157.235 32.6733 156.978 32.8438 156.649C33.0185 156.317 33.1059 155.936 33.1059 155.505C33.1059 155.071 33.0185 154.691 32.8438 154.367C32.6733 154.039 32.4134 153.786 32.064 153.607C31.7145 153.424 31.2714 153.332 30.7344 153.332H28.8679V164.16H26.1002Z" fill="#FFF9F9"/>
<path d="M25.1896 39V36.8182H26.0504C26.2159 36.8182 26.3569 36.8498 26.4734 36.913C26.5898 36.9755 26.6786 37.0625 26.7397 37.174C26.8015 37.2848 26.8324 37.4126 26.8324 37.5575C26.8324 37.7024 26.8011 37.8303 26.7386 37.9411C26.6761 38.0518 26.5856 38.1381 26.467 38.1999C26.3491 38.2617 26.2063 38.2926 26.0387 38.2926H25.4901V37.9229H25.9641C26.0529 37.9229 26.1261 37.9077 26.1836 37.8771C26.2418 37.8459 26.2852 37.8029 26.3136 37.7482C26.3427 37.6928 26.3572 37.6293 26.3572 37.5575C26.3572 37.4851 26.3427 37.4219 26.3136 37.3679C26.2852 37.3132 26.2418 37.271 26.1836 37.2411C26.1254 37.2106 26.0515 37.1953 25.962 37.1953H25.6509V39H25.1896ZM27.5933 36.8182V39H27.132V36.8182H27.5933ZM29.8979 37.582H29.4313C29.4228 37.5217 29.4054 37.468 29.3791 37.4212C29.3528 37.3736 29.3191 37.3331 29.2779 37.2997C29.2367 37.2663 29.1891 37.2408 29.1351 37.223C29.0819 37.2053 29.024 37.1964 28.9615 37.1964C28.8485 37.1964 28.7502 37.2244 28.6664 37.2805C28.5826 37.3359 28.5176 37.4169 28.4714 37.5234C28.4252 37.6293 28.4022 37.7578 28.4022 37.9091C28.4022 38.0646 28.4252 38.1953 28.4714 38.3011C28.5183 38.407 28.5836 38.4869 28.6674 38.5408C28.7512 38.5948 28.8482 38.6218 28.9583 38.6218C29.0201 38.6218 29.0772 38.6136 29.1298 38.5973C29.1831 38.581 29.2303 38.5572 29.2715 38.5259C29.3127 38.494 29.3468 38.4553 29.3738 38.4098C29.4015 38.3643 29.4206 38.3125 29.4313 38.2543L29.8979 38.2564C29.8858 38.3565 29.8556 38.4531 29.8074 38.5462C29.7598 38.6385 29.6955 38.7212 29.6145 38.7944C29.5343 38.8668 29.4384 38.9244 29.3269 38.967C29.2161 39.0089 29.0907 39.0298 28.9508 39.0298C28.7562 39.0298 28.5822 38.9858 28.4288 38.8977C28.2761 38.8097 28.1554 38.6822 28.0666 38.5153C27.9785 38.3484 27.9345 38.1463 27.9345 37.9091C27.9345 37.6712 27.9792 37.4688 28.0687 37.3018C28.1582 37.1349 28.2797 37.0078 28.4331 36.9205C28.5865 36.8324 28.7591 36.7884 28.9508 36.7884C29.0772 36.7884 29.1944 36.8061 29.3024 36.8416C29.411 36.8771 29.5073 36.929 29.5911 36.9972C29.6749 37.0646 29.7431 37.1474 29.7956 37.2454C29.8489 37.3434 29.883 37.4556 29.8979 37.582ZM30.2287 39V36.8182H30.69V37.7802H30.7188L31.5039 36.8182H32.0568L31.2472 37.7951L32.0664 39H31.5146L30.9169 38.103L30.69 38.38V39H30.2287ZM33.6447 36.8182H34.106V38.2351C34.106 38.3942 34.068 38.5334 33.992 38.6527C33.9167 38.772 33.8113 38.8651 33.6756 38.9318C33.54 38.9979 33.3819 39.0309 33.2015 39.0309C33.0204 39.0309 32.862 38.9979 32.7264 38.9318C32.5907 38.8651 32.4853 38.772 32.41 38.6527C32.3347 38.5334 32.2971 38.3942 32.2971 38.2351V36.8182H32.7583V38.1957C32.7583 38.2788 32.7765 38.3526 32.8127 38.4173C32.8496 38.4819 32.9015 38.5327 32.9682 38.5696C33.035 38.6065 33.1127 38.625 33.2015 38.625C33.291 38.625 33.3688 38.6065 33.4348 38.5696C33.5016 38.5327 33.5531 38.4819 33.5893 38.4173C33.6262 38.3526 33.6447 38.2788 33.6447 38.1957V36.8182ZM34.4855 39V36.8182H35.3463C35.5118 36.8182 35.6528 36.8498 35.7693 36.913C35.8857 36.9755 35.9745 37.0625 36.0356 37.174C36.0974 37.2848 36.1283 37.4126 36.1283 37.5575C36.1283 37.7024 36.097 37.8303 36.0345 37.9411C35.972 38.0518 35.8815 38.1381 35.7629 38.1999C35.645 38.2617 35.5022 38.2926 35.3346 38.2926H34.786V37.9229H35.26C35.3488 37.9229 35.422 37.9077 35.4795 37.8771C35.5377 37.8459 35.5811 37.8029 35.6095 37.7482C35.6386 37.6928 35.6531 37.6293 35.6531 37.5575C35.6531 37.4851 35.6386 37.4219 35.6095 37.3679C35.5811 37.3132 35.5377 37.271 35.4795 37.2411C35.4213 37.2106 35.3474 37.1953 35.2579 37.1953H34.9468V39H34.4855Z" fill="white"/>
</g>
<defs>
<linearGradient id="paint0_linear_200_1995" x1="4.19749" y1="65.9448" x2="35.7566" y2="22.9918" gradientUnits="userSpaceOnUse">
<stop stop-color="#870009"/>
<stop offset="1" stop-color="#FF3B48"/>
</linearGradient>
<linearGradient id="paint1_linear_200_1995" x1="29.0036" y1="56.3084" x2="31.8018" y2="56.3084" gradientUnits="userSpaceOnUse">
<stop stop-color="#DFE1E5"/>
<stop offset="1" stop-color="white"/>
</linearGradient>
<linearGradient id="paint2_linear_200_1995" x1="33.9286" y1="3.08472" x2="32.3971" y2="14.9373" gradientUnits="userSpaceOnUse">
<stop stop-color="#DFE1E5"/>
<stop offset="1" stop-color="white"/>
</linearGradient>
<linearGradient id="paint3_linear_200_1995" x1="37.2552" y1="18.0855" x2="19.6958" y2="0.512759" gradientUnits="userSpaceOnUse">
<stop stop-color="#D1CEF2"/>
<stop offset="1" stop-color="#EDEBFC"/>
</linearGradient>
<linearGradient id="paint4_linear_200_1995" x1="36.0972" y1="19.2426" x2="18.5378" y2="1.66985" gradientUnits="userSpaceOnUse">
<stop stop-color="#D1CEF2"/>
<stop offset="1" stop-color="#EDEBFC"/>
</linearGradient>
<linearGradient id="paint5_linear_200_1995" x1="37.2552" y1="52.916" x2="19.6958" y2="35.3432" gradientUnits="userSpaceOnUse">
<stop stop-color="#D1CEF2"/>
<stop offset="1" stop-color="#EDEBFC"/>
</linearGradient>
<linearGradient id="paint6_linear_200_1995" x1="36.0972" y1="54.0731" x2="18.5378" y2="36.5003" gradientUnits="userSpaceOnUse">
<stop stop-color="#D1CEF2"/>
<stop offset="1" stop-color="#EDEBFC"/>
</linearGradient>
<linearGradient id="paint7_linear_200_1995" x1="34.9393" y1="55.2302" x2="17.3798" y2="37.6574" gradientUnits="userSpaceOnUse">
<stop stop-color="#D1CEF2"/>
<stop offset="1" stop-color="#EDEBFC"/>
</linearGradient>
<linearGradient id="paint8_linear_200_1995" x1="30.5201" y1="-1.0055" x2="30.3172" y2="11.6864" gradientUnits="userSpaceOnUse">
<stop stop-color="#B8BDC2"/>
<stop offset="1" stop-color="#EFEFEF"/>
</linearGradient>
<linearGradient id="paint9_linear_200_1995" x1="26.6751" y1="3.34572" x2="31.5883" y2="3.34572" gradientUnits="userSpaceOnUse">
<stop stop-color="#DFE1E5"/>
<stop offset="1" stop-color="white"/>
</linearGradient>
<linearGradient id="paint10_linear_200_1995" x1="11.2983" y1="-2.15344" x2="10.4389" y2="-6.68323" gradientUnits="userSpaceOnUse">
<stop stop-color="#D3134F"/>
<stop offset="1" stop-color="#FF1654"/>
</linearGradient>
<linearGradient id="paint11_linear_200_1995" x1="24.323" y1="17.1271" x2="24.323" y2="-3.05578" gradientUnits="userSpaceOnUse">
<stop stop-color="#D3134F"/>
<stop offset="1" stop-color="#FF1654"/>
</linearGradient>
<linearGradient id="paint12_linear_200_1995" x1="41.7592" y1="17.1133" x2="41.7592" y2="-3.04466" gradientUnits="userSpaceOnUse">
<stop stop-color="#D3134F"/>
<stop offset="1" stop-color="#FF1654"/>
</linearGradient>
<linearGradient id="paint13_linear_200_1995" x1="44.9212" y1="-9.77547" x2="44.0618" y2="-14.3053" gradientUnits="userSpaceOnUse">
<stop stop-color="#D3134F"/>
<stop offset="1" stop-color="#FF1654"/>
</linearGradient>
<linearGradient id="paint14_linear_200_1995" x1="44.648" y1="20.2781" x2="44.5334" y2="28.4772" gradientUnits="userSpaceOnUse">
<stop stop-color="#DFE1E5"/>
<stop offset="1" stop-color="white"/>
</linearGradient>
<linearGradient id="paint15_linear_200_1995" x1="38.6482" y1="-8.58525" x2="37.7888" y2="-13.115" gradientUnits="userSpaceOnUse">
<stop stop-color="#D3134F"/>
<stop offset="1" stop-color="#FF1654"/>
</linearGradient>
<linearGradient id="paint16_linear_200_1995" x1="37.6762" y1="20.1807" x2="37.5616" y2="28.3798" gradientUnits="userSpaceOnUse">
<stop stop-color="#DFE1E5"/>
<stop offset="1" stop-color="white"/>
</linearGradient>
<linearGradient id="paint17_linear_200_1995" x1="31.5774" y1="-6.38415" x2="30.6907" y2="-11.0577" gradientUnits="userSpaceOnUse">
<stop stop-color="#D3134F"/>
<stop offset="1" stop-color="#FF1654"/>
</linearGradient>
<linearGradient id="paint18_linear_200_1995" x1="15.7665" y1="19.783" x2="15.652" y2="27.982" gradientUnits="userSpaceOnUse">
<stop stop-color="#DFE1E5"/>
<stop offset="1" stop-color="white"/>
</linearGradient>
<linearGradient id="paint19_linear_200_1995" x1="17.5781" y1="-3.3449" x2="16.7186" y2="-7.87469" gradientUnits="userSpaceOnUse">
<stop stop-color="#D3134F"/>
<stop offset="1" stop-color="#FF1654"/>
</linearGradient>
<linearGradient id="paint20_linear_200_1995" x1="22.7381" y1="19.8804" x2="22.6236" y2="28.0795" gradientUnits="userSpaceOnUse">
<stop stop-color="#DFE1E5"/>
<stop offset="1" stop-color="white"/>
</linearGradient>
<linearGradient id="paint21_linear_200_1995" x1="29.9455" y1="19.9811" x2="29.8309" y2="28.1802" gradientUnits="userSpaceOnUse">
<stop stop-color="#DFE1E5"/>
<stop offset="1" stop-color="white"/>
</linearGradient>
<linearGradient id="paint22_linear_200_1995" x1="24.5699" y1="-4.6713" x2="23.7104" y2="-9.20106" gradientUnits="userSpaceOnUse">
<stop stop-color="#D3134F"/>
<stop offset="1" stop-color="#FF1654"/>
</linearGradient>
<clipPath id="clip0_200_1995">
<rect width="60" height="60" fill="white"/>
</clipPath>
</defs>
</svg>
