<svg width="60" height="60" viewBox="0 0 60 60" fill="none" xmlns="http://www.w3.org/2000/svg">
<g clip-path="url(#clip0_200_1995)">
<path d="M4.18506 39.261V36.3713C4.18506 31.1551 8.41366 26.9265 13.6299 26.9265H20.4988C25.715 26.9265 29.9436 31.1551 29.9436 36.3713V58.9923H13.8301C8.50329 58.9923 4.18506 54.674 4.18506 49.3473V47.2976" fill="#B2D235"/>
<path d="M29.9435 36.3714C29.9435 27.7756 22.3169 27.9603 22.3169 27.9603L15.3469 44.7294C15.3469 50.0976 10.2516 54.0801 5.0769 52.6518C4.96228 52.6202 4.84744 52.5869 4.73242 52.552C6.0538 56.303 9.62693 58.9924 13.83 58.9924H29.9435L29.9435 36.3714Z" fill="#93AA0C"/>
<path d="M29.9441 59.7155H13.8306C8.11351 59.7155 3.46242 55.0644 3.46242 49.3473V47.2976C3.46242 46.8981 3.78617 46.5744 4.18562 46.5744C4.58507 46.5744 4.90882 46.8981 4.90882 47.2976V49.3473C4.90882 54.2667 8.91116 58.2691 13.8306 58.2691H29.2209V36.3714C29.2209 31.5623 25.3084 27.6498 20.4992 27.6498H13.6303C8.82132 27.6498 4.90881 31.5623 4.90881 36.3714V39.261C4.90881 39.6604 4.58506 39.9842 4.18561 39.9842C3.78615 39.9842 3.4624 39.6604 3.4624 39.261V36.3714C3.4624 30.7648 8.02367 26.2034 13.6303 26.2034H20.4992C26.1059 26.2034 30.6673 30.7648 30.6673 36.3714V58.9923C30.6673 59.3917 30.3435 59.7155 29.9441 59.7155Z" fill="black"/>
<path d="M24.8137 27.354H56.3842C57.9818 27.354 59.277 28.6492 59.277 30.2468V56.384C59.277 57.9817 57.9818 59.2768 56.3842 59.2768H24.8137C23.2161 59.2768 21.9209 57.9817 21.9209 56.384V30.2468C21.9209 28.6492 23.2161 27.354 24.8137 27.354Z" fill="#F8DB94"/>
<path d="M59.2768 56.384V33.3822C57.4466 37.5619 54.7601 42.9595 43.0752 50.3669C37.3758 53.9799 29.848 57.6023 22.7026 58.3576C23.2305 58.922 23.9798 59.2768 24.8136 59.2768H56.384C57.9817 59.2768 59.2768 57.9817 59.2768 56.384Z" fill="#E0AC51"/>
<path d="M21.9205 35.3801C21.521 35.3801 21.1973 35.0563 21.1973 34.6569V30.2469C21.1973 28.253 22.8194 26.6309 24.8133 26.6309H56.3838C58.3777 26.6309 59.9998 28.253 59.9998 30.2469V32.9849C59.9998 33.3843 59.676 33.7081 59.2766 33.7081C58.8771 33.7081 58.5534 33.3843 58.5534 32.9849V30.2469C58.5534 29.0505 57.5802 28.0773 56.3838 28.0773H24.8133C23.6169 28.0773 22.6437 29.0505 22.6437 30.2469V34.6569C22.6437 35.0563 22.3199 35.3801 21.9205 35.3801Z" fill="black"/>
<path d="M56.3838 60.0001H24.8133C22.8194 60.0001 21.1973 58.378 21.1973 56.3841V39.5807C21.1973 39.1813 21.521 38.8575 21.9205 38.8575C22.3199 38.8575 22.6437 39.1813 22.6437 39.5807V56.3841C22.6437 57.5805 23.6169 58.5537 24.8133 58.5537H56.3838C57.5802 58.5537 58.5534 57.5805 58.5534 56.3841V39.8519C58.5534 39.4525 58.8771 39.1287 59.2766 39.1287C59.676 39.1287 59.9998 39.4525 59.9998 39.8519V56.3841C59.9998 58.378 58.3777 60.0001 56.3838 60.0001Z" fill="black"/>
<path d="M39.588 54.6788H53.3132C54.112 54.6788 54.7596 54.0313 54.7596 53.2324V44.9039C54.7596 44.1051 54.112 43.4575 53.3132 43.4575H39.588C38.7892 43.4575 38.1416 44.1051 38.1416 44.9039V53.2324C38.1416 54.0312 38.7892 54.6788 39.588 54.6788Z" fill="white"/>
<path d="M53.3137 55.4022H39.5886C38.3922 55.4022 37.4189 54.4289 37.4189 53.2325V44.904C37.4189 43.7076 38.3922 42.7344 39.5886 42.7344H53.3137C54.5101 42.7344 55.4833 43.7076 55.4833 44.904V53.2325C55.4833 54.4289 54.5101 55.4022 53.3137 55.4022ZM39.5886 44.1808C39.1898 44.1808 38.8654 44.5052 38.8654 44.904V53.2325C38.8654 53.6313 39.1898 53.9557 39.5886 53.9557H53.3137C53.7125 53.9557 54.0369 53.6313 54.0369 53.2325V44.904C54.0369 44.5052 53.7125 44.1808 53.3137 44.1808H39.5886Z" fill="black"/>
<path d="M49.5894 51.2624H41.7154C41.3159 51.2624 40.9922 50.9387 40.9922 50.5392C40.9922 50.1398 41.3159 49.816 41.7154 49.816H49.5894C49.9889 49.816 50.3126 50.1398 50.3126 50.5392C50.3126 50.9387 49.9889 51.2624 49.5894 51.2624Z" fill="black"/>
<path d="M41.6461 38.6158H39.5511C38.0419 38.6158 36.8184 37.3922 36.8184 35.883V27.354H44.3788V35.883C44.3788 37.3923 43.1553 38.6158 41.6461 38.6158Z" fill="#F9A01B"/>
<path d="M41.6461 39.339H39.5512C37.6456 39.339 36.0952 37.7887 36.0952 35.8831V26.6309H45.1021V35.8831C45.1021 37.7887 43.5517 39.339 41.6461 39.339ZM37.5416 28.0773V35.8831C37.5416 36.9912 38.4431 37.8926 39.5512 37.8926H41.6461C42.7542 37.8926 43.6557 36.9912 43.6557 35.8831V28.0773H37.5416Z" fill="black"/>
<path d="M51.1872 48.3207H41.7154C41.3159 48.3207 40.9922 47.9969 40.9922 47.5975C40.9922 47.198 41.3159 46.8743 41.7154 46.8743H51.1872C51.5867 46.8743 51.9104 47.198 51.9104 47.5975C51.9104 47.9969 51.5867 48.3207 51.1872 48.3207Z" fill="black"/>
<path d="M16.5264 45.8675H25.9544V53.7832H13.2249C10.5866 53.7832 8.44775 51.6444 8.44775 49.0061V36.6792C8.44775 34.4679 10.2404 32.6753 12.4516 32.6753C14.6756 32.6753 16.4734 34.4877 16.4554 36.7115L16.3849 45.7251C16.3844 45.8036 16.4479 45.8675 16.5264 45.8675Z" fill="#B2D235"/>
<path d="M25.9541 54.5065H13.2246C10.1916 54.5065 7.72412 52.0389 7.72412 49.006V35.0352C7.72412 34.6358 8.04787 34.312 8.44732 34.312C8.84678 34.312 9.17053 34.6358 9.17053 35.0352V49.006C9.17053 51.2415 10.9891 53.0601 13.2246 53.0601H25.2309V46.5908H16.526C16.2938 46.5908 16.076 46.5001 15.9123 46.3352C15.7488 46.1705 15.6596 45.952 15.6613 45.7198L15.7317 38.6086C15.7357 38.2117 16.0587 37.8926 16.4548 37.8926H16.4621C16.8615 37.8965 17.1821 38.2235 17.1781 38.623L17.1135 45.1444H25.954C26.3535 45.1444 26.6772 45.4681 26.6772 45.8676V53.7833C26.6773 54.1827 26.3535 54.5065 25.9541 54.5065Z" fill="black"/>
<path d="M24.5078 45.7607V43.5216C24.5078 42.0252 25.7209 40.8121 27.2173 40.8121C28.7203 40.8121 29.9361 42.0356 29.9267 43.5386L29.9121 45.8676C32.0979 45.8676 33.8699 47.6396 33.8699 49.8254C33.8699 52.0113 32.0979 53.7833 29.9121 53.7833H24.5078V45.8676" fill="#FCC3A2"/>
<path d="M29.9121 54.5065H24.5079C24.1084 54.5065 23.7847 54.1827 23.7847 53.7833V45.8676C23.7847 45.8496 23.7854 45.8318 23.7866 45.8142C23.7854 45.7964 23.7847 45.7786 23.7847 45.7606V43.5215C23.7847 41.6288 25.3246 40.0889 27.2173 40.0889C28.1383 40.0889 29.003 40.4486 29.6522 41.1019C30.3014 41.7552 30.6557 42.6221 30.6499 43.543L30.6396 45.2006C30.9195 45.2443 31.1947 45.3135 31.4628 45.4075C33.3352 46.0646 34.5932 47.8402 34.5932 49.8254C34.5932 52.4065 32.4932 54.5065 29.9121 54.5065ZM25.2311 53.06H29.9121C31.6957 53.06 33.1468 51.609 33.1468 49.8254C33.1468 48.4533 32.2775 47.2264 30.9836 46.7723C30.6407 46.6518 30.2801 46.5908 29.9121 46.5908C29.7196 46.5908 29.5348 46.5139 29.3991 46.3773C29.2634 46.2407 29.1878 46.0556 29.1889 45.863L29.2035 43.534C29.2069 43.001 29.0018 42.4994 28.6262 42.1215C28.2506 41.7435 27.7503 41.5353 27.2174 41.5353C26.1221 41.5353 25.2311 42.4263 25.2311 43.5215V45.7606C25.2311 45.7786 25.2304 45.7964 25.2291 45.8142C25.2304 45.8318 25.2311 45.8496 25.2311 45.8676L25.2311 53.06Z" fill="black"/>
<path d="M26.9745 19.9714H25.0254V14.5284H26.9745C28.4775 14.5284 29.696 15.7469 29.696 17.2499C29.696 18.7529 28.4775 19.9714 26.9745 19.9714Z" fill="#FCC3A2"/>
<path d="M26.9741 20.6945H25.025C24.6255 20.6945 24.3018 20.3707 24.3018 19.9713V14.5284C24.3018 14.129 24.6255 13.8052 25.025 13.8052H26.9741C28.8735 13.8052 30.4188 15.3505 30.4188 17.2498C30.4188 19.1492 28.8735 20.6945 26.9741 20.6945ZM25.7482 19.2481H26.9741C28.076 19.2481 28.9723 18.3517 28.9723 17.2499C28.9723 16.1481 28.076 15.2516 26.9741 15.2516H25.7482V19.2481Z" fill="black"/>
<path d="M6.90653 19.9714H8.85562V14.5284H6.90653C5.40351 14.5284 4.18506 15.7469 4.18506 17.2499C4.18506 18.7529 5.4035 19.9714 6.90653 19.9714Z" fill="#FCC3A2"/>
<path d="M8.85605 20.6945H6.90708C5.00768 20.6945 3.4624 19.1492 3.4624 17.2499C3.4624 15.3505 5.00768 13.8052 6.90708 13.8052H8.85605C9.2555 13.8052 9.57925 14.129 9.57925 14.5284V19.9713C9.57925 20.3707 9.2555 20.6945 8.85605 20.6945ZM6.90708 15.2516C5.80518 15.2516 4.90881 16.148 4.90881 17.2499C4.90881 18.3517 5.80519 19.2481 6.90708 19.2481H8.13285V15.2516L6.90708 15.2516Z" fill="black"/>
<path d="M18.0063 25.1509H16.1209C11.5558 25.1509 7.85498 21.4501 7.85498 16.885V10.3899H26.2722V16.885C26.2722 21.4501 22.5715 25.1509 18.0063 25.1509Z" fill="#FCC3A2"/>
<path d="M7.85498 10.39H26.2722V16.0695H7.85498V10.39Z" fill="#F4A076"/>
<path d="M18.0068 25.8741H16.1214C11.1647 25.8741 7.13232 21.8416 7.13232 16.885V10.39C7.13232 9.99057 7.45607 9.66675 7.85553 9.66675H26.2728C26.6722 9.66675 26.996 9.99057 26.996 10.39V16.885C26.996 21.8416 22.9634 25.8741 18.0068 25.8741ZM8.57873 11.1132V16.885C8.57873 21.0441 11.9624 24.4277 16.1214 24.4277H18.0068C22.1659 24.4277 25.5496 21.044 25.5496 16.885V11.1132H8.57873Z" fill="black"/>
<path d="M26.678 10.914H7.85498V10.7826C7.85498 5.58478 12.0687 1.37109 17.2665 1.37109C22.4643 1.37109 26.678 5.58476 26.678 10.7826L26.678 10.914Z" fill="#00AEEF"/>
<path d="M26.6786 11.6371H7.85553C7.45607 11.6371 7.13232 11.3133 7.13232 10.9139V10.7826C7.13232 5.19427 11.6786 0.647827 17.2669 0.647827C22.8553 0.647827 27.4018 5.19426 27.4018 10.7826V10.9139C27.4018 11.3133 27.078 11.6371 26.6786 11.6371ZM8.59865 10.1907H25.9355C25.6303 5.67479 21.859 2.09423 17.267 2.09423C12.6751 2.09423 8.90375 5.67479 8.59865 10.1907Z" fill="black"/>
<path d="M32.2846 13.2692H10.2101C8.9094 13.2692 7.85498 12.2148 7.85498 10.9141C7.85498 9.61337 8.9094 8.55896 10.2101 8.55896H32.2846C33.5853 8.55896 34.6397 9.61337 34.6397 10.9141C34.6397 12.2148 33.5853 13.2692 32.2846 13.2692Z" fill="#00AEEF"/>
<path d="M17.2667 20.8651C15.7483 20.8651 14.3739 20.2402 13.5905 19.1935C13.3513 18.8737 13.4164 18.4205 13.7362 18.1812C14.0559 17.9417 14.5089 18.007 14.7485 18.3268C15.2526 19.0003 16.2175 19.4187 17.2667 19.4187C18.3157 19.4187 19.2804 19.0004 19.7847 18.3271C20.0239 18.0073 20.4772 17.9423 20.797 18.1816C21.1166 18.4211 21.1818 18.8743 20.9423 19.1941C20.1588 20.2405 18.7847 20.8651 17.2667 20.8651Z" fill="black"/>
<path d="M32.2851 13.9923H7.85553C7.45607 13.9923 7.13232 13.6685 7.13232 13.2691V10.914C7.13232 9.21662 8.51319 7.83569 10.2106 7.83569H11.4577C11.8572 7.83569 12.1809 8.15951 12.1809 8.5589C12.1809 8.95828 11.8572 9.2821 11.4577 9.2821H10.2106C9.31083 9.2821 8.57873 10.0141 8.57873 10.914V12.5459H32.2851C33.1849 12.5459 33.917 11.8138 33.917 10.914C33.917 10.0141 33.1849 9.2821 32.2851 9.2821H18.0558C17.6563 9.2821 17.3326 8.95828 17.3326 8.5589C17.3326 8.15951 17.6563 7.83569 18.0558 7.83569H32.2851C33.9825 7.83569 35.3634 9.21663 35.3634 10.914C35.3634 12.6114 33.9825 13.9923 32.2851 13.9923Z" fill="black"/>
<path d="M14.3585 59.7154H0.723203C0.323749 59.7154 0 59.3917 0 58.9922C0 58.5928 0.323749 58.269 0.723203 58.269H14.3585C14.758 58.269 15.0817 58.5928 15.0817 58.9922C15.0817 59.3917 14.758 59.7154 14.3585 59.7154Z" fill="black"/>
<path d="M20.1265 45.8676H24.5078V53.7833H20.1265V45.8676Z" fill="#00AEEF"/>
<path d="M24.508 54.5064H20.1265C19.7271 54.5064 19.4033 54.1826 19.4033 53.7832V45.8675C19.4033 45.468 19.7271 45.1443 20.1265 45.1443H24.508C24.9074 45.1443 25.2312 45.468 25.2312 45.8675V53.7832C25.2312 54.1826 24.9074 54.5064 24.508 54.5064ZM20.8497 53.06H23.7848V46.5907H20.8497V53.06Z" fill="black"/>
<path d="M45.7512 3.36926C43.0892 3.36926 40.7994 4.96309 39.7842 7.24852C39.4248 8.0575 39.2251 8.9531 39.2251 9.89536C39.2251 13.4996 45.7512 23.1691 45.7512 23.1691C45.7512 23.1691 52.2773 13.4996 52.2773 9.89536C52.2773 6.29109 49.3555 3.36926 45.7512 3.36926ZM45.7512 12.6019C44.2731 12.6019 43.0749 11.4036 43.0749 9.92556C43.0749 8.44748 44.2731 7.24925 45.7512 7.24925C47.2293 7.24925 48.4275 8.44748 48.4275 9.92556C48.4275 11.4036 47.2293 12.6019 45.7512 12.6019Z" fill="#EF8B46"/>
<path d="M45.7514 23.8921C45.5109 23.8921 45.2864 23.7727 45.1519 23.5735C45.1355 23.5491 43.4861 21.1002 41.8596 18.2413C39.6317 14.325 38.502 11.5169 38.502 9.8952C38.502 8.87226 38.711 7.88295 39.1233 6.95479C40.2862 4.3372 42.8878 2.64587 45.7514 2.64587C49.7486 2.64587 53.0006 5.89789 53.0006 9.8952C53.0006 11.5169 51.8709 14.325 49.6429 18.2413C48.0166 21.1002 46.3672 23.5491 46.3508 23.5735C46.2163 23.7727 45.9918 23.8921 45.7514 23.8921ZM45.7514 4.09225C43.459 4.09225 41.3761 5.44635 40.4451 7.54194C40.1155 8.28408 39.9484 9.07578 39.9484 9.89517C39.9484 12.3969 43.7073 18.7068 45.7514 21.857C47.7954 18.7068 51.5542 12.3969 51.5542 9.89517C51.5542 6.69543 48.9511 4.09225 45.7514 4.09225ZM45.7514 13.3249C43.8768 13.3249 42.3517 11.7999 42.3517 9.92542C42.3517 8.05087 43.8768 6.52587 45.7514 6.52587C47.6259 6.52587 49.1508 8.05089 49.1508 9.92542C49.1508 11.7999 47.6259 13.3249 45.7514 13.3249ZM45.7514 7.97226C44.6743 7.97226 43.7981 8.84844 43.7981 9.9254C43.7981 11.0023 44.6743 11.8785 45.7514 11.8785C46.8282 11.8785 47.7044 11.0023 47.7044 9.9254C47.7044 8.84844 46.8282 7.97226 45.7514 7.97226Z" fill="black"/>
</g>
<defs>
<clipPath id="clip0_200_1995">
<rect width="60" height="60" fill="white"/>
</clipPath>
</defs>
</svg>
